<svg xmlns="http://www.w3.org/2000/svg" width="232.32" height="60.56" viewBox="0 0 232.32 60.56">
  <path id="パス_885" data-name="パス 885" d="M-115.6-1.12c2.8-.16,9.92-.24,14.4-.24,4.4,0,8.96.16,12.88.16,7.52,0,11.04-.72,15.12-2.96a15.493,15.493,0,0,0,7.68-13.28c0-5.36-2.56-9.36-7.68-11.84-3.04-1.52-5.92-2.08-13.84-2.72,6.24-.88,8.56-1.44,10.64-2.32A12.908,12.908,0,0,0-68-46.64a12.57,12.57,0,0,0-5.92-10.88C-76.96-59.2-80-59.76-86-59.76c-5.52,0-12.56.56-19.6.56-2.48,0-5.28-.08-10-.24v2.16l8,.16v53.6l-8,.24Zm19.68-2.4V-30.8h4.16c5.04.08,9.2,1.28,11.28,3.28,2.32,2.24,3.68,6.08,3.68,10,0,5.44-2.56,10.56-6.24,12.4-2.32,1.2-4.8,1.6-10.4,1.6Zm0-53.84c2.24-.08,4.72-.24,5.84-.24a14.055,14.055,0,0,1,6.72,1.36c2.88,1.52,4.64,5.36,4.64,9.84,0,4-1.2,7.44-3.28,9.52a14.218,14.218,0,0,1-9.76,3.92h-4.16Zm36,56.08c4.24,0,10.16-.08,16.8-.08,9.04,0,18.16,0,31.04.24.32-6.56.72-12.16,1.28-20.56h-2.16c-.96,6.72-1.76,9.76-3.28,12.24C-18.4-5.92-23.6-4.16-32.16-4.16h-7.52V-57.2l8.32-.08v-2.16H-59.92v2.16l8.56.08V-3.52l-8.56.16ZM22.56-60.64C7.04-60.64-6-46.64-6-30.08c0,16.48,13.12,30,29.12,30,16.24,0,29.6-13.6,29.6-30.08A30.1,30.1,0,0,0,22.56-60.64ZM23.68-2.08c-4.64,0-8.8-2.4-11.68-6.64-3.04-4.64-4.56-11.6-4.56-21.44,0-11.12,1.44-17.84,4.72-22.48A13.5,13.5,0,0,1,23.2-58.56c9.84,0,16.16,10.48,16.16,27.04,0,10.08-2.72,20.56-6.56,25.04A11.669,11.669,0,0,1,23.68-2.08ZM104.32-55.2c-6.24-4.08-10.4-5.44-16.32-5.44-15.84,0-29.12,14.16-29.12,31.2C58.88-12.56,71.2-.08,87.84-.08a29.974,29.974,0,0,0,16.64-4.96,16.992,16.992,0,0,0,5.68-6.08v-7.84l6.56-.08V-21.2H90.48v2.16l8.56.08v7.28c0,5.2-4.56,9.2-10.64,9.2A14.278,14.278,0,0,1,76.56-8.96c-2.64-4.4-4.24-12-4.24-20.32,0-8.72,1.84-16.64,4.96-21.52a16.453,16.453,0,0,1,12.88-7.28c4.72,0,9.52,2.8,12.56,7.28,1.92,2.88,2.96,5.68,4.08,11.6l2.08-.24c-.32-3.76-.56-6.96-.56-9.92a76.5,76.5,0,0,1,.4-8.4l-1.44-.72Z" transform="translate(115.6 60.64)" fill="#e0bd00"/>
</svg>
