<svg xmlns="http://www.w3.org/2000/svg" xmlns:xlink="http://www.w3.org/1999/xlink" width="163" height="453" viewBox="0 0 163 453">
  <defs>
    <radialGradient id="radial-gradient" cx="0.5" cy="0.5" r="0.752" gradientUnits="objectBoundingBox">
      <stop offset="0" stop-color="gold"/>
      <stop offset="0.325" stop-color="#ffd800"/>
      <stop offset="1" stop-color="#847000"/>
    </radialGradient>
  </defs>
  <g id="グループ_3024" data-name="グループ 3024" transform="translate(-1317.001 -3732)">
    <path id="合体_29" data-name="合体 29" d="M-13,453V277H60V0h90V394H60v59Z" transform="translate(1330 3732)" fill="url(#radial-gradient)"/>
    <path id="パス_1223" data-name="パス 1223" d="M-22.42-58.14A14.164,14.164,0,0,0-25-62.244c-.532-.532-.836-.836-1.292-.836-.228,0-.532.228-.532.456a9.4,9.4,0,0,1-.152,1.368,10.077,10.077,0,0,1-1.368,3.724,12.967,12.967,0,0,1-4.028,4.18,4.559,4.559,0,0,0-2.356,4.332c0,2.964,2.356,4.712,5.548,4.712a7.6,7.6,0,0,0,6.308-3.648,9.455,9.455,0,0,0,1.368-5.092,12.651,12.651,0,0,0-.38-3.5h44c-.3,2.736-.684,5.548-.988,7.372-1.976-1.6-3.116-2.2-3.8-2.2-.988,0-1.672.912-4.864,5.624H4.1l.076-2.812c1.748-1.064,2.508-1.6,2.508-2.736,0-.988-.836-1.672-3.116-2.128A62.694,62.694,0,0,0-5.32-54.72c-.3,0-.38.152-.38.532,0,.152.076,1.748.076,1.9,0,.608.076,3.648.152,6.536H-20.52c-.76,0-2.356-.076-3.572-.152a.542.542,0,0,0-.608.532c0,.152.076.3,1.14,1.6,1.52-.152,3.192-.152,4.712-.152H-5.472l.076,7.3H-13a4.06,4.06,0,0,0-2.432-1.444,49.559,49.559,0,0,0-7.448-1.6c-.532,0-.532.152-.532,2.128V-36.1c-.152,6.916-.228,13.832-.38,20.748,0,1.976.532,2.66,3.42,2.66a10.083,10.083,0,0,0,5.4-1.52,2.346,2.346,0,0,0,.76-2.052v-.38h8.74l-.152,8.208H-29.716c-1.064,0-3.268-.152-4.94-.3a.542.542,0,0,0-.608.532c0,.152.076.3,1.292,2.052,2.2-.152,4.56-.228,6.764-.228H-5.7c0,1.14,0,2.052-.076,3.5C-5.852-1.672-6,2.052-6,3.8c0,2.128.988,2.888,3.724,2.888A9.493,9.493,0,0,0,3.648,4.864c.76-.684.912-1.14.912-2.584L4.332-6.384H33.288c1.444,0,2.28-.532,2.28-1.444,0-2.128-6.232-7.752-8.588-7.752-1.14,0-2.128,1.52-6.536,7.144H4.332c0-1.14-.076-3.876-.152-8.208h9.044v.76c0,1.368.988,2.128,3.268,2.128a10.839,10.839,0,0,0,6.232-1.824,3.3,3.3,0,0,0,1.14-2.888c0-1.824-.228-6.308-.608-14.364,1.292-.836,2.052-1.6,2.052-2.28s-.532-1.292-1.9-2.2c-3.268-2.128-5.776-3.344-6.764-3.344-.836,0-1.52.684-4.028,4.028H4.1v-7.3H22.04c1.824,0,2.584-.3,2.584-1.14,0-.76-.532-1.6-1.672-2.584l-.38-.3A29.588,29.588,0,0,1,29.64-50.54a21.8,21.8,0,0,1,2.964-.3c1.9-.076,3.04-.912,3.04-2.28,0-1.6-1.064-3.42-3.724-5.7-3.344-2.888-5.4-3.952-6.764-3.952-.988,0-1.444.608-2.736,2.2-.532.684-.912,1.216-1.824,2.432Zm35.8,32.528v7.22H4.18L4.1-25.612Zm0-1.824H4.1V-34.96h8.284c.608,0,.912.228.988.684ZM-5.4-25.612l-.076,7.22h-8.816v-7.22Zm0-9.348v7.524h-8.892l.076-4.332c.076-2.356.38-2.964,1.6-3.192Zm-18.7,86.336-.076-9.424h7.144V43.7c0,1.292.76,1.748,2.888,1.748a14.273,14.273,0,0,0,5.624-1.292,1.959,1.959,0,0,0,.988-1.9c0-.38,0-1.748-.076-3.648-.076-2.736-.076-2.736-.152-3.876-.076-2.356-.076-2.356-.152-4.332,2.052-1.292,2.128-1.444,2.128-2.052,0-.76-.684-1.672-1.976-2.66-2.736-2.052-4.636-3.116-5.624-3.116-.532,0-.988.3-2.432,1.672l-1.216,1.14H-21.66c3.648-2.888,5.624-4.636,8.664-7.448,2.432-.608,3.04-1.292,3.04-2.28,0-.836-.608-1.368-2.052-1.9a58.336,58.336,0,0,0-9.576-2.28c-.228,0-.3.076-.38.456A120.058,120.058,0,0,1-24.4,24.472a21.593,21.593,0,0,0-7.676-2.508c-.456,0-.608.228-.608.76,0,7.3.152,15.048,0,24.776-.076,9.8-.228,19.836-.38,29.184,0,1.748.608,2.356,2.432,2.356,2.736,0,4.332-.228,5.548-.988.988-.532,1.216-1.216,1.216-3.572V68.932h7.372v2.812c0,1.672.3,2.432,2.584,2.432,2.508,0,5.548-.988,6.46-2.128.456-.532.684-1.064.684-2.66-.152-3.5-.38-10.792-.456-14.06C-5.548,54.036-5.4,53.884-5.4,53.276c0-.76-1.064-1.748-3.42-3.268-2.052-1.216-3.572-1.9-4.256-1.9-.836,0-1.064.228-3.344,3.268Zm7.144-11.248h-7.22c.076-8.968.076-9.424.152-10.868.076-1.52.3-2.052,1.14-2.052H-17.4c.38.3.456.532.456,1.672Zm.456,26.9h-7.524l-.076-13.756h6.536c.912,0,1.064.3,1.064,2.2ZM-3.344,19.076c-.912,0-2.888-.076-4.332-.228a.542.542,0,0,0-.608.532c0,.152.076.3,1.216,1.672A24.626,24.626,0,0,1-3.724,20.9H9.2c.076,2.052.152,3.952.152,6.232,0,2.736,0,3.5.076,5.548H6.384a6.435,6.435,0,0,0-2.432-1.292,36.06,36.06,0,0,0-6.308-1.216c-.3,0-.3.076-.3,1.444.076,2.128.076,3.344.076,3.876,0,2.052,0,7.524-.076,13.376-.076,8.512-.228,16.416-.3,19.3-.076,4.18-.076,4.18-.076,4.484,0,1.52.76,2.128,2.736,2.128,2.128,0,4.18-.608,5.168-1.6.608-.684.684-.836.684-4.332V36.1c0-.912.076-1.064.532-1.52h3.5c0,3.572,0,3.952-.076,11.324-.152,10.108-.3,18.62-.456,24.7-.228,7.144-.228,7.372-.228,8.816,0,2.432.836,3.192,3.04,3.192a11.167,11.167,0,0,0,5.624-1.52c.836-.608,1.216-1.14,1.14-3.268l-.152-8.36a3.868,3.868,0,0,1,2.584,2.888,19.436,19.436,0,0,0,.532,2.052c.38,1.14,1.52,1.444,2.736,1.444a8.752,8.752,0,0,0,7.144-3.5c.836-1.14,1.14-2.736,1.14-5.4-.228-7.144-.228-7.372-.608-16.112-.152-3.8-.3-7.752-.3-13.072,1.368-.912,1.824-1.52,1.824-2.28,0-.836-.456-1.444-2.508-3.192-2.888-2.28-4.788-3.42-5.776-3.42-.836,0-1.368.532-3.8,3.8h-3.42l.228-9.728c1.748-.608,2.052-1.064,2.052-2.052H32.376c1.748,0,2.432-.38,2.432-1.368,0-2.052-5.4-6.916-7.6-6.916-.836,0-1.444.456-2.66,2.052-2.584,3.344-2.584,3.344-3.42,4.408Zm21.66,49.172c-.076-5.016-.152-10.032-.228-15.2-.076-5.4-.152-12.312-.228-18.468h4.56c.076,4.864.152,9.956.228,14.82.076,7.068.076,7.828.076,11.7.076,5.32-.152,5.624-.76,6.308-.456.532-1.444.836-3.268.836Zm8.74,21.888a6.156,6.156,0,1,0,6.08,6.156A6.114,6.114,0,0,0,27.056,90.136Zm0,2.356a3.762,3.762,0,0,1,0,7.524,3.762,3.762,0,1,1,0-7.524ZM19.228,110.96c2.432-.836,3.42-1.6,3.42-2.812s-1.14-2.66-3.5-4.56S14.136,100.32,13,100.32c-.76,0-1.216.228-2.128,1.216L9.2,103.208a5.73,5.73,0,0,1-2.28.532c-9.88,1.216-21.28,2.28-25.612,2.28a4.415,4.415,0,0,1-3.192-1.216c-.38-.3-.456-.38-.608-.38-.38,0-.76.988-.76,1.976a7.439,7.439,0,0,0,1.976,4.028c1.292,1.824,2.128,2.356,3.268,2.356.912,0,1.292-.076,5.092-1.064a134.277,134.277,0,0,1,22.344-3.5c-1.368,11.248-6.688,23.636-13.3,31.312a51.931,51.931,0,0,1-7.9,7.144,58.241,58.241,0,0,1-7.3,4.408,40.957,40.957,0,0,1-4.56,1.9c-.684.228-.76.38-.76.684s.228.38.532.38a18.189,18.189,0,0,0,3.8-.76,64.112,64.112,0,0,0,8.132-2.584,58.759,58.759,0,0,0,8.588-4.56C8.132,138.776,15.048,128.06,19.228,110.96Zm-36.252,64.372c0,.152.228.38.608.684a14.75,14.75,0,0,0,1.292.76,28.12,28.12,0,0,0,7.068,2.888A33,33,0,0,0,.76,180.956a50.715,50.715,0,0,0,12.388-1.748c2.356-.684,3.192-1.52,3.192-3.04,0-1.748-1.444-3.192-4.1-4.18a22.691,22.691,0,0,0-5.168-1.368,5.378,5.378,0,0,0-2.28.684,41.992,41.992,0,0,1-7.3,2.584A48.394,48.394,0,0,1-13,175.408a9.974,9.974,0,0,1-2.356-.3,9.532,9.532,0,0,0-1.14-.152C-16.8,174.952-17.024,175.1-17.024,175.332Zm-2.508,15.428a2.382,2.382,0,0,0-1.52,2.508c0,1.064.532,1.748,1.976,2.964a12.576,12.576,0,0,0,6.308,2.66,2.43,2.43,0,0,0,1.444-.532,11.131,11.131,0,0,1,4.256-1.9c2.356-.76,5.7-1.368,8.664-2.052a30.685,30.685,0,0,1,3.876-.608c1.216-.076,3.04-.152,3.5-.152a49.153,49.153,0,0,1-4.636,15.2A41.657,41.657,0,0,1-8.512,224.884a34.67,34.67,0,0,1-10.412,5.776c-.38.152-.456.152-.456.3s.152.228.38.228a29.637,29.637,0,0,0,5.7-1.216c11.324-3.572,18.924-8.284,23.56-14.516a65.225,65.225,0,0,0,8.512-17.784,11.685,11.685,0,0,1,.608-1.824c1.6-.38,2.2-.836,2.2-1.9,0-1.292-1.368-2.964-4.712-5.244-1.976-1.444-3.952-2.356-5.092-2.356-.38,0-.456.076-1.6,1.064-.76.684-2.888,1.368-6.764,2.128-7.3,1.368-15.428,2.584-18.012,2.584C-17.024,192.128-18.544,191.672-19.532,190.76Zm3.42,65.892a35.061,35.061,0,0,0-5.928.532c-1.14.228-1.976.456-1.976.684,0,.152.152.3.532.456,3.04,1.064,8.056,5.548,9.8,8.588.684,1.368.684,1.52,1.216,1.672a7.6,7.6,0,0,0,2.28.456,5.275,5.275,0,0,0,5.4-5.4C-4.788,259.54-9.424,256.652-16.112,256.652ZM-9.424,296.4A140.654,140.654,0,0,0,9.652,283.86a79.6,79.6,0,0,0,11.856-11.02c2.584-3.04,6.08-7.676,6.916-9.424a1.518,1.518,0,0,0,.228-.608.426.426,0,0,0-.456-.38c-.228,0-.38.152-1.672,1.292a78.835,78.835,0,0,1-6.916,5.776,163.47,163.47,0,0,1-25.536,14.44c-2.28.912-8.36,2.812-9.348,2.812-3.116,0-4.712-.988-5.4-3.42-1.368.38-2.66,2.812-2.66,4.864,0,1.216.836,2.736,2.584,4.636a26.4,26.4,0,0,0,4.1,3.876,6.225,6.225,0,0,0,3.572,1.444c.836,0,1.52-.3,2.964-1.292Z" transform="translate(1435 3811)"/>
    <path id="パス_1224" data-name="パス 1224" d="M-3.38-19.6a11.256,11.256,0,0,1-2.7,1.872c-4.628,2.86-6.812,5.876-6.812,9.256C-12.9-2.756-6.4.832,4,.832,10.036.832,12.9-.1,12.9-1.976c0-1.82-2.912-3.536-6.136-3.536a9.493,9.493,0,0,0-2.236.468,24.047,24.047,0,0,1-6.76.832c-5.824,0-8.788-1.612-8.788-4.836,0-1.716.936-3.224,2.912-4.732,1.82-1.508,3.588-2.288,7.384-3.588.728-.208,2.236-.52,4.888-1.04,1.872-.312,2.392-.416,2.86-.52,3.172-.78,4.264-1.508,4.264-2.912A1.853,1.853,0,0,0,9.62-23.816c-1.248-.26-3.12-.572-3.224-.572a2.267,2.267,0,0,0-.936.208C2.548-22.62,1.352-22.2-.1-22.2c-.78,0-1.2-.572-1.2-1.508a49.526,49.526,0,0,1,.468-5.72c.884-5.356.884-5.46.884-5.98,0-2.028-1.352-3.484-3.744-4.16-1.2-.312-1.872-.52-2.184-.624-.936-.312-1.456-.52-1.872-.676a2.775,2.775,0,0,0-1.04-.26.4.4,0,0,0-.416.364c0,.416.312.988,1.248,1.82a4.19,4.19,0,0,1,1.664,3.224,42.131,42.131,0,0,1,.624,7.9C-5.564-22.1-5.408-21.58-3.38-19.6ZM-14.82,51.708c-.26,0-.624-.676-.884-1.768a21.27,21.27,0,0,1-.416-4.42,43.126,43.126,0,0,1,2.808-13.676c.78-2.288.988-2.964.988-3.952,0-1.456-1.248-3.016-3.952-5.044a4,4,0,0,0-2.236-1.2c-.156,0-.312.052-.312.208a1.07,1.07,0,0,0,.26.468c.728.936,1.144,2.86,1.144,5.772a29.062,29.062,0,0,1-.26,3.536,156.511,156.511,0,0,0-1.872,17.056c0,4.212.26,5.772,1.3,8.008,1.04,2.184,2.5,3.328,4.264,3.328A2.223,2.223,0,0,0-11.6,58.1a2.566,2.566,0,0,0-.156-.78,3.154,3.154,0,0,1-.364-1.612A55.641,55.641,0,0,1-10.4,43.7c.364-1.4.52-1.924.676-2.548s.468-1.82.468-1.976c0-.1-.1-.156-.208-.156s-.156.052-.208.156-.208.468-.78,1.924c-.676,1.768-1.872,4.628-1.976,4.94-1.144,2.912-1.716,4.472-2.08,5.252C-14.664,51.656-14.716,51.708-14.82,51.708ZM-4.784,36.68A15.308,15.308,0,0,0-1.56,37.3a4.451,4.451,0,0,0,2.7-1.04,22.163,22.163,0,0,1,3.8-2.08c1.924-.936,2.808-1.3,3.848-1.768.156,2.6.312,5.408.416,7.748.1,2.184.156,3.952.156,4.784,0,1.04-.052,1.716-.156,3.016a18.5,18.5,0,0,0-2.7-.208,20.142,20.142,0,0,0-5.72.728c-2.288.728-4,2.236-4,3.692a5.774,5.774,0,0,0,1.872,3.588,7.774,7.774,0,0,0,5.408,1.768c3.536,0,5.512-1.2,8.008-4.784A29.7,29.7,0,0,1,16.38,56.6c1.4,1.56,2.132,1.976,3.536,1.976a2.4,2.4,0,0,0,2.548-2.184c0-1.456-.988-2.86-2.912-4.264A26.888,26.888,0,0,0,13.364,48.8a23.972,23.972,0,0,0,.26-4.16c0-1.612,0-3.952-.156-7.488-.052-2.08-.1-3.952-.156-6.032a7.877,7.877,0,0,1,3.8-1.04c1.4.052,1.4.052,1.508.052A2.275,2.275,0,0,0,21.112,28c0-.936-.728-1.352-2.288-1.508-.572-.052-2.028-.208-2.964-.364a11.166,11.166,0,0,0-1.716-.156,2.591,2.591,0,0,0-1.352.468V21.964c0-.572.052-1.144.052-1.768a2.747,2.747,0,0,0-1.664-2.912A8.272,8.272,0,0,0,7.436,16.4a4.144,4.144,0,0,0-3.12,1.4c-.312.26-.468.468-.468.572,0,.156.1.208.26.208a2.984,2.984,0,0,0,.624-.052,5.828,5.828,0,0,1,1.248-.156c.988,0,1.664.364,1.976,1.976.156.884.312,2.964.416,4.68.052,1.092.1,2.34.156,3.8-1.612.78-2.5,1.248-4.68,2.34-1.4.676-2.548,1.248-3.172,1.612a28.69,28.69,0,0,1-6.344,2.756c-.728.208-.832.208-.832.364,0,.208.156.312.884.52ZM8.268,50.616a7.572,7.572,0,0,1-2.912,2.756,8.257,8.257,0,0,1-3.8.988c-1.924,0-3.588-.936-3.588-2.028,0-1.456,2.444-2.548,5.876-2.548A10.812,10.812,0,0,1,8.268,50.616ZM3.38,111.372a3.928,3.928,0,0,0-3.9-3.9,3.928,3.928,0,0,0-3.9,3.9,3.928,3.928,0,0,0,3.9,3.9A3.9,3.9,0,0,0,3.38,111.372Zm-4.42-8.06a6.041,6.041,0,0,1-.312-1.768,6.433,6.433,0,0,1,1.924-4A31.427,31.427,0,0,1,4.68,94.316c3.692-2.548,5.46-5.356,5.46-8.84a8.482,8.482,0,0,0-4.576-7.8,11.5,11.5,0,0,0-5.98-1.508c-5.564,0-9.828,3.588-9.828,8.216,0,2.288,1.352,3.8,3.432,3.8A3.2,3.2,0,0,0-3.536,84.9c0-1.56-.728-2.444-2.7-3.016-.728-.156-.832-.26-.832-.624,0-1.872,3.12-3.744,6.344-3.744,3.64,0,6.084,2.08,6.084,5.148,0,1.768-.78,2.86-3.536,5.044A19.138,19.138,0,0,0-2.7,93.12,10.25,10.25,0,0,0-3.692,97.7a18.668,18.668,0,0,0,1.144,6.032Z" transform="translate(1352 4059)"/>
  </g>
</svg>
