<svg xmlns="http://www.w3.org/2000/svg" xmlns:xlink="http://www.w3.org/1999/xlink" width="150" height="525" viewBox="0 0 150 525">
  <defs>
    <radialGradient id="radial-gradient" cx="0.5" cy="0.5" r="0.752" gradientUnits="objectBoundingBox">
      <stop offset="0" stop-color="gold"/>
      <stop offset="0.325" stop-color="#ffd800"/>
      <stop offset="1" stop-color="#847000"/>
    </radialGradient>
  </defs>
  <g id="グループ_3002" data-name="グループ 3002" transform="translate(398 -3828)">
    <path id="合体_29" data-name="合体 29" d="M0,525V167H60V0h90V404H60V525Z" transform="translate(-398 3828)" fill="url(#radial-gradient)"/>
    <path id="パス_1158" data-name="パス 1158" d="M-8.816-55.176c-.532-1.6-1.748-2.356-5.244-3.268a42.888,42.888,0,0,0-7.752-1.52c-.608,0-.684.152-.684.988.076,1.444.076,3.04.076,4.636v6.916c0,17.024-.3,37.392-.684,45.6-.152,2.812-.152,3.572-.152,4.56,0,1.976.988,2.66,3.648,2.66,4.94,0,8.132-1.748,8.132-4.484v-3.42H10.64V2.356c0,2.128,1.292,2.964,4.484,2.964A12.23,12.23,0,0,0,21.2,3.8c1.672-.988,2.128-1.9,2.128-4.636,0-.912-.076-3.116-.152-5.32-.152-3.648-.152-3.648-.228-5.776-.076-2.584-.152-4.1-.228-7.6-.3-8.436-.456-19-.456-28.044,0-.3,0-1.064.076-2.2,2.508-1.368,3.116-1.824,3.116-2.736,0-1.14-.912-2.128-3.42-4.1-3.268-2.432-6.232-3.952-7.676-3.952-1.064,0-1.9.608-5.472,5.4ZM10.716-30.02H-11.7c.076-14.516.076-17.328.152-19.38.076-2.508.38-2.964,2.2-3.572H8.74c1.52,0,1.748.38,1.824,2.2Zm0,25.232H-11.476l-.076-5.776C-11.7-23.94-11.7-23.94-11.7-27.74h22.42c.076,5.852.076,7.524.076,9.88ZM31.084,32.3c1.292,0,2.128-.608,2.128-1.6,0-2.508-6.308-8.284-9.12-8.284-.912,0-2.128.76-6.992,7.828H4.18l.152-11.856c1.9-.912,2.584-1.6,2.584-2.584,0-1.292-1.292-1.976-5.016-2.508-2.964-.38-6.688-.76-7.752-.76-.38,0-.456.152-.456.456.152,2.964.228,8.436.228,17.252h-20.6c-1.824,0-5.928-.456-6.232-.456a.508.508,0,0,0-.532.456c0,.228.228.532,1.52,2.356,4.636-.228,6.384-.3,8.284-.3h13.3A100.353,100.353,0,0,1-24.7,60.04c-3.192,4.18-6.688,7.9-9.956,10.108-.38.228-.532.38-.532.608s.152.3.38.3c.684,0,5.4-2.2,8.284-3.876A64.8,64.8,0,0,0-5.548,46.056c-.076,2.128-.228,13.68-.3,16.416H-11.78c-1.444,0-4.256-.076-6.536-.152a.542.542,0,0,0-.608.532c0,.152.076.3,1.444,1.9q2.508-.228,5.016-.228h6.536c0,2.2-.152,6.232-.3,10.412-.076,2.2-.152,4.1-.152,4.864,0,1.6,1.444,2.584,4.028,2.584,4.332,0,7.372-1.976,7.3-4.56-.152-2.812-.3-9.2-.3-13.3H13.3c.988,0,1.52-.38,1.52-.988,0-1.6-4.1-5.852-5.624-5.852-.684,0-1.368.684-3.344,4.788H4.56C4.332,47.728,4.332,47.728,4.18,32.3h.456c1.292,7.144,2.28,11.856,2.888,14.06A48.681,48.681,0,0,0,13,58.824C17.252,65.74,23.712,71.9,26.828,71.9A2.173,2.173,0,0,0,28.576,70.6a10.1,10.1,0,0,1,2.052-3.572,34.9,34.9,0,0,1,5.016-3.8c.684-.38.836-.456.836-.608,0-.3-.228-.38-1.672-1.14A72.791,72.791,0,0,1,12.692,44.308,34.03,34.03,0,0,1,5.7,32.3Zm-57.228,89.832c-2.736,0-6.612-.3-8.816-.532-.38,0-.608.152-.608.456,0,.228.076.38,1.824,2.888,2.66-.228,6.308-.38,8.056-.38H33.44c1.292,0,2.28-.684,2.28-1.6,0-2.812-6.916-9.652-9.652-9.652-1.292,0-2.66,1.672-7.448,8.816ZM.988,191.748A47.5,47.5,0,0,0,3.5,186.96c1.976-.608,2.66-1.14,2.66-2.052,0-1.444-2.888-2.584-9.728-3.952a12.568,12.568,0,0,0-2.66-.456c-.3,0-.456.076-.532.532-.152,1.6-1.672,6.08-3.42,10.716H-27.816c-1.14,0-3.572-.076-5.4-.228a.542.542,0,0,0-.608.532c0,.152.076.3,1.672,2.052a48.336,48.336,0,0,1,6.612-.456H-11.1a72.479,72.479,0,0,1-4.788,9.044,2.1,2.1,0,0,0-.684-.076c-.532,0-.684.228-.684.912v1.292c-5.168,7.752-11.248,13.3-18.088,16.568-.532.3-.76.456-.76.76,0,.228.152.38.532.38a16.406,16.406,0,0,0,4.256-1.216,46.324,46.324,0,0,0,13.908-7.6c-.76,14.668-.76,15.58-.76,17.556,0,1.748.912,2.356,3.344,2.356a13.7,13.7,0,0,0,5.168-.912c1.672-.76,1.9-1.216,1.9-4.1h22.8l-.076,1.52c0,2.812.836,3.5,4.18,3.5,3.04,0,5.548-.684,6.688-1.9a4.039,4.039,0,0,0,1.064-3.268c0-.76-.076-1.9-.152-3.42-.38-6.992-.456-9.576-.532-14.212,1.6-1.292,1.824-1.52,1.824-2.28,0-.836-.532-1.52-2.2-2.736-3.268-2.508-6.08-4.028-7.22-4.028s-1.9.684-4.408,4.1H-6.156a7.864,7.864,0,0,0-1.52-.836,69.976,69.976,0,0,0,7.752-11.4H31.844c2.508,0,3.268-.3,3.268-1.52,0-1.824-6.156-7.144-8.36-7.144-.684,0-1.292.456-2.2,1.52-1.292,1.672-1.292,1.672-2.052,2.66-1.292,1.6-1.292,1.6-2.128,2.584Zm14.136,35.036H-7.752V210.976c0-1.976.532-3.192,1.368-3.192H13.984c1.064,0,1.14.228,1.14,2.052Zm1.368-52.668v-5.092c1.6-.912,2.052-1.292,2.052-2.052,0-.988-1.064-1.6-3.876-1.976a69.181,69.181,0,0,0-8.056-.836c-.456,0-.608.228-.608.836v.912c.076,1.672.152,3.572.152,6v2.2H-7.9v-5.168c1.368-.76,1.9-1.292,1.9-1.976s-.912-1.216-2.888-1.672a54.3,54.3,0,0,0-8.512-.988c-.3,0-.456.152-.456.76a16.208,16.208,0,0,1,.076,1.672v7.372h-10.26c-1.368,0-4.028-.152-6.156-.3a.542.542,0,0,0-.608.532c0,.152.076.3,1.292,2.128A79.844,79.844,0,0,1-25,176.016h7.22v4.712c0,2.432,0,2.66.38,3.116.456.532,1.292.76,2.888.76a11.008,11.008,0,0,0,5.092-1.064c1.368-.76,1.6-1.292,1.6-3.04v-.684c-.076-1.976-.076-2.052-.076-3.8H6.156l-.076,3.192c0,4.712.228,5.016,3.344,5.016a13.641,13.641,0,0,0,5.852-1.064c1.064-.532,1.368-1.14,1.368-2.964,0-.608-.076-2.052-.152-4.18h16.72c1.6,0,2.356-.532,2.356-1.52,0-.76-.836-1.9-2.2-3.04-2.736-2.28-4.56-3.42-5.548-3.42-.912,0-1.824.76-3.42,2.888-.684.912-1.064,1.368-2.584,3.192Zm-3.04,88.236c-.684,0-.988.152-.988.456,0,.228.228.38.836.76a29.289,29.289,0,0,1,4.712,3.268c3.192,2.812,4.94,5.4,4.94,7.3,0,1.824-2.812,4.636-7.068,7.144-.608.38-.76.532-.76.76a.426.426,0,0,0,.456.38,4.375,4.375,0,0,0,.76-.152,21.325,21.325,0,0,1,5.244-.76,6.5,6.5,0,0,1,3.648.836c1.52.836,1.52.836,1.748.988a2.706,2.706,0,0,0,1.824.532c2.736,0,4.56-2.28,4.56-5.548a14.163,14.163,0,0,0-4.1-9.424A22.445,22.445,0,0,0,13.452,262.352Zm-19.532,32c0-.3,0-.38-.684-1.52a9.108,9.108,0,0,1-1.368-4.712,26.975,26.975,0,0,1,1.748-8.436,20.576,20.576,0,0,0,.836-2.812c0-.228-.076-.3-.228-.3-.228,0-.456.228-1.368,1.368-4.332,6.156-5.4,7.22-6.992,7.22-2.736,0-6.384-3.8-11.172-11.476A73.751,73.751,0,0,1-31.16,261.9c-.532-1.444-.608-1.748-.988-1.748q-.456,0-.456,1.6a53.79,53.79,0,0,0,.988,8.664,42,42,0,0,0,6.764,16.644c4.56,6.764,9.728,10.488,14.516,10.488C-8.132,297.54-6.08,295.944-6.08,294.348Z" transform="translate(-293 3907)"/>
    <g id="グループ_2966" data-name="グループ 2966" transform="translate(-2379 49)">
      <path id="パス_1159" data-name="パス 1159" d="M17.52-27.48a1.358,1.358,0,0,0,1.36-1.48,2.94,2.94,0,0,0-1.8-2.32,9.709,9.709,0,0,0-3.84-1.04c-.36,0-.48.04-.48.16s.04.16.44.36a7.1,7.1,0,0,1,2.88,3.08C16.48-27.8,16.8-27.48,17.52-27.48Zm-2.28,1.04a3.629,3.629,0,0,0-2.16-2.88,7.135,7.135,0,0,0-2.76-.84c-.16,0-.24.08-.24.16s.08.12.2.2a5.945,5.945,0,0,1,2.12,3.04c.2.92.2.92.4,1.2a1.6,1.6,0,0,0,1.12.48A1.27,1.27,0,0,0,15.24-26.44Zm-5,4.96c1.28-.44,1.8-.8,1.8-1.48,0-.64-.6-1.4-1.84-2.4a8.033,8.033,0,0,0-3.28-1.72c-.36,0-.6.12-1.08.64l-.88.88c-.12.08-.28.16-1.2.28-5.2.64-11.2,1.2-13.48,1.2a2.324,2.324,0,0,1-1.68-.64c-.2-.16-.24-.16-.32-.16-.2,0-.4.48-.4,1a3.883,3.883,0,0,0,1.04,2.16c.68.92,1.12,1.2,1.72,1.2a10.262,10.262,0,0,0,2.68-.56A70.672,70.672,0,0,1,5.08-22.92a33.063,33.063,0,0,1-7,16.48A28.141,28.141,0,0,1-6.28-2.48,28.891,28.891,0,0,1-9.16-.64c-.92.44-3,1.24-3.12,1.28-.4.12-.48.24-.48.4s.12.2.32.2a9.495,9.495,0,0,0,2-.44A32.222,32.222,0,0,0-5.2-1,40.283,40.283,0,0,0-1.64-2.96C4.4-6.8,8.04-12.48,10.24-21.48ZM-8.96,8.28c0,.08.12.2.32.36a7.765,7.765,0,0,0,.68.4,14.8,14.8,0,0,0,3.72,1.52,17.37,17.37,0,0,0,4.64.68,26.692,26.692,0,0,0,6.52-.92c1.24-.36,1.68-.8,1.68-1.6,0-.92-.76-1.68-2.16-2.2A11.943,11.943,0,0,0,3.72,5.8a2.83,2.83,0,0,0-1.2.36A22.1,22.1,0,0,1-1.32,7.52a25.471,25.471,0,0,1-5.52.8,5.249,5.249,0,0,1-1.24-.16,5.017,5.017,0,0,0-.6-.08C-8.84,8.08-8.96,8.16-8.96,8.28Zm-1.32,8.12a1.253,1.253,0,0,0-.8,1.32c0,.56.28.92,1.04,1.56a6.619,6.619,0,0,0,3.32,1.4,1.279,1.279,0,0,0,.76-.28,5.858,5.858,0,0,1,2.24-1c1.24-.4,3-.72,4.56-1.08A16.15,16.15,0,0,1,2.88,18c.64-.04,1.6-.08,1.84-.08a25.87,25.87,0,0,1-2.44,8,21.925,21.925,0,0,1-6.76,8.44A18.247,18.247,0,0,1-9.96,37.4c-.2.08-.24.08-.24.16s.08.12.2.12a15.6,15.6,0,0,0,3-.64c5.96-1.88,9.96-4.36,12.4-7.64a34.329,34.329,0,0,0,4.48-9.36,6.15,6.15,0,0,1,.32-.96c.84-.2,1.16-.44,1.16-1,0-.68-.72-1.56-2.48-2.76A5.665,5.665,0,0,0,6.2,14.08c-.2,0-.24.04-.84.56-.4.36-1.52.72-3.56,1.12a81.474,81.474,0,0,1-9.48,1.36A3.675,3.675,0,0,1-10.28,16.4Zm1.8,30.68a18.453,18.453,0,0,0-3.12.28c-.6.12-1.04.24-1.04.36,0,.08.08.16.28.24A12.975,12.975,0,0,1-7.2,52.48c.36.72.36.8.64.88a4,4,0,0,0,1.2.24,2.777,2.777,0,0,0,2.84-2.84C-2.52,48.6-4.96,47.08-8.48,47.08ZM-4.96,68A74.031,74.031,0,0,0,5.08,61.4a41.894,41.894,0,0,0,6.24-5.8,36.583,36.583,0,0,0,3.64-4.96.8.8,0,0,0,.12-.32.224.224,0,0,0-.24-.2c-.12,0-.2.08-.88.68a41.492,41.492,0,0,1-3.64,3.04,86.037,86.037,0,0,1-13.44,7.6,32.966,32.966,0,0,1-4.92,1.48c-1.64,0-2.48-.52-2.84-1.8-.72.2-1.4,1.48-1.4,2.56a4.094,4.094,0,0,0,1.36,2.44,13.894,13.894,0,0,0,2.16,2.04,3.276,3.276,0,0,0,1.88.76,2.7,2.7,0,0,0,1.56-.68ZM16.48,80.36a1.416,1.416,0,0,0,1.36-1.52c0-1.2-1.24-2.4-3.48-3.2a5.93,5.93,0,0,0-2.2-.52c-.16,0-.28.08-.28.16,0,.12.08.2.36.36A6.829,6.829,0,0,1,14.92,79C15.32,80.04,15.68,80.36,16.48,80.36Zm-2.96.08a3.726,3.726,0,0,0-2-2.88,6.965,6.965,0,0,0-2.76-1.08c-.12,0-.2.04-.2.16a.289.289,0,0,0,.16.24,6.092,6.092,0,0,1,1.92,3.24c.16.96.16.96.36,1.28a1.391,1.391,0,0,0,1.2.56A1.364,1.364,0,0,0,13.52,80.44Zm-9.6,2.28a10.013,10.013,0,0,0,1.76.16c1.44,0,2.2-.4,2.2-1.2s-.4-1.32-1.44-1.8a6.945,6.945,0,0,0-2.88-1.04c-.36,0-.52.04-1.48.48A33.951,33.951,0,0,1-2.76,80.6a27.317,27.317,0,0,1-4.6.6,12.468,12.468,0,0,1-1.6-.2c-.24-.04-.6-.16-.68-.16a.106.106,0,0,0-.12.12,1.847,1.847,0,0,0,.32.68c.2.32.44.64.68.96.84,1.04,1.48,1.44,2.08,1.44a3.9,3.9,0,0,0,1.04-.2,30.441,30.441,0,0,1,3.84-.72,43.664,43.664,0,0,1,4.88-.44ZM-.6,90.4c2.04-.12,4-.2,5.88-.2a22.141,22.141,0,0,1,5.16.48,25.878,25.878,0,0,0,2.6.44,1.74,1.74,0,0,0,1.48-1.52,2.249,2.249,0,0,0-1.32-1.72,15.6,15.6,0,0,0-4.28-1.72,2.6,2.6,0,0,0-.72.16c-.48.2-.64.24-1,.4a11.583,11.583,0,0,1-3.24.8C.12,88.08-3.48,88.6-6.36,89c-3.12.4-5.32.68-5.92.68a7.08,7.08,0,0,1-2.32-.4,1.91,1.91,0,0,0-.48-.16.106.106,0,0,0-.12.12,4.393,4.393,0,0,0,1.36,2.52,4.171,4.171,0,0,0,2.32,1.48,1.977,1.977,0,0,0,.76-.24,12.793,12.793,0,0,1,2.48-1.04c1.08-.28,2.36-.6,3.52-.84,1.04-.2,1.92-.36,2.4-.4.6.84.72,1.28.72,3a18.922,18.922,0,0,1-2.84,10.16,13.587,13.587,0,0,1-3.16,3.28,15.891,15.891,0,0,1-3.16,1.8c-.56.2-.72.28-.72.4s.16.16.28.16a10.543,10.543,0,0,0,2-.4,38.645,38.645,0,0,0,3.72-1.4,13.858,13.858,0,0,0,6.4-5.64A19.731,19.731,0,0,0,3.2,94.32c.6-.28.8-.52.8-.88a1.165,1.165,0,0,0-.36-.64C3.08,92.24,2.88,92.08-.6,90.4Zm.32,38.8v.24c0,2.92-.24,7.56-.44,9.16a5.1,5.1,0,0,1-.16.72,7.633,7.633,0,0,0-.36,1.56,9.414,9.414,0,0,0,.64,2.68c.44,1.12,1.16,1.76,1.92,1.76a1.793,1.793,0,0,0,1.52-.96,5.434,5.434,0,0,0,.24-2.08c0-.6-.04-1.28-.08-2.16-.04-1.68-.08-2.32-.08-4.56,0-1.64-.04-3.36-.04-4a11.241,11.241,0,0,1,.04-1.16c.04-.48.04-.68.04-.88a2.345,2.345,0,0,0-.76-1.68,5.833,5.833,0,0,0-.6-.48c.2-.24.52-.56.84-.92.64-.72.96-1.08,1.32-1.52,1.08-1.12,1.08-1.12,1.56-1.36.52-.28.84-.64.84-1.04,0-.48-.44-.96-1.68-2-1.08-.84-1.56-1.08-2.24-1.08a6.076,6.076,0,0,0-2,.56c-.48.2-.84.48-.84.64,0,.08.04.12.12.16.68.28.96.52.96.76a6.061,6.061,0,0,1-.84,2.04,28.063,28.063,0,0,1-2.76,4.32,32.757,32.757,0,0,1-4.32,4.64,12.754,12.754,0,0,1-3,2.12c-.56.28-.68.36-.68.52,0,.12.12.2.28.2a13.175,13.175,0,0,0,1.92-.52,23.705,23.705,0,0,0,7.96-5Zm-8.2,25.88a18.452,18.452,0,0,0-3.12.28c-.6.12-1.04.24-1.04.36,0,.08.08.16.28.24a12.975,12.975,0,0,1,5.16,4.52c.36.72.36.8.64.88a4,4,0,0,0,1.2.24,2.777,2.777,0,0,0,2.84-2.84C-2.52,156.6-4.96,155.08-8.48,155.08ZM-4.96,176a74.029,74.029,0,0,0,10.04-6.6,41.894,41.894,0,0,0,6.24-5.8,36.583,36.583,0,0,0,3.64-4.96.8.8,0,0,0,.12-.32.224.224,0,0,0-.24-.2c-.12,0-.2.08-.88.68a41.492,41.492,0,0,1-3.64,3.04,86.038,86.038,0,0,1-13.44,7.6,32.966,32.966,0,0,1-4.92,1.48c-1.64,0-2.48-.52-2.84-1.8-.72.2-1.4,1.48-1.4,2.56a4.094,4.094,0,0,0,1.36,2.44,13.894,13.894,0,0,0,2.16,2.04,3.276,3.276,0,0,0,1.88.76,2.7,2.7,0,0,0,1.56-.68ZM9.2,197.24c1.16,0,2.08-.64,2.08-1.32a4.315,4.315,0,0,0-1.68-2.44c-1.92-1.6-2-1.6-2.44-1.6-.36,0-.68.2-2.6,1.44a21.33,21.33,0,0,1-4.12.44,2.87,2.87,0,0,1-.52-.04c.44-.68.8-1.32.96-1.64.32-.6.56-1.08.76-1.4.92-.44,1.12-.64,1.12-1.04,0-.68-1.24-1.8-2.92-2.76a3.914,3.914,0,0,0-2.24-.64,7.787,7.787,0,0,0-2,.28c-.32.08-.52.16-.52.28s.04.16.24.28c1,.72,1.32,1.12,1.32,1.88,0,.88-1.8,4.64-3.4,6.92a34.881,34.881,0,0,1-5.44,6.32c-.48.4-.92.76-1.24,1a6.012,6.012,0,0,1-.68.44c-.28.12-.28.2-.28.28a.172.172,0,0,0,.16.16,12.5,12.5,0,0,0,3.68-1.04c3.52-1.4,6.44-3.88,9.56-7.96.32.44.36.52.72.52.2,0,.76-.04,1.28-.08.76-.04,1.32-.04,1.76-.04,1,0,1.2.08,1.2.28a16.33,16.33,0,0,1-1.08,2.76,42.173,42.173,0,0,1-7.76,10.76c-3.28,3.24-7.56,5.96-10.84,6.88-1.08.32-1.08.36-1.08.52s.12.2.28.2a28.177,28.177,0,0,0,5.56-1.12,27.554,27.554,0,0,0,13.28-8.6C5.28,203.8,8.32,199.44,9.2,197.24Zm7.64-7.6a1.477,1.477,0,0,0,1.44-1.6,2.414,2.414,0,0,0-1.4-2.04,9.1,9.1,0,0,0-4.4-1.32c-.56,0-.76.04-.76.2,0,.12.12.2.44.36a7.136,7.136,0,0,1,3.16,3.08C15.84,189.36,16.16,189.64,16.84,189.64Zm-2.24.76a3.877,3.877,0,0,0-2.24-3,7.546,7.546,0,0,0-2.96-.92c-.12,0-.24.04-.24.16,0,.08.08.16.2.24a6.142,6.142,0,0,1,2.2,3.24c.24,1,.24,1,.52,1.28a1.47,1.47,0,0,0,1.08.52A1.387,1.387,0,0,0,14.6,190.4Z" transform="translate(2011 3993)"/>
      <path id="パス_1160" data-name="パス 1160" d="M-13.392-11.556c-.5,0-1.548-.036-2.34-.108a.257.257,0,0,0-.288.252c0,.072.036.144.684.936a23.9,23.9,0,0,1,3.2-.18h6.084a57.013,57.013,0,0,1-1.8,8.136c-2.124-.036-3.816-.072-5.292-.144-.252,0-1.08-.072-1.26-.072-.144,0-.18.036-.18.108a1.336,1.336,0,0,0,.072.324c.468,1.656.792,2.736,1.368,4.392a1.123,1.123,0,0,0,1.116.756,6.127,6.127,0,0,0,2.088-.468A80.105,80.105,0,0,0,1.3-.072c.72-.252,2.448-.9,5.256-1.944.4.792.684,1.4.864,1.872.972,2.556,1.44,3.024,2.916,3.024A3.044,3.044,0,0,0,13.464-.4a4.727,4.727,0,0,0-.936-2.844C11.412-4.716,8.784-6.192,5.8-7.02c-1.944-.5-3.456-.864-3.672-.864-.144,0-.216.072-.216.18,0,.072.036.18.252.324A20.13,20.13,0,0,1,5.868-3.2c-2.988.288-6.12.5-10.728.684C-2.592-5.688-1.944-6.66-.5-8.892c.972-.216,1.26-.432,1.26-.9,0-.324-.252-.54-.936-.864H14.4c.684,0,1.08-.288,1.08-.72,0-.468-.54-1.152-1.4-1.764a8.287,8.287,0,0,0-2.808-1.512c-.5,0-1.332.864-2.988,3.1Zm7.128-6.156a14.582,14.582,0,0,1-1.62-.108.257.257,0,0,0-.288.252c0,.072.036.144.648.864a22.02,22.02,0,0,1,2.664-.144H5.184q.972,0,.972-.54c0-.756-2.448-2.916-3.312-2.916-.4,0-.828.54-2.088,2.592Zm24.012-2.016q0-.162-.324-.216c-8.748-1.548-13.68-3.96-16.056-7.92.648-.252.936-.5.936-.936,0-.576-.54-.936-1.764-1.224a46.67,46.67,0,0,0-4.9-1.08c-2.232,6.948-7.452,13.932-12.492,16.668-.576.288-.576.288-.576.432a.17.17,0,0,0,.18.18A23.272,23.272,0,0,0-12.06-15.7,31.432,31.432,0,0,0,.792-27.54a15.453,15.453,0,0,0,6.12,9.792c2.016,1.584,5.184,2.988,6.7,2.988a.562.562,0,0,0,.612-.432A9.288,9.288,0,0,1,17.46-19.4C17.676-19.548,17.748-19.62,17.748-19.728ZM7.776,39.82c-.036-6.336-.036-7.92-.036-10.4V23.908h7.308a.77.77,0,0,0,.828-.648c0-.54-.576-1.368-1.692-2.556-.972-.936-1.4-1.3-1.908-1.3-.4,0-.684.288-1.116.936-.5.792-1.008,1.584-1.692,2.628H7.74c.036-6.084.036-7.416.108-9.4.612-.324,1.188-.792,1.188-1.26,0-.576-.54-.828-2.2-1.116-.9-.144-3.06-.4-3.492-.4-.252,0-.288.072-.288.36.072,1.98.108,6.084.18,11.808H-1.044c-.432,0-1.368-.036-2.088-.108a.257.257,0,0,0-.288.252c0,.072.036.144.648.9.828-.072,1.728-.108,2.556-.108H3.24c0,1.548.036,3.024,0,4.572,0,3.816-.036,7.74-.108,11.34h-6.8c-.36,0-1.152-.036-1.764-.072A.257.257,0,0,0-5.724,40c0,.072.036.144.684.864.828-.072,1.728-.108,2.556-.108H15.984c.612,0,.936-.252.936-.648a4.909,4.909,0,0,0-1.476-2.556c-.972-1.044-1.476-1.476-2.052-1.476-.324,0-.54.144-.864.54s-1.512,1.98-2.376,3.2ZM-7.488,25.528c.036-.144.108-.216.288-.288.324-.108.4-.216.4-.432,0-.144-.144-.288-.432-.468,1.224-1.368,3.312-3.816,4.392-5.292.936-.288,1.368-.54,1.368-1.044,0-.936-2.376-3.1-3.276-3.1-.432,0-.72.288-1.872,2.088h-.72c0-.792.036-1.98.036-2.412,0-.648.036-1.3.072-1.944.648-.4,1.116-.792,1.116-1.116,0-.432-.36-.684-1.08-.828-1.3-.252-3.636-.648-4.1-.648-.288,0-.324.036-.324.36,0,.36.072,2.376.072,4.14V17h-3.312a11.3,11.3,0,0,1-1.4-.108.257.257,0,0,0-.288.252c0,.072.036.144.5.828,1.152-.108,2.3-.144,3.456-.144h5.364a37.739,37.739,0,0,1-3.1,5.544A5.273,5.273,0,0,0-11.52,22.9c-.108,0-.144.072-.144.252l.036,1.8a33.968,33.968,0,0,1-2.16,3.276,40.257,40.257,0,0,1-3.168,3.492c-.324.288-.36.36-.36.432a.17.17,0,0,0,.18.18,2.971,2.971,0,0,0,.756-.36,29.382,29.382,0,0,0,4.86-3.528c0,1.548-.036,3.492-.072,5.364-.036,2.52-.108,4.572-.18,5.868-.036.792-.108,1.8-.108,1.98,0,.9.468,1.26,1.548,1.26a4.6,4.6,0,0,0,2.448-.792,1.481,1.481,0,0,0,.756-1.476c0-.36-.144-4.176-.144-5.04-.036-3.06-.108-6.084-.18-9.144A5.474,5.474,0,0,1-5.508,29.92,4.293,4.293,0,0,0-5.184,31.4a1.749,1.749,0,0,0,1.512.756A2.535,2.535,0,0,0-1.152,29.6a3.46,3.46,0,0,0-2.7-3.024,12.921,12.921,0,0,0-3.636-.612Z" transform="translate(2011 4248)"/>
    </g>
  </g>
</svg>
