<svg xmlns="http://www.w3.org/2000/svg" width="112.666" height="120" viewBox="0 0 112.666 120">
  <g id="グループ_165" data-name="グループ 165" transform="translate(50.31)">
    <g id="グループ_123" data-name="グループ 123" transform="translate(-34.272)">
      <path id="パス_159" data-name="パス 159" d="M6.746,66.215V27.265L40.478,7.79,74.21,27.265v38.95L40.478,85.691ZM40.478,0,37.105,1.948,3.373,21.423,0,23.37V70.11l3.373,1.947L37.105,91.533l3.373,1.947,3.373-1.947L77.583,72.058l3.373-1.947V23.37l-3.373-1.947L43.851,1.948Z" fill="#fff"/>
      <path id="パス_160" data-name="パス 160" d="M141.711,199.531l-7.4,12.818,1.4,2.432,22.2-12.818-1.4-2.432Z" transform="translate(-91.495 -135.925)" fill="#fff"/>
      <path id="パス_161" data-name="パス 161" d="M61.8,61.126l7.4-12.818-1.4-2.432L45.6,58.694,47,61.126Z" transform="translate(-31.062 -31.252)" fill="#fff"/>
      <path id="パス_162" data-name="パス 162" d="M45.239,117.207l1.168-2.024,5.064-8.77H33.861v25.636H36.67l7.4-12.818Z" transform="translate(-23.067 -72.491)" fill="#fff"/>
      <path id="パス_163" data-name="パス 163" d="M171.089,121.255l-1.168,2.024-5.064,8.77h17.61V106.413h-2.808l-7.4,12.818Z" transform="translate(-112.304 -72.491)" fill="#fff"/>
      <path id="パス_164" data-name="パス 164" d="M66.476,61.125l-1.169,2.024-1.168,2.024-7.4,12.818L55.57,80.015,54.4,82.039l-5.063,8.77L48.17,92.833,47,94.857l-1.4,2.432,22.2,12.818,1.4-2.432,1.169-2.024,1.168-2.024,5.064-8.77,1.168-2.024,1.169-2.024,7.4-12.818,1.168-2.024,1.169-2.024,5.063-8.77,1.168-2.024,1.168-2.024,1.4-2.432-22.2-12.818-1.4,2.432-1.169,2.024-1.169,2.024Zm13.89,21.962a2.7,2.7,0,1,1-.988-3.686,2.7,2.7,0,0,1,.988,3.686" transform="translate(-31.062 -31.251)" fill="#fff"/>
    </g>
    <g id="グループ_124" data-name="グループ 124" transform="translate(-50.31 107.188)">
      <path id="パス_165" data-name="パス 165" d="M17.338,304.258a.066.066,0,0,0-.1.033.261.261,0,0,0-.033.116v9.342c0,.055.011.089.033.1l.1.05a2.353,2.353,0,0,0,.384.059q.267.025.542.059a3.77,3.77,0,0,1,.5.092q.225.058.258.175c.033.1-.011.15-.133.15H14.836c-.123,0-.162-.05-.117-.15a.4.4,0,0,1,.275-.184,3.054,3.054,0,0,1,.5-.1q.275-.034.534-.05a1.94,1.94,0,0,0,.375-.05.172.172,0,0,0,.134-.15,3.433,3.433,0,0,0,.025-.526c-.006-.172-.008-.347-.008-.525l.05-2.435q.033-1.835.042-3.662t.008-3.662a.16.16,0,0,0-.05-.116.594.594,0,0,0-.375-.117c-.15,0-.309,0-.476.009a2.772,2.772,0,0,1-.484-.025.55.55,0,0,1-.367-.2c-.023-.055-.011-.094.033-.116v-.017a2.265,2.265,0,0,1,.35-.034c.2-.011.442-.017.726-.017h.925q.5,0,.959.008t.809.009h.5c.055,0,.089.009.1.025s.027.047.05.092q.767,1.751,1.41,3.536t1.343,3.57a5.82,5.82,0,0,1,.267.926,3.124,3.124,0,0,0,.334.909,2.727,2.727,0,0,1,.225.459.658.658,0,0,1-.008.492,7.045,7.045,0,0,0-.317.826q-.133.425-.283.843a2.553,2.553,0,0,1-.092.242.481.481,0,0,1-.092.142.269.269,0,0,1-.15.067,1.841,1.841,0,0,1-.283.017H21.6a.259.259,0,0,1-.108-.017.175.175,0,0,1-.108-.1,1.389,1.389,0,0,0-.058-.133q-.334-.717-.609-1.451t-.559-1.485q-.484-1.25-.959-2.5t-.96-2.5l-.467-1.251c-.044-.123-.089-.248-.133-.375a2.99,2.99,0,0,0-.15-.359c-.044-.067-.095-.078-.15-.033m6.273,6.255a.624.624,0,0,1-.15.25.524.524,0,0,1-.2.134.169.169,0,0,1-.158-.009c-.039-.028-.053-.08-.041-.158a.228.228,0,0,1,.033-.1.417.417,0,0,0,.05-.1.908.908,0,0,0,.05-.175.908.908,0,0,1,.05-.175q.067-.217.142-.426c.05-.139.1-.281.158-.426l.275-.759.484-1.334q.275-.76.583-1.593t.576-1.543l.442-1.176a3.3,3.3,0,0,1,.208-.5.2.2,0,0,1,.167-.1h3.953c.078,0,.114.036.108.108a.15.15,0,0,1-.092.142.932.932,0,0,1-.325.067c-.15.011-.3.025-.458.042a1.968,1.968,0,0,0-.409.083q-.175.058-.175.175v10.877a.2.2,0,0,0,.184.184c.067,0,.167,0,.3.008s.272.017.417.033a1.762,1.762,0,0,1,.384.084.34.34,0,0,1,.217.175c.022.055.022.092,0,.108a.2.2,0,0,1-.116.025H24.845a.2.2,0,0,1-.117-.025c-.022-.017-.022-.053,0-.108a.333.333,0,0,1,.275-.2,3.173,3.173,0,0,1,.476-.067q.25-.017.459-.025t.242-.075a.268.268,0,0,0,.033-.116v-9.575c0-.089-.039-.128-.116-.118-.033,0-.07.033-.108.1s-.078.142-.117.225-.072.164-.1.242-.047.133-.058.166q-.551,1.418-1.051,2.828t-1.051,2.828" transform="translate(-14.701 -301.972)" fill="#fff"/>
      <path id="パス_166" data-name="パス 166" d="M50.6,306.665a4.041,4.041,0,0,1,.517-2.019,5.535,5.535,0,0,1,1.334-1.585A6.325,6.325,0,0,1,54.3,302.02a5.907,5.907,0,0,1,2.043-.376,5.277,5.277,0,0,1,3.862,1.568,5.886,5.886,0,0,1,1.152,1.668,7.782,7.782,0,0,1,.617,1.985,7.551,7.551,0,0,1,.058,2.093,7.173,7.173,0,0,1-.517,2.01,6.069,6.069,0,0,1-1.1,1.727,5.263,5.263,0,0,1-1.7,1.243,4.784,4.784,0,0,1-1.193.4,6.6,6.6,0,0,1-1.243.117,5.694,5.694,0,0,1-2.019-.384,6.279,6.279,0,0,1-1.827-1.06,5.586,5.586,0,0,1-1.318-1.593,4.032,4.032,0,0,1-.509-1.985Zm8.675-.45a5.631,5.631,0,0,0-.183-1.376,4.928,4.928,0,0,0-.551-1.335,3.328,3.328,0,0,0-.934-1.009,2.469,2.469,0,0,0-2.527-.1,2.671,2.671,0,0,0-.826.792,4.112,4.112,0,0,0-.525,1.126,10.1,10.1,0,0,0-.3,1.293,10.48,10.48,0,0,0-.134,1.3q-.024.642-.025,1.143,0,.533.033,1.192a11.952,11.952,0,0,0,.142,1.326,9.035,9.035,0,0,0,.3,1.276,3.824,3.824,0,0,0,.508,1.059,2.9,2.9,0,0,0,.86.818,2.449,2.449,0,0,0,2.486-.117,3.427,3.427,0,0,0,.933-1.018,4.889,4.889,0,0,0,.559-1.335,5.528,5.528,0,0,0,.183-1.368Z" transform="translate(-32.496 -301.644)" fill="#fff"/>
      <path id="パス_167" data-name="パス 167" d="M77.138,302.89a.711.711,0,0,0-.484-.184,1.446,1.446,0,0,1-.534-.117.178.178,0,0,1-.108-.15c-.006-.067.036-.1.125-.1h5.355a.089.089,0,0,1,.1.1.116.116,0,0,1-.1.133,2.135,2.135,0,0,1-.709.117,3.127,3.127,0,0,0-.725.083.2.2,0,0,0-.15.134.62.62,0,0,0,.083.375,2.672,2.672,0,0,1,.15.392l1.518,4.321q.517,1.485.9,2.919c.011.056.034.156.067.3s.069.292.108.442.072.286.1.409a.851.851,0,0,0,.075.234.4.4,0,0,1,.059.075.371.371,0,0,0,.058.075.777.777,0,0,1,.108.45,2.819,2.819,0,0,1-.075.55,4.123,4.123,0,0,1-.175.559q-.109.275-.192.442a.926.926,0,0,1-.05.092c-.011.017-.045.025-.1.025h-1.1c-.055,0-.089-.009-.1-.025a.828.828,0,0,1-.05-.092Zm6.623,8.374a.673.673,0,0,1-.134.225.326.326,0,0,1-.15.108.08.08,0,0,1-.1-.05.349.349,0,0,1,0-.217q.1-.417.217-.817t.251-.818q.334-1.1.651-2.2t.667-2.2l.175-.526q.108-.325.217-.668t.184-.659a2.317,2.317,0,0,0,.075-.5c0-.067-.014-.108-.042-.125a.408.408,0,0,0-.125-.042,4.389,4.389,0,0,0-.709-.075,2.247,2.247,0,0,1-.692-.125q-.116-.033-.116-.133c0-.067.044-.1.134-.1H87.83c.078,0,.114.036.108.108a.148.148,0,0,1-.108.142,1.237,1.237,0,0,1-.283.059l-.4.05a2.24,2.24,0,0,0-.367.075c-.111.033-.179.083-.2.15Z" transform="translate(-45.092 -301.989)" fill="#fff"/>
      <path id="パス_168" data-name="パス 168" d="M108.882,313.785a.14.14,0,0,0,.059.133,1.15,1.15,0,0,0,.142.067,2.581,2.581,0,0,0,.4.017q.334,0,.726-.017l.759-.033q.367-.017.5-.017l1.284-.034a.157.157,0,0,0,.166-.133l.668-2.419q.033-.133.258-.125t.326.008a.148.148,0,0,1,.166.167l.117,2.886a.148.148,0,0,1-.167.167l-9.408-.117c-.078,0-.123-.028-.134-.083-.033-.111.025-.184.175-.217a3.247,3.247,0,0,1,.509-.067q.284-.017.534-.05c.166-.022.25-.089.25-.2V302.825a.165.165,0,0,0-.167-.184,3.572,3.572,0,0,0-.617-.05,1.371,1.371,0,0,1-.584-.117.124.124,0,0,1-.075-.142c.005-.072.041-.108.108-.108l8.958-.117a.148.148,0,0,1,.167.167v2.786a.148.148,0,0,1-.167.167c-.056,0-.12,0-.192.009s-.139.008-.2.008a.333.333,0,0,1-.167-.042.184.184,0,0,1-.092-.142c-.023-.067-.061-.219-.117-.458s-.12-.49-.192-.751-.139-.5-.2-.717a1.521,1.521,0,0,0-.125-.359c-.033-.033-.075-.078-.125-.134a.215.215,0,0,0-.158-.083h-3.22a.147.147,0,0,0-.167.166Zm.517-5.455a.181.181,0,0,1-.134-.05.133.133,0,0,1-.041-.117.192.192,0,0,1,.058-.116.232.232,0,0,1,.167-.05h1.769c.077,0,.133-.05.166-.151a1.817,1.817,0,0,0,.075-.375c.017-.15.028-.314.033-.492a2.209,2.209,0,0,1,.067-.492,1.217,1.217,0,0,1,.166-.384.411.411,0,0,1,.326-.175.251.251,0,0,1,.125.025c.027.017.041.059.041.125v4.071c0,.067-.014.108-.041.125a.251.251,0,0,1-.125.025.416.416,0,0,1-.35-.217,1.437,1.437,0,0,1-.167-.476,3.08,3.08,0,0,1-.05-.55v-.426a1.284,1.284,0,0,0-.017-.192.119.119,0,0,0-.134-.108Z" transform="translate(-59.331 -301.874)" fill="#fff"/>
      <path id="パス_169" data-name="パス 169" d="M134.479,314.451a.235.235,0,0,1-.217-.108c-.045-.073.028-.142.217-.208a.864.864,0,0,1,.292-.034,1.225,1.225,0,0,0,.325-.033,3.872,3.872,0,0,0,.659-.158,2.647,2.647,0,0,0,.609-.292,3.606,3.606,0,0,0,1.109-1.034,5.358,5.358,0,0,0,.667-1.334,7.379,7.379,0,0,0,.333-1.493,12.878,12.878,0,0,0,.092-1.509,10.3,10.3,0,0,0-.217-2.152,4.949,4.949,0,0,0-.734-1.776,3.73,3.73,0,0,0-1.376-1.21,4.628,4.628,0,0,0-2.16-.45.544.544,0,0,0-.225.042c-.061.028-.091.092-.091.192v10.893a1.139,1.139,0,0,0,.017.175.977.977,0,0,1,.008.217.371.371,0,0,1-.059.184.185.185,0,0,1-.166.075l-3.837.017a.258.258,0,0,1-.117-.025c-.033-.017-.033-.052,0-.108a.411.411,0,0,1,.234-.175,1.773,1.773,0,0,1,.367-.083q.2-.025.392-.033c.128-.006.231-.009.309-.009a.162.162,0,0,0,.184-.184V302.941a.165.165,0,0,0-.167-.184c-.067-.011-.158-.023-.275-.033s-.233-.02-.35-.025a3.38,3.38,0,0,1-.342-.033.538.538,0,0,1-.234-.075.147.147,0,0,1-.075-.15c.006-.067.047-.1.125-.1h6.105a6.225,6.225,0,0,1,1.16.108,3.671,3.671,0,0,1,1.092.392,5.435,5.435,0,0,1,2.035,1.835,6.478,6.478,0,0,1,.959,2.427,6.831,6.831,0,0,1-.05,2.6,6.536,6.536,0,0,1-.992,2.361,5.673,5.673,0,0,1-1.868,1.718,5.227,5.227,0,0,1-2.669.667Z" transform="translate(-71.647 -301.989)" fill="#fff"/>
      <path id="パス_170" data-name="パス 170" d="M158.586,306.665a4.046,4.046,0,0,1,.517-2.019,5.544,5.544,0,0,1,1.335-1.585,6.325,6.325,0,0,1,1.843-1.042,5.905,5.905,0,0,1,2.043-.376,5.279,5.279,0,0,1,3.862,1.568,5.873,5.873,0,0,1,1.151,1.668,7.763,7.763,0,0,1,.617,1.985,7.532,7.532,0,0,1,.059,2.093,7.173,7.173,0,0,1-.517,2.01,6.071,6.071,0,0,1-1.1,1.727,5.261,5.261,0,0,1-1.7,1.243,4.787,4.787,0,0,1-1.193.4,6.6,6.6,0,0,1-1.243.117,5.7,5.7,0,0,1-2.019-.384,6.272,6.272,0,0,1-1.827-1.06,5.586,5.586,0,0,1-1.318-1.593,4.027,4.027,0,0,1-.509-1.985Zm8.675-.45a5.609,5.609,0,0,0-.184-1.376,4.912,4.912,0,0,0-.551-1.335,3.326,3.326,0,0,0-.934-1.009,2.469,2.469,0,0,0-2.527-.1,2.671,2.671,0,0,0-.826.792,4.129,4.129,0,0,0-.525,1.126,10.187,10.187,0,0,0-.3,1.293,10.482,10.482,0,0,0-.134,1.3q-.025.642-.025,1.143,0,.533.033,1.192a11.948,11.948,0,0,0,.142,1.326,9.105,9.105,0,0,0,.3,1.276,3.825,3.825,0,0,0,.509,1.059,2.9,2.9,0,0,0,.859.818,2.448,2.448,0,0,0,2.485-.117,3.417,3.417,0,0,0,.934-1.018,4.888,4.888,0,0,0,.559-1.335,5.507,5.507,0,0,0,.184-1.368Z" transform="translate(-86.024 -301.644)" fill="#fff"/>
      <path id="パス_171" data-name="パス 171" d="M187.213,306.665a4.046,4.046,0,0,1,.517-2.019,5.544,5.544,0,0,1,1.335-1.585,6.325,6.325,0,0,1,1.843-1.042,5.905,5.905,0,0,1,2.043-.376,5.279,5.279,0,0,1,3.862,1.568,5.873,5.873,0,0,1,1.151,1.668,7.764,7.764,0,0,1,.617,1.985,7.53,7.53,0,0,1,.059,2.093,7.173,7.173,0,0,1-.517,2.01,6.071,6.071,0,0,1-1.1,1.727,5.262,5.262,0,0,1-1.7,1.243,4.787,4.787,0,0,1-1.193.4,6.6,6.6,0,0,1-1.243.117,5.694,5.694,0,0,1-2.019-.384,6.272,6.272,0,0,1-1.827-1.06,5.586,5.586,0,0,1-1.318-1.593,4.027,4.027,0,0,1-.509-1.985Zm8.675-.45a5.609,5.609,0,0,0-.184-1.376,4.913,4.913,0,0,0-.551-1.335,3.327,3.327,0,0,0-.934-1.009,2.469,2.469,0,0,0-2.527-.1,2.67,2.67,0,0,0-.826.792,4.129,4.129,0,0,0-.525,1.126,10.185,10.185,0,0,0-.3,1.293,10.482,10.482,0,0,0-.134,1.3q-.025.642-.025,1.143,0,.533.033,1.192a11.955,11.955,0,0,0,.142,1.326,9.108,9.108,0,0,0,.3,1.276,3.825,3.825,0,0,0,.509,1.059,2.9,2.9,0,0,0,.859.818,2.448,2.448,0,0,0,2.485-.117,3.417,3.417,0,0,0,.934-1.018,4.888,4.888,0,0,0,.559-1.335,5.507,5.507,0,0,0,.184-1.368Z" transform="translate(-100.215 -301.644)" fill="#fff"/>
      <path id="パス_172" data-name="パス 172" d="M218.714,304.383q-.017.809-.017,1.626-.033,2.6,0,5.2.017.651.008,1.31t.025,1.31a.162.162,0,0,0,.184.184c.078,0,.184,0,.317.009s.267.017.4.033a1.955,1.955,0,0,1,.376.083.343.343,0,0,1,.225.175c.022.056.019.092-.008.108a.21.21,0,0,1-.108.025h-5.422a.209.209,0,0,1-.108-.025c-.028-.017-.031-.052-.008-.108a.45.45,0,0,1,.342-.225,3.588,3.588,0,0,1,.492-.05c.166-.006.317-.017.45-.033s.2-.075.2-.176V302.941a.165.165,0,0,0-.166-.184c-.067-.011-.159-.023-.275-.033s-.233-.02-.35-.025a2.807,2.807,0,0,1-.325-.033.678.678,0,0,1-.233-.075.17.17,0,0,1-.092-.158c.006-.061.047-.092.125-.092H221.4a4.079,4.079,0,0,1,1.268.2,3.584,3.584,0,0,1,1.1.575,2.943,2.943,0,0,1,.784.925,2.572,2.572,0,0,1,.3,1.251,1.966,1.966,0,0,1-.45,1.285,4.691,4.691,0,0,1-.909.842,5.659,5.659,0,0,1-1.076.609l-.108.05-.15.067a1.183,1.183,0,0,0-.142.075c-.045.028-.067.047-.067.059a.327.327,0,0,0,.176.267,2.674,2.674,0,0,0,.4.217c.15.067.3.128.45.184a1.161,1.161,0,0,1,.325.167,2.519,2.519,0,0,1,.642.784,3.27,3.27,0,0,1,.292.85,5.874,5.874,0,0,1,.1.876q.016.442.058.867a4.312,4.312,0,0,0,.159.818,1.747,1.747,0,0,0,.417.709.409.409,0,0,0,.275.108q.209.025.434.033l.417.017a.734.734,0,0,1,.259.042c.055.033.083.069.083.108a.238.238,0,0,1-.041.125.425.425,0,0,1-.108.116.437.437,0,0,1-.117.067,1.08,1.08,0,0,1-.35.083,3.434,3.434,0,0,1-.409.009c-.139-.006-.278-.014-.417-.025s-.264-.017-.375-.017a3.376,3.376,0,0,1-1.284-.208,2.038,2.038,0,0,1-.817-.6,2.635,2.635,0,0,1-.476-.951,8.122,8.122,0,0,1-.242-1.26,10.1,10.1,0,0,0-.267-1.392,2.378,2.378,0,0,0-.717-1.177,1.478,1.478,0,0,0-.6-.333,3.242,3.242,0,0,0-.684-.1,1.084,1.084,0,0,0-.134.008.369.369,0,0,1-.133-.008.228.228,0,0,1-.134-.075.245.245,0,0,1-.059-.134.2.2,0,0,1,.042-.142.257.257,0,0,1,.184-.083.712.712,0,0,1,.267-.017,1.121,1.121,0,0,0,.267,0,3.938,3.938,0,0,0,.926-.209,2.541,2.541,0,0,0,.809-.476,2.242,2.242,0,0,0,.551-.717,3.1,3.1,0,0,0,.292-.926,3.386,3.386,0,0,0,.009-.976,2.65,2.65,0,0,0-.267-.868,2.445,2.445,0,0,0-.317-.458,2.5,2.5,0,0,0-.417-.375,2.4,2.4,0,0,0-.576-.275,4.5,4.5,0,0,0-.667-.167q-.343-.058-.692-.083t-.651-.025l-.1.1q0,.818-.017,1.626" transform="translate(-113.772 -301.989)" fill="#fff"/>
    </g>
  </g>
</svg>
