<svg id="グループ_2784" data-name="グループ 2784" xmlns="http://www.w3.org/2000/svg" xmlns:xlink="http://www.w3.org/1999/xlink" width="117.219" height="135.352" viewBox="0 0 117.219 135.352">
  <defs>
    <clipPath id="clip-path">
      <rect id="長方形_262" data-name="長方形 262" width="117.219" height="135.352" fill="#171301"/>
    </clipPath>
  </defs>
  <path id="パス_187" data-name="パス 187" d="M9.768,95.874v-56.4l48.841-28.2,48.841,28.2v56.4l-48.841,28.2ZM58.609,0,53.725,2.82,4.884,31.018,0,33.838v67.676l4.884,2.82,48.841,28.2,4.884,2.82,4.884-2.82,48.841-28.2,4.884-2.82V33.838l-4.884-2.82L63.493,2.82Z" fill="#171301"/>
  <path id="パス_188" data-name="パス 188" d="M145.026,199.53l-10.715,18.56,2.033,3.521,32.146-18.56-2.033-3.521Z" transform="translate(-72.317 -107.434)" fill="#171301"/>
  <path id="パス_189" data-name="パス 189" d="M69.061,67.956,79.777,49.4l-2.034-3.521L45.6,64.435l2.033,3.521Z" transform="translate(-24.551 -24.701)" fill="#171301"/>
  <path id="パス_190" data-name="パス 190" d="M50.335,122.041l1.692-2.93,7.332-12.7h-25.5v37.119h4.066l10.716-18.56Z" transform="translate(-18.232 -57.296)" fill="#171301"/>
  <path id="パス_191" data-name="パス 191" d="M173.88,127.9l-1.692,2.93-7.332,12.7h25.5V106.412h-4.066l-10.716,18.56Z" transform="translate(-88.764 -57.296)" fill="#171301"/>
  <g id="グループ_171" data-name="グループ 171">
    <g id="グループ_170" data-name="グループ 170" clip-path="url(#clip-path)">
      <path id="パス_192" data-name="パス 192" d="M75.829,67.955l-1.692,2.93-1.692,2.93L61.729,92.376l-1.692,2.93-1.693,2.93-7.331,12.7-1.692,2.93L47.63,116.8,45.6,120.318l32.146,18.56,2.033-3.521,1.692-2.93,1.692-2.931,7.332-12.7,1.691-2.93,1.693-2.93,10.716-18.56,1.691-2.93,1.693-2.93,7.331-12.7L117,70.886l1.692-2.93,2.034-3.522L88.577,45.874,86.544,49.4l-1.692,2.931-1.693,2.93Zm20.112,31.8a3.907,3.907,0,1,1-1.43-5.337,3.907,3.907,0,0,1,1.43,5.337" transform="translate(-24.551 -24.7)" fill="#171301"/>
    </g>
  </g>
</svg>
