<svg id="グループ_2718" data-name="グループ 2718" xmlns="http://www.w3.org/2000/svg" xmlns:xlink="http://www.w3.org/1999/xlink" width="48.498" height="56" viewBox="0 0 48.498 56">
  <defs>
    <clipPath id="clip-path">
      <rect id="長方形_273" data-name="長方形 273" width="48.498" height="56" fill="#7c7c7c"/>
    </clipPath>
  </defs>
  <path id="パス_218" data-name="パス 218" d="M4.041,39.666V16.333L24.249,4.667,44.456,16.333V39.666L24.249,51.333ZM24.249,0,22.228,1.167,2.021,12.833,0,14V42l2.021,1.167L22.228,54.833,24.249,56l2.021-1.167L46.477,43.167,48.5,42V14l-2.021-1.167L26.269,1.167Z" fill="#7c7c7c"/>
  <path id="パス_219" data-name="パス 219" d="M138.744,199.53l-4.433,7.679.841,1.457,13.3-7.679-.841-1.457Z" transform="translate(-108.662 -161.427)" fill="#7c7c7c"/>
  <path id="パス_220" data-name="パス 220" d="M55.305,55.011l4.433-7.679L58.9,45.875,45.6,53.554l.841,1.457Z" transform="translate(-36.89 -37.115)" fill="#7c7c7c"/>
  <path id="パス_221" data-name="パス 221" d="M40.677,112.879l.7-1.212,3.033-5.254H33.861V121.77h1.682l4.433-7.679Z" transform="translate(-27.395 -86.091)" fill="#7c7c7c"/>
  <path id="パス_222" data-name="パス 222" d="M168.59,115.3l-.7,1.212-3.033,5.254h10.549V106.412h-1.682l-4.433,7.679Z" transform="translate(-133.375 -86.091)" fill="#7c7c7c"/>
  <g id="グループ_186" data-name="グループ 186">
    <g id="グループ_185" data-name="グループ 185" clip-path="url(#clip-path)">
      <path id="パス_223" data-name="パス 223" d="M58.1,55.01l-.7,1.212-.7,1.212-4.433,7.679-.7,1.212-.7,1.212-3.033,5.254L47.138,74l-.7,1.212L45.6,76.674l13.3,7.679.841-1.457.7-1.212.7-1.213,3.033-5.254.7-1.212.7-1.212L70,65.113l.7-1.212.7-1.212,3.033-5.254.7-1.212.7-1.212.841-1.457-13.3-7.679-.841,1.457-.7,1.213-.7,1.212Zm8.321,13.157a1.617,1.617,0,1,1-.592-2.208,1.617,1.617,0,0,1,.592,2.208" transform="translate(-36.89 -37.114)" fill="#7c7c7c"/>
    </g>
  </g>
</svg>
