<svg xmlns="http://www.w3.org/2000/svg" width="788.606" height="151.06" viewBox="0 0 788.606 151.06">
  <path id="パス_890" data-name="パス 890" d="M10.738,0h20.2l2-102.83L54.236,0h16.2l20.93-102.466L93.548,0h20.02l-2.73-147.42H83.72L62.062-45.318l-20.93-102.1H13.286ZM175.63,2c31.486,0,42.406-18.564,42.406-48.23v-55.328c0-29.848-10.92-47.5-42.406-47.5-31.668,0-42.588,17.654-42.588,47.5v55.328C133.042-16.38,143.78,2,175.63,2Zm0-19.838c-13.286,0-15.288-9.828-15.288-22.022v-67.886c0-12.376,2.184-21.658,15.288-21.658s15.106,9.282,15.106,21.658v67.886C190.736-27.664,188.734-17.836,175.63-17.836ZM259.9,0h26.39l29.666-147.42H291.746L273.364-43.134,253.89-147.42H230.23Zm71.162,0H393.3V-18.382h-35.49V-67.34h27.664V-86.086H357.812v-42.406h35.126V-147.42h-61.88Zm77.9,0h35.854c34.58,0,45.682-15.47,45.682-47.866v-53.69c0-31.486-10.92-45.864-46.774-45.864H408.954Zm26.754-18.746V-128.31h8.008c17.654,0,19.474,7.28,19.474,24.934v56.42c0,18.382-.728,28.21-19.11,28.21ZM550.55,2c31.486,0,42.406-18.564,42.406-48.23v-55.328c0-29.848-10.92-47.5-42.406-47.5-31.668,0-42.588,17.654-42.588,47.5v55.328C507.962-16.38,518.7,2,550.55,2Zm0-19.838c-13.286,0-15.288-9.828-15.288-22.022v-67.886c0-12.376,2.184-21.658,15.288-21.658s15.106,9.282,15.106,21.658v67.886C565.656-27.664,563.654-17.836,550.55-17.836ZM653.016,2c31.486,0,42.406-18.564,42.406-48.23v-55.328c0-29.848-10.92-47.5-42.406-47.5-31.668,0-42.588,17.654-42.588,47.5v55.328C610.428-16.38,621.166,2,653.016,2Zm0-19.838c-13.286,0-15.288-9.828-15.288-22.022v-67.886c0-12.376,2.184-21.658,15.288-21.658s15.106,9.282,15.106,21.658v67.886C668.122-27.664,666.12-17.836,653.016-17.836ZM715.26,0h26.754V-67.522h12.74L772.408,0h26.936L778.778-72.618c13.832-5.642,18.2-18.018,18.2-35.672,0-29.666-16.744-39.13-46.228-39.13H715.26Zm26.754-84.266v-44.772h10.01c15.47,0,19.656,7.28,19.656,22.2,0,15.834-5.642,22.568-21.112,22.568Z" transform="translate(-10.738 149.058)"/>
</svg>
