<svg xmlns="http://www.w3.org/2000/svg" width="369.52" height="929.404" viewBox="0 0 369.52 929.404">
  <path id="パス_876" data-name="パス 876" d="M27.084,0H83.028V-214.9L170.94,0h43.512V-359.64H160.284v205.128L72.816-359.64H27.084Zm241.98,0H420.912V-44.844h-86.58V-164.28H401.82v-45.732H334.332V-313.464h85.692V-359.64H269.064ZM496.836,0h54.612l39.516-241.092L630.924,0H684.2l50.172-359.64H680.208l-29.3,233.1L612.276-358.752h-44.4L530.58-126.54l-29.748-233.1H446.22Zm368.52,4.884c53.724,0,90.132-36.408,90.132-88.356,0-47.508-24.42-79.032-53.724-104.34L856.92-227.328c-19.092-16.428-29.3-29.748-29.3-54.168,0-19.092,10.656-33.744,30.192-33.744,28.86,0,33.744,25.308,35.076,59.052l56.388-9.768c-3.552-52.392-22.644-97.68-90.132-97.68-57.276,0-92.8,31.968-92.8,88.8,0,39.96,15.984,64.824,41.736,87.024L853.368-148.3c23.532,20.424,39.516,37.74,39.516,68.82,0,19.536-8.88,33.744-29.748,33.744-28.86,0-39.072-27.528-40.848-70.152l-56.388,11.1C768.564-33.3,799.644,4.884,865.356,4.884Z" transform="translate(5.384 -26.584) rotate(90)" fill="none" stroke="#ddd" stroke-width="1" opacity="0.995"/>
</svg>
