<svg xmlns="http://www.w3.org/2000/svg" width="1200" height="500" viewBox="0 0 1200 500">
  <g id="グループ_2654" data-name="グループ 2654" transform="translate(-120 -2167)">
    <path id="合体_19" data-name="合体 19" d="M-3484.131,4304.761c2.91-7.313,7.942-18.213,14.632-31.317,7.431-14.854,17.072-32.647,27.587-51.221a727.149,727.149,0,0,0,20.713-79.179c4.832-24.02,7.87-46.8,8.047-64.247.172-15.146-1.229-25.138-4.12-27.031-.367-.277-1.01-.187-1.975-.051-9.831.07-20.039,4.466-29.84,11.762-13.068,9.73-25.182,23.928-33.9,38.961s-14.035,30.9-13.6,43.335c.126,5.57,1.08,10.037,3.462,12.989,2.06,3,1.733,5.344-.564,5.338-2.619.041-6.2-2.085-8.212-4.761-4.076-5.67-6.035-12.627-6.386-19.809-.246-13.442,5.305-30,14.3-45.4,8.626-15.678,21.016-30.244,34.727-40.064,10.4-7.71,21.527-12.564,32.645-12.815a17.265,17.265,0,0,1,9.871,2.554c10.735,6.377,15.478,21.488,15.34,41.559-.132,17.77-3.169,40.551-8.278,64.937-1.674,9.111-3.946,18.636-6.264,27.837,26.42-43.167,54.211-83.568,71.793-98.535,12.289-10.607,22.024-9.02,29.859.067,10.261,12.362,10.1,43.941,9.9,72.9-.228,19.426-.315,37.519.222,43.688,4.142-3.213,11.053-12.4,19.72-25.458,11.108-16.685,24.62-39.626,39.011-65.649,9.178-16.414,18.544-33.839,27.5-51.865a1083.386,1083.386,0,0,1,41.842-139.023c15.3-40.614,29.875-67.65,36.584-68.924s11.157,2.374,12.745,11.354c4.537,25.33-36.332,119.838-79.568,204.492l-1.578,7.453c-22.514,103.758-26.7,209.538,33.168,222.472,3.031.56,6.378,3.375,7.75,6.14s.312,4.559-2.72,4c-66.3-14.331-72.711-104.483-57.058-201.028-2.674,4.322-4.981,8.92-7.334,13.195-14.667,26.391-28.179,49.332-39.288,66.017-11.385,17.054-20.091,27.484-24.871,28.485a10.32,10.32,0,0,1-5.739-1.164c-12.479-7.118-12.146-32.8-12.083-60.425.43-27.344.543-56.944-6.1-64.555-.824-1.2-4.136.911-11.455,7.2-23.473,19.741-64.826,85.063-96.926,141.521-13.232,41.31-28.287,76.631-39.894,89.771-2.257,2.619-4.052,3.858-5.293,4.361a20.2,20.2,0,0,1-6.3,1.266C-3489.377,4325.888-3489.67,4318.324-3484.131,4304.761Zm319.3-382.562c-8.133,21.525-16.78,46.41-24.788,73.507,25.893-53.94,46.634-104.854,50.783-131.407C-3145.473,3875.424-3154.753,3895.8-3164.828,3922.2Zm33.323,296.082c-13.372-4.605-14.2-15.089-13.371-21.418-14.328,15.463-32.409,29.989-41.928,17.7-5.633-7.424-4.919-18.7-.987-30.432,5.133-14.857,15-31.039,21.539-38.207,1.427-1.516,4.825-.679,7.8,1.86s4.4,5.626,2.971,7.142c-6.218,7.122-15.854,22.614-21.032,37.149-3.238,9.66-2.192,14.773,1.249,15.931,10.418.061,31.238-23.8,40.1-34.732a43.618,43.618,0,0,1,3.544-4.942l20.01-32.732a77.644,77.644,0,0,1,6.4-8.133c1.106-1.471,4.5-.634,7.162,1.95,2.934,2.216,4.719,5.581,3.613,7.052l-6.68,8.5c-5.67,8.688-12.732,23.817-7.115,38.146,3.242,9.077,3.316,16.627,1.511,22.47a26.607,26.607,0,0,1-5.117,7.952,22.643,22.643,0,0,1-6.9,4.588,19.662,19.662,0,0,1-6.75,1.216A17.1,17.1,0,0,1-3131.5,4218.28Zm-5.27-25.884c3.257,2.171,5.041,5.537,4.624,7.238.045.322-3.329,9.015-2.639,9.246,1.377.463,3.95.1,6.434-.905a13.071,13.071,0,0,0,6.026-3.808,14.352,14.352,0,0,0,4.011-6.481c1.619-4.831,1.77-10.769-.878-17.957-.587-4.19-3.528-4.1,2.2-19.375l-5.951,9.149a5.917,5.917,0,0,1-1.055,1.7,2.7,2.7,0,0,0-.266.332l-3.791,5.827a6.933,6.933,0,0,1-1.754,1.556c-2.619,3.4-5.984,7.62-9.793,12.039A12.47,12.47,0,0,1-3136.775,4192.4Zm56.736,18.636c-19.646-6.767-12.205-26.223-12.25-26.544.739-1.749,3.725-1.511,6.98.66s5.041,5.536,4.624,7.238c.045.323-3.328,9.016-2.639,9.248,1.377.463,3.95.1,6.433-.905a13.087,13.087,0,0,0,6.026-3.808,14.363,14.363,0,0,0,4.011-6.482c1.619-4.829,1.77-10.767-.878-17.955-.588-4.192-3.528-4.105,2.2-19.377l-11.064,17.008c-1.1,1.471-4.694,3.948-7.63,1.732-2.979-2.539,2.962-9.293,4.067-10.764l20.011-32.732a77.527,77.527,0,0,1,6.4-8.132c1.106-1.471,4.5-.634,7.162,1.949,2.934,2.215,4.719,5.581,3.614,7.051l-6.681,8.5c-5.67,8.688-12.733,23.816-7.115,38.146,3.241,9.076,3.316,16.626,1.511,22.469a26.6,26.6,0,0,1-5.117,7.953,22.629,22.629,0,0,1-6.9,4.587,19.65,19.65,0,0,1-6.75,1.217A17.11,17.11,0,0,1-3080.039,4211.033Zm114.05-14.749a24.059,24.059,0,0,1-7.156-4.252l-2.2-1.661c-4.993-5.4-6.836-14.237-6.333-23.639-14.844,17.633-37.914,40.321-49.118,25.86-5.633-7.424-4.919-18.7-.987-30.432,5.133-14.857,15-31.04,21.539-38.207,1.428-1.515,4.825-.679,7.8,1.86s4.4,5.626,2.97,7.142c-6.218,7.122-15.854,22.613-21.031,37.148-3.238,9.66-2.193,14.773,1.249,15.931,10.621.061,32.052-24.733,40.6-35.354,2.454-7.95,6.1-15.45,10.567-20.83.874-.779,1.7-1.884,2.578-2.664,1.151-1.148,4.549-.312,7.529,2.228s4.076,5.67,2.969,7.142a18.043,18.043,0,0,0-2.3,2.3c-5.9,7.076-9.963,17.838-12.1,28.33-1.4,8.744-1.6,16.661.46,19.658,1.7.418,3.629.147,6.112-.86a25.509,25.509,0,0,0,8.791-7.484c3.961-4.5,7.328-10.894,10.149-18.852a66.926,66.926,0,0,0,3.293-13.941,46.26,46.26,0,0,1-14.852-14.673,34.893,34.893,0,0,1-5.432-15.342c.011-4.6,1.489-8.1,5.258-9.287a14.093,14.093,0,0,1,8.268.48,23.926,23.926,0,0,1,11.509,9.556,35.156,35.156,0,0,1,5.166,11.106,50.431,50.431,0,0,1,1.944,13.86c7.24.293,18,.09,28.327-7.882l7.29-18.828c.739-1.749,4.046-1.556,6.98.66,3.257,2.172,5.041,5.536,4.3,7.283l-6.008,15.639c15.336-16.953,32.324-33.808,39.673-32.872l.644-.09c10.057,1.542,12.523,7.441,11.4,15.816-.469,3.682-2.132,8.19-3.706,13.342-3.006,8.97-6.52,19-6.52,19,11.243,5.32,41.688-30.2,42.009-30.241.785-1.425,3.735-6.115,6.715-3.576,3.257,2.171,1.417,3.088.357,4.881,0,0-29.229,46.52-47.493,37.917-15.786-7.31-10.7-22.49-6.351-35.922a83.181,83.181,0,0,0,2.453-8.235c-16.978,12.253-54.019,59.217-55.124,60.687-.785,1.426-3.815.867-6.705-1.027-2.979-2.54-5.04-5.537-4.3-7.285l9.119-23.554c-8.463,4.078-15.916,4.964-23.085,3.5a58.093,58.093,0,0,1-3.851,16.978c-2.82,7.958-6.419,15.039-10.657,19.91-3.408,3.767-6.584,6.844-9.987,8.309a15.937,15.937,0,0,1-6.842,1.583A16.819,16.819,0,0,1-2965.988,4196.284Zm19.336-79.644c-1.93.273-2.623,2.343-2.538,5.289a19.9,19.9,0,0,0,3.332,9.721,16.609,16.609,0,0,0,5.774,6.09,55.193,55.193,0,0,0-2.034-14.506,29.384,29.384,0,0,0-2.6-6.865l-.063.008.384-.053a.966.966,0,0,0-.575-.144A4.037,4.037,0,0,0-2946.653,4116.64Zm-867.724,17.667c-17.129-2.847-31.994-10.615-42.669-23.575-13.926-17.433-18.688-44.375-8.452-81.318,18.9-71.035,61.869-117.847,111.045-148.441a318.079,318.079,0,0,1,68.29-32.3c-14.284-1.275-29.628-.758-45.48.817-92.036,10.333-204.385,65.273-251,139.883-1.106,1.47-4.459.956-7.438-1.582-2.935-2.217-6.593-9.591-5.533-11.384,47.165-75.344,157.765-128.723,250.49-138.825,26.512-2.747,57.009-.469,78.4,4.737,52.357-14.935,100.872-17.494,126-16.1,2.665.282,6.288,2.73,8.026,5.772,1.694,2.72,1,4.791-1.618,4.83-22.552-1.754-64.865.59-111.427,12.407,18.128,7.637,32.571,19.409,42.045,35.5,15.235,26.781,19.323,67.624-5.329,121.061-30.421,66.084-98,110.446-153.392,124.82a141.338,141.338,0,0,1-35.777,5.062A92.55,92.55,0,0,1-3814.376,4134.308Zm69.779-243.874c-48.21,30.458-90.624,76.535-109.663,146.6-9.266,34.506-5.965,58.037,5.533,72.2,6.367,7.979,16.554,12.79,29,14.981,14.1,2.288,30.959.9,48.7-3.571,54.377-14.562,116.633-59.489,146.548-124.514,23.867-52.012,24.638-88.608,10.774-112.624-8.558-14.244-23.374-23.991-42.518-29.513a9.692,9.692,0,0,0-3.4-.837C-3687.66,3861.377-3717.133,3873.418-3744.6,3890.434Zm589.583,242.076c-2.979-2.54-4.719-5.582-3.658-7.374l15.12-23.168c1.06-1.793,4.136-.912,7.393,1.26,2.979,2.538,4.4,5.626,3.658,7.374l-15.12,23.167a2.192,2.192,0,0,1-2.026.974A9.854,9.854,0,0,1-3155.014,4132.51Zm210.209-16.129h0Zm.01,0h0Zm.008,0h0Zm0,0h0Zm-54.222-5.84c-2.98-2.539-4.719-5.581-3.658-7.375l15.12-23.166c1.06-1.793,4.136-.911,7.392,1.26,2.98,2.539,4.4,5.626,3.658,7.373l-15.12,23.167a2.191,2.191,0,0,1-2.025.974A9.858,9.858,0,0,1-2999.007,4110.538Zm-590.4-102.912c3.981-13.711,12.652-29.066,19.75-39.27,1.1-1.471,4.5-.635,7.437,1.582,2.98,2.539,4.4,5.626,3.658,7.375-20.513,31.487-19.73,51.1-17.208,52.717,4.313,2.68,26.865-16.6,40.12-48.384l.785-1.425c1.1-1.47,4.458-.956,7.438,1.582,2.934,2.217,4.719,5.581,3.612,7.052a11.607,11.607,0,0,1-1.935,2.574c-3.458,5.746-22.792,43.313-.294,28.311,8.734-5.9,18.27-15.213,25.381-24.611l20.164-45.9c.74-1.748,4.091-1.234,7.027.983,3.257,2.171,5.04,5.535,4.3,7.283l-9.235,20.695c10.489-7.066,25.207-14.4,32.77-7.244,3.347,2.815,3.422,10.365,7.648,10.1,6.157-.539,14.982-3.1,23.306-6.9,1.839-.917,3.543-2.8,5.881-.171,2.7,2.906,1.552,4.055-.332,4.648-8.922,4.216-23.91,9.613-30.755,9.921-8.453.532-11.344-1.361-19.6-8.746-5.639-5.122-30.7,24.375-30.7,24.375-.6.413-13.347,31.136-14.548,34.264-.74,1.748-4.091,1.233-7.027-.983-3.257-2.172-5.04-5.536-4.3-7.284l3.694-8.409a45,45,0,0,1-5.568,4.4c-10.49,7.065-25,6.479-28.878-7.109-12.769,14.539-25.285,22.139-33.968,22.14C-3591.132,4041.188-3596.034,4030.374-3589.41,4007.625Z" transform="translate(4115.796 -1658.887)" fill="#ddd"/>
  </g>
</svg>
