<svg xmlns="http://www.w3.org/2000/svg" width="834.16" height="168.66" viewBox="0 0 834.16 168.66">
  <path id="パス_1091" data-name="パス 1091" d="M39.42-61.02c-3.6,0-10.8-.36-16.56-.72a1.284,1.284,0,0,0-1.44,1.26c0,.36.18.72,3.96,4.68,5.94-.36,12.24-.36,18.18-.36H68.22c-.54,29.88-.72,46.08-.9,51.12-.36,10.62-.36,10.62-.36,12.06,0,6.3,1.62,7.74,8.64,7.74,4.14,0,10.26-1.44,13.32-3.24C91.62,9.9,92.7,8.1,92.7,5.04L92.52,1.8c-.18-4.5-.54-22.86-.9-34.56-.18-5.4-.18-9.54-.18-12.24,0-5.22,0-5.22,1.26-5.94,2.34-1.62,2.52-1.8,2.52-2.7,0-1.08-.54-1.62-2.34-2.7h24.3c1.26,1.44,1.62,3.96,1.44,18.9l.18,12.96c0,7.56-1.44,9.18-8.1,9.18-4.14,0-10.08-.72-10.44-.72-.54,0-.9.18-.9.72s.36.72,1.26,1.26c5.58,2.88,10.26,7.2,11.16,10.44,1.98,7.56,2.16,7.74,7.02,7.74,8.28,0,15.12-2.34,20.16-6.84,3.6-3.42,4.86-7.2,4.86-14.58,0-7.74-.54-23.04-1.08-34.38,3.42-2.7,4.14-3.78,4.14-5.04,0-2.16-1.98-3.96-10.62-8.82-7.38-4.14-9-4.68-10.98-4.68-1.62,0-3.24,1.26-4.86,3.6a63.8,63.8,0,0,1-4.14,5.58Zm58.32-76.32c4.32,23.04,12.42,39.96,25.56,53.64,10.62,11.34,23.4,19.26,30.6,19.26,2.16,0,2.7-.36,4.14-3.42,2.52-5.04,11.34-14.04,16.02-16.38,1.44-.72,1.62-1.08,1.62-1.62s-.36-.9-1.8-1.26a159.141,159.141,0,0,1-23.22-7.74c-12.96-5.58-23.22-11.88-33.12-20.7-9.36-8.1-14.4-14.4-17.82-22.5,3.24-1.62,3.96-2.34,3.96-3.78a4.922,4.922,0,0,0-2.88-3.96c-4.14-1.98-14.76-4.5-28.8-7.02-9.54,27.72-18.9,45.36-33.3,62.46C28.8-78.84,14.94-66.96,6.3-62.64c-1.08.54-1.62.9-1.62,1.44,0,.36.36.72,1.08.72,1.26,0,7.74-2.16,13.14-4.14A147.919,147.919,0,0,0,61.56-90.9c12.96-11.52,26.1-28.8,34.74-45.9ZM66.78-83.88c-2.52,0-7.74-.18-11.88-.36a1.284,1.284,0,0,0-1.44,1.26c0,.36.18.72,3.78,4.5a109.072,109.072,0,0,1,15.3-.9H112.5c3.42,0,4.86-.72,4.86-2.52s-1.98-4.5-6.12-7.92c-5.76-5.04-8.28-6.66-10.26-6.66-2.16,0-4.32,1.98-13.14,12.6ZM238.5-91.26c.36-19.26.36-19.62.72-25.02,2.88-1.26,3.96-2.16,3.96-3.24,0-1.26-1.26-2.52-3.78-3.6,3.42-.54,6.48-1.44,16.56-4.32a8.833,8.833,0,0,0,1.98.18c4.68,0,7.56-1.8,7.56-4.32,0-4.5-10.44-11.52-27.36-18.72a150.44,150.44,0,0,1-57.6,34.56c-1.8.72-2.34.9-2.34,1.44,0,1.08.54,1.44,2.16,1.44,4.68,0,23.04-2.7,32.04-4.32a46.24,46.24,0,0,0,4.86-1.08c.18,9.72.18,15.66.18,27H190.8c-2.16,0-6.48-.18-9.72-.54a1.284,1.284,0,0,0-1.44,1.26c0,.36.18.72,3.06,3.96a72.279,72.279,0,0,1,8.82-.36h23.04c-5.58,25.92-23.76,60.84-37.98,72.18a1.869,1.869,0,0,0-.9,1.44.824.824,0,0,0,.72.9c1.44,0,8.1-3.78,14.4-7.92a109.394,109.394,0,0,0,26.28-23.4c-.18,7.38-.18,7.38-.54,19.26,0,5.04-.54,17.64-.72,23.22-.54,9.9-.54,9.9-.54,10.26,0,3.42,2.34,4.86,7.92,4.86,6.84,0,12.96-2.16,15.3-5.04.9-1.08,1.08-2.16,1.08-4.68-.18-7.02-.18-11.88-.36-17.1l-.54-52.38c5.94,6.66,7.74,11.34,8.46,22.68.36,6.3,2.88,8.82,9,8.82,8.28,0,14.04-5.58,14.04-13.5,0-10.98-11.34-18.18-31.5-19.8v-19.8h28.44c2.16,0,3.6-1.08,3.6-2.7,0-2.52-1.98-5.58-5.94-9.54-5.22-4.86-7.56-6.48-9.54-6.48-2.34,0-3.24.54-11.34,14.4Zm57.96-24.48c-.54-1.08-1.44-1.62-3.78-2.7-4.86-1.98-15.3-4.86-17.46-4.86-.9,0-1.26.36-1.26,1.98.18,6.48.18,6.48.18,35.28,0,25.92-.18,51.3-.36,70.2-.18,6.48-.18,6.48-.18,6.84,0,5.04,1.08,6.12,6.3,6.12,5.76,0,10.62-1.26,13.32-3.78,1.98-1.62,2.16-2.52,2.16-8.46v-5.4H314.1c0,14.4,0,14.4.54,15.48.9,1.62,3.6,2.52,8.1,2.52,9.9,0,15.12-3.78,15.12-11.16s-.36-28.98-.72-41.58c-.54-22.68-.54-22.68-.72-48.06,3.78-2.88,5.04-4.68,5.04-6.84,0-1.8-1.44-3.6-5.94-7.02-5.94-4.68-11.88-7.92-14.4-7.92-2.16,0-4.68,2.52-8.82,9.36ZM295.2-24.66c0-10.44,0-18.54-.18-23.76l-.18-48.6c0-12.42.36-14.4,3.06-14.4h14.76c1.26.36,1.44.72,1.44,2.16v6.48c.18,4.32.36,9.72.18,78.12ZM486.72-60c0-13.12-5.92-24.32-18.56-34.4-11.52-9.12-26.24-13.92-42.4-13.92-21.6,0-43.2,8.48-54.08,21.12-6.72,7.68-10.4,18.4-10.4,29.44,0,14.56,4.16,26.56,10.4,31.68a11.5,11.5,0,0,0,6.4,2.24c2.72,0,5.44-.8,10.24-5.6,1.92-1.6,4-3.36,8-6.88,4.48-3.84,12.32-11.68,16.16-15.84,5.76-6.08,9.76-10.88,13.44-15.52,5.76-7.52,8.8-13.12,8.64-15.84-.16-4.96-3.84-10.24-9.28-13.12a17.852,17.852,0,0,0-6.4-2.4.732.732,0,0,0-.8.64c0,.32.16.32.48.64a7.019,7.019,0,0,1,2.08,5.6c0,6.4-6.4,16.96-19.04,31.2a209.188,209.188,0,0,1-14.88,15.2c-2.56,2.24-4,2.88-5.28,2.88-4.96,0-10.56-12.96-10.56-24.16,0-10.08,4.48-17.12,15.36-24.16a61.577,61.577,0,0,1,34.24-9.76c27.52,0,46.88,15.04,46.88,36.16,0,12.64-6.88,24.48-21.44,36.96a148.79,148.79,0,0,1-24.48,16.48c-4.8,2.56-9.92,4.8-14.08,6.56-2.08.8-3.36,1.44-4.16,1.6s-1.6.48-1.6.96.64.8,1.28.8a78.065,78.065,0,0,0,13.6-2.24,231.815,231.815,0,0,0,22.88-6.56A103.074,103.074,0,0,0,462.4-21.6c5.76-4,11.2-8,14.88-12.48A38.178,38.178,0,0,0,486.72-60Zm45.22-77.7a33.547,33.547,0,0,0-6.12-9.72c-1.26-1.26-1.98-1.98-3.06-1.98-.54,0-1.26.54-1.26,1.08a22.26,22.26,0,0,1-.36,3.24,23.865,23.865,0,0,1-3.24,8.82,30.713,30.713,0,0,1-9.54,9.9c-4.5,2.88-5.58,6.12-5.58,10.26,0,7.02,5.58,11.16,13.14,11.16,6.3,0,11.34-3.42,14.94-8.64a22.393,22.393,0,0,0,3.24-12.06,29.965,29.965,0,0,0-.9-8.28H637.42c-.72,6.48-1.62,13.14-2.34,17.46-4.68-3.78-7.38-5.22-9-5.22-2.34,0-3.96,2.16-11.52,13.32h-19.8l.18-6.66c4.14-2.52,5.94-3.78,5.94-6.48,0-2.34-1.98-3.96-7.38-5.04-5.04-1.26-17.64-3.06-21.06-3.06-.72,0-.9.36-.9,1.26,0,.36.18,4.14.18,4.5,0,1.44.18,8.64.36,15.48H536.44c-1.8,0-5.58-.18-8.46-.36a1.284,1.284,0,0,0-1.44,1.26c0,.36.18.72,2.7,3.78,3.6-.36,7.56-.36,11.16-.36h31.68l.18,17.28h-18a9.615,9.615,0,0,0-5.76-3.42c-7.2-1.98-15.48-3.78-17.64-3.78-1.26,0-1.26.36-1.26,5.04v3.42c-.36,16.38-.54,32.76-.9,49.14,0,4.68,1.26,6.3,8.1,6.3,4.86,0,10.08-1.62,12.78-3.6,1.26-1.08,1.8-2.34,1.8-4.86v-.9h20.7l-.36,19.44H514.66c-2.52,0-7.74-.36-11.7-.72a1.284,1.284,0,0,0-1.44,1.26c0,.36.18.72,3.06,4.86,5.22-.36,10.8-.54,16.02-.54h50.94c0,2.7,0,4.86-.18,8.28-.18,2.88-.54,11.7-.54,15.84,0,5.04,2.34,6.84,8.82,6.84,5.76,0,11.16-1.8,14.04-4.32,1.8-1.62,2.16-2.7,2.16-6.12l-.54-20.52h68.58c3.42,0,5.4-1.26,5.4-3.42,0-5.04-14.76-18.36-20.34-18.36-2.7,0-5.04,3.6-15.48,16.92H595.3c0-2.7-.18-9.18-.36-19.44h21.42v1.8c0,3.24,2.34,5.04,7.74,5.04,5.76,0,12.06-1.98,14.76-4.32,1.98-1.8,2.7-3.42,2.7-6.84,0-4.32-.54-14.94-1.44-34.02,3.06-1.98,4.86-3.78,4.86-5.4s-1.26-3.06-4.5-5.22c-7.74-5.04-13.68-7.92-16.02-7.92-1.98,0-3.6,1.62-9.54,9.54H594.76v-17.28h42.48c4.32,0,6.12-.72,6.12-2.7,0-1.8-1.26-3.78-3.96-6.12l-.9-.72a70.077,70.077,0,0,1,16.74-6.12,51.618,51.618,0,0,1,7.02-.72c4.5-.18,7.2-2.16,7.2-5.4,0-3.78-2.52-8.1-8.82-13.5-7.92-6.84-12.78-9.36-16.02-9.36-2.34,0-3.42,1.44-6.48,5.22-1.26,1.62-2.16,2.88-4.32,5.76Zm84.78,77.04v17.1H594.94l-.18-17.1Zm0-4.32H594.76V-82.8h19.62c1.44,0,2.16.54,2.34,1.62Zm-44.46,4.32-.18,17.1H551.2v-17.1Zm0-22.14v17.82H551.2l.18-10.26c.18-5.58.9-7.02,3.78-7.56ZM699.34-58.32l-.18-22.32h16.92v4.14c0,3.06,1.8,4.14,6.84,4.14,4.32,0,10.98-1.62,13.32-3.06a4.639,4.639,0,0,0,2.34-4.5c0-.9,0-4.14-.18-8.64-.18-6.48-.18-6.48-.36-9.18-.18-5.58-.18-5.58-.36-10.26,4.86-3.06,5.04-3.42,5.04-4.86,0-1.8-1.62-3.96-4.68-6.3-6.48-4.86-10.98-7.38-13.32-7.38-1.26,0-2.34.72-5.76,3.96l-2.88,2.7H705.1c8.64-6.84,13.32-10.98,20.52-17.64,5.76-1.44,7.2-3.06,7.2-5.4,0-1.98-1.44-3.24-4.86-4.5-5.22-1.98-20.16-5.4-22.68-5.4-.54,0-.72.18-.9,1.08a284.331,284.331,0,0,1-5.76,29.7c-4.5-2.7-14.22-5.94-18.18-5.94-1.08,0-1.44.54-1.44,1.8,0,17.28.36,35.64,0,58.68-.18,23.22-.54,46.98-.9,69.12,0,4.14,1.44,5.58,5.76,5.58,6.48,0,10.26-.54,13.14-2.34,2.34-1.26,2.88-2.88,2.88-8.46V-16.74h17.46v6.66c0,3.96.72,5.76,6.12,5.76,5.94,0,13.14-2.34,15.3-5.04,1.08-1.26,1.62-2.52,1.62-6.3-.36-8.28-.9-25.56-1.08-33.3,3.96-3.06,4.32-3.42,4.32-4.86,0-1.8-2.52-4.14-8.1-7.74-4.86-2.88-8.46-4.5-10.08-4.5-1.98,0-2.52.54-7.92,7.74Zm16.92-26.64h-17.1c.18-21.24.18-22.32.36-25.74.18-3.6.72-4.86,2.7-4.86h12.96c.9.72,1.08,1.26,1.08,3.96Zm1.08,63.72H699.52l-.18-32.58h15.48c2.16,0,2.52.72,2.52,5.22Zm31.14-113.58c-2.16,0-6.84-.18-10.26-.54a1.284,1.284,0,0,0-1.44,1.26c0,.36.18.72,2.88,3.96a58.33,58.33,0,0,1,7.92-.36h30.6c.18,4.86.36,9.36.36,14.76,0,6.48,0,8.28.18,13.14h-7.2c-.72-.9-3.42-2.34-5.76-3.06-4.14-1.26-12.6-2.88-14.94-2.88-.72,0-.72.18-.72,3.42.18,5.04.18,7.92.18,9.18,0,4.86,0,17.82-.18,31.68-.18,20.16-.54,38.88-.72,45.72-.18,9.9-.18,9.9-.18,10.62,0,3.6,1.8,5.04,6.48,5.04,5.04,0,9.9-1.44,12.24-3.78,1.44-1.62,1.62-1.98,1.62-10.26V-94.5c0-2.16.18-2.52,1.26-3.6h8.28c0,8.46,0,9.36-.18,26.82-.36,23.94-.72,44.1-1.08,58.5-.54,16.92-.54,17.46-.54,20.88,0,5.76,1.98,7.56,7.2,7.56,4.86,0,10.44-1.62,13.32-3.6,1.98-1.44,2.88-2.7,2.7-7.74l-.36-19.8c2.88.72,5.22,3.42,6.12,6.84a46.046,46.046,0,0,0,1.26,4.86c.9,2.7,3.6,3.42,6.48,3.42a20.729,20.729,0,0,0,16.92-8.28c1.98-2.7,2.7-6.48,2.7-12.78-.54-16.92-.54-17.46-1.44-38.16-.36-9-.72-18.36-.72-30.96,3.24-2.16,4.32-3.6,4.32-5.4,0-1.98-1.08-3.42-5.94-7.56-6.84-5.4-11.34-8.1-13.68-8.1-1.98,0-3.24,1.26-9,9h-8.1l.54-23.04c4.14-1.44,4.86-2.52,4.86-4.86h28.62c4.14,0,5.76-.9,5.76-3.24,0-4.86-12.78-16.38-18-16.38-1.98,0-3.42,1.08-6.3,4.86-6.12,7.92-6.12,7.92-8.1,10.44Zm51.3,116.46c-.18-11.88-.36-23.76-.54-36-.18-12.78-.36-29.16-.54-43.74h10.8c.18,11.52.36,23.58.54,35.1.18,16.74.18,18.54.18,27.72.18,12.6-.36,13.32-1.8,14.94-1.08,1.26-3.42,1.98-7.74,1.98Z" transform="translate(-4.68 152.82)"/>
</svg>
