<svg xmlns="http://www.w3.org/2000/svg" width="24" height="100.003" viewBox="0 0 24 100.003">
  <g id="グループ_2716" data-name="グループ 2716" transform="translate(-331 -547)">
    <path id="前面オブジェクトで型抜き_3" data-name="前面オブジェクトで型抜き 3" d="M-3980.993-6400h0l-24-6.43v-1.648l24,6.431V-6400Zm0-9.93h0l-24-6.43v-3.788l24,6.431v3.786Zm0-7.928h0l-24-6.429V-6500h24Z" transform="translate(4335.992 7047)" fill="#fff"/>
    <path id="パス_877" data-name="パス 877" d="M-32.088-.3l.448-.7a4.75,4.75,0,0,0,2.832.96,3.723,3.723,0,0,0,3.92-3.744,3.13,3.13,0,0,0-1.1-2.5A7.291,7.291,0,0,0-28.6-7.52,6.393,6.393,0,0,1-30.456-8.3a1.641,1.641,0,0,1-.7-1.376,2.016,2.016,0,0,1,2.176-1.936,2.6,2.6,0,0,1,2.128,1.1,3.955,3.955,0,0,1,.624,2.08l.5-.08c-.016-.688-.048-1.264-.048-1.84,0-.48.016-.912.048-1.44l-.32-.08-.48.512a4.306,4.306,0,0,0-2.432-.752A3.43,3.43,0,0,0-32.5-8.7a3.464,3.464,0,0,0,1.136,2.592,6.887,6.887,0,0,0,2.528,1.2,4.529,4.529,0,0,1,2.064.9,1.606,1.606,0,0,1,.56,1.248,2.365,2.365,0,0,1-2.592,2.16A2.862,2.862,0,0,1-31.1-1.632a4.775,4.775,0,0,1-.928-2.56l-.48.08c.064.8.1,1.536.1,2.08,0,.5-.032,1.072-.064,1.552Zm17.616-10.768a5.211,5.211,0,0,0-3.3-1.056A5.881,5.881,0,0,0-23.592-5.92a5.6,5.6,0,0,0,5.84,5.9,5.65,5.65,0,0,0,3.312-.992L-13.9-.4l.288-.112c-.016-.512-.032-1.1-.032-1.584,0-.5.032-1.312.1-2.464h-.416a6.549,6.549,0,0,1-.784,2.64,3.038,3.038,0,0,1-2.48,1.344,3.63,3.63,0,0,1-2.9-1.648,7.132,7.132,0,0,1-.8-3.728,8.128,8.128,0,0,1,.848-4.112A3.47,3.47,0,0,1-17.3-11.616a3,3,0,0,1,2.432,1.264,4.616,4.616,0,0,1,.592,2.5l.48-.016V-9.6c0-.72.048-1.456.112-2.144l-.384-.048ZM-1.336-.864A2.05,2.05,0,0,1-2.1-.688a.618.618,0,0,1-.624-.48A6.281,6.281,0,0,1-2.9-2.688C-3-4.416-3.24-4.976-4.12-5.52a6.923,6.923,0,0,0-2.336-.72,5.524,5.524,0,0,0,1.9-.368A2.642,2.642,0,0,0-2.76-9.136a2.608,2.608,0,0,0-.784-1.9,3.944,3.944,0,0,0-2.928-.912c-1.488,0-2.448.112-4.048.112-.576,0-1.232-.032-1.648-.048v.432l1.52.048v8.736q0,.984-.048,1.968l-1.616.016v.432h5.568V-.688L-8.344-.7V-5.968h1.12a1.809,1.809,0,0,1,1.648.992,4.49,4.49,0,0,1,.416,1.92A3.708,3.708,0,0,0-4.648-.864a2.272,2.272,0,0,0,1.856.736A4.545,4.545,0,0,0-1.288-.4ZM-8.344-6.448v-4.384c0-.352.016-.464.08-.544a1.122,1.122,0,0,1,.7-.16c1.76,0,2.656.848,2.656,2.5A2.286,2.286,0,0,1-7.272-6.448ZM5.24-12.128A6,6,0,0,0-.472-6.016a5.936,5.936,0,0,0,5.824,6,6,6,0,0,0,5.92-6.016A6.02,6.02,0,0,0,5.24-12.128ZM5.464-.416A2.81,2.81,0,0,1,3.128-1.744a7.874,7.874,0,0,1-.912-4.288c0-2.224.288-3.568.944-4.5a2.7,2.7,0,0,1,2.208-1.184c1.968,0,3.232,2.1,3.232,5.408A8.756,8.756,0,0,1,7.288-1.3,2.334,2.334,0,0,1,5.464-.416Zm6.928.16c.848,0,2.032-.016,3.36-.016,1.808,0,3.632,0,6.208.048.064-1.312.144-2.432.256-4.112h-.432a6.245,6.245,0,0,1-.656,2.448c-.432.7-1.472,1.056-3.184,1.056h-1.5V-11.44l1.664-.016v-.432H12.392v.432l1.712.016V-.7l-1.712.032Zm10.672,0c.848,0,2.032-.016,3.36-.016,1.808,0,3.632,0,6.208.048.064-1.312.144-2.432.256-4.112h-.432A6.245,6.245,0,0,1,31.8-1.888c-.432.7-1.472,1.056-3.184,1.056h-1.5V-11.44l1.664-.016v-.432H23.064v.432l1.712.016V-.7l-1.712.032Z" transform="translate(349 586) rotate(-90)"/>
  </g>
</svg>
