<svg xmlns="http://www.w3.org/2000/svg" width="369.52" height="1409.383" viewBox="0 0 369.52 1409.383">
  <path id="パス_870" data-name="パス 870" d="M117.66,4.884c53.724,0,90.132-36.408,90.132-88.356,0-47.508-24.42-79.032-53.724-104.34l-44.844-39.516c-19.092-16.428-29.3-29.748-29.3-54.168,0-19.092,10.656-33.744,30.192-33.744,28.86,0,33.744,25.308,35.076,59.052l56.388-9.768c-3.552-52.392-22.644-97.68-90.132-97.68-57.276,0-92.8,31.968-92.8,88.8,0,39.96,15.984,64.824,41.736,87.024L105.672-148.3c23.532,20.424,39.516,37.74,39.516,68.82,0,19.536-8.88,33.744-29.748,33.744-28.86,0-39.072-27.528-40.848-70.152L18.2-104.784C20.868-33.3,51.948,4.884,117.66,4.884ZM246.42,0H398.268V-44.844h-86.58V-164.28h67.488v-45.732H311.688V-313.464H397.38V-359.64H246.42ZM436.452,0H501.72V-164.724H532.8L575.868,0H641.58L591.408-177.156c33.744-13.764,44.4-43.956,44.4-87.024,0-72.372-40.848-95.46-112.776-95.46h-86.58ZM501.72-205.572V-314.8h24.42c37.74,0,47.952,17.76,47.952,54.168,0,38.628-13.764,55.056-51.5,55.056ZM739.26,0h64.38l72.372-359.64H816.96L772.116-105.228,724.608-359.64h-57.72ZM914.64,0h64.824V-359.64H914.64Zm217.116,4.884c75.924,0,97.236-45.732,97.236-109.224V-133.2h-63.048v32.412c0,31.968-1.332,57.276-33.744,57.276-28.86,0-36.852-18.648-36.852-57.72V-257.076c0-32.856,3.108-58.608,36.852-58.608,33.3,0,33.744,24.42,33.744,54.612v31.08h63.048v-30.192c0-62.6-23.532-103.452-97.236-103.452-79.032,0-102.564,46.62-102.564,120.324V-115C1029.192-44.844,1052.724,4.884,1131.756,4.884ZM1274.724,0h151.848V-44.844h-86.58V-164.28h67.488v-45.732h-67.488V-313.464h85.692V-359.64h-150.96Z" transform="translate(5.384 -17.688) rotate(90)" fill="none" stroke="#ddd" stroke-width="1" opacity="0.995"/>
</svg>
