<svg xmlns="http://www.w3.org/2000/svg" width="75.357" height="390" viewBox="0 0 75.357 390"><g transform="translate(-483 -5428)"><path d="M74.7,31.544c1.121,0,1.922-.56,1.922-1.281,0-2.082-6.405-7.686-8.727-7.686-.961,0-3.2,2.322-6.646,6.966H53.962c-.4-10.889-.48-12.57-.48-16.734,0-1.2,0-1.922.08-3.683,1.922-1.281,2.4-1.761,2.4-2.642,0-1.041-.721-1.521-3.283-2.162A71.553,71.553,0,0,0,43.073,2.8c.32,5.845,1.121,18.976,1.361,22.178.24,3.043.24,3.043.32,4.564H31.223V20.174c1.521-.8,1.922-1.121,1.922-1.922,0-.961-1.041-1.6-4.4-2.562,2.082-.32,3.123-.56,7.046-1.361l2.322.08c2,0,2.962-.641,2.962-1.761,0-2-4.884-6.085-11.289-9.288C21.615,10.326,14.89,14.249,6.323,16.972c-1.041.32-1.361.56-1.361.881,0,.4.24.56.881.56,1.761,0,9.688-.721,11.93-1.121,1.281-.16,2.4-.32,3.443-.48l.32,12.731H8.164c-.961,0-3.043-.16-4.564-.32a.571.571,0,0,0-.641.56c0,.16.08.32,1.521,2,1.842-.16,3.763-.24,5.6-.24H21.535l.08,11.369c-3.843.881-4.644,1.041-8.487,1.761-4,.8-6.565,1.281-9.368,1.842-.4.08-.56.24-.56.56,0,.641.56,2.162,2.322,6.646C7.364,58.686,7.6,59.007,8.8,59.007c1.121,0,2.162-.8,4-3.123,2.162-1.281,6-3.283,8.887-4.724l-.08,9.848c-.08,5.845-1.2,6.485-9.688,6.485-.641,0-.8.08-.8.32,0,.32.56.56,1.361.881,3.2,1.441,5.2,2.8,5.445,4.163.4,2.4,1.521,2.8,4.083,2.8,4.324,0,7.927-2.162,8.967-4a11.206,11.206,0,0,0,.8-4.484L31.3,46.917c11.61-7.286,12.65-8.007,12.65-8.807a.448.448,0,0,0-.4-.48,2.878,2.878,0,0,0-.881.16,99.625,99.625,0,0,1-11.449,3.523V31.544H44.915c.641,6.405,2.322,15.933,3.443,19.216.641,1.842.641,1.842.8,2.4-4.8,6.405-11.049,12.01-16.574,14.892-.32.16-.4.24-.4.4,0,.24.16.4.48.4a32.965,32.965,0,0,0,7.526-2.562A50.957,50.957,0,0,0,51.8,59.487C55.964,68.614,63.81,75.58,70.056,75.58c3.843,0,6.966-2.322,6.966-5.364a4.43,4.43,0,0,0-.961-2.482,4.252,4.252,0,0,1-1.121-3.043c0-2,.881-5.685,2.242-9.768a2.394,2.394,0,0,0,.24-.961c0-.32-.16-.48-.4-.48s-.48.16-.8.721a54.232,54.232,0,0,1-4.564,6c-1.842,2.162-2.562,2.722-3.6,2.722-2.322,0-6.806-5.124-8.487-9.688A102.089,102.089,0,0,0,69.5,43.073c2.322-.16,3.443-.641,3.443-1.6,0-.8-.8-1.761-2.962-3.443-3.283-2.562-6.806-4.724-7.686-4.724-.32,0-.56.24-.8.961a57.645,57.645,0,0,1-5.364,10.409c-1.041-4.163-1.2-5.2-2-13.131ZM70.936,16.251c0-4.244-4.8-7.286-11.69-7.286-1.121,0-1.521.08-1.521.32a.692.692,0,0,0,.24.48c1.2,1.121,1.842,3.043,2.162,6.485.24,3.123.24,3.123.721,3.843a4.462,4.462,0,0,0,3.843,1.6C68.374,21.7,70.936,19.454,70.936,16.251Zm-26.582,115.3a66.923,66.923,0,0,0-13.291-1.842c-1.041,0-1.521.16-1.521.4,0,.16.08.24.4.4,7.446,3.123,12.57,7.286,18.095,14.412,1.681,2.162,2.8,2.882,4.884,2.882,3.043,0,4.964-2.322,4.964-5.765,0-3.843-3.2-6.726-10.489-9.528,3.123-2.482,9.448-7.126,12.971-9.688a18.891,18.891,0,0,0,2.562-.24,2.557,2.557,0,0,0,2.322-2.482,6.255,6.255,0,0,0-1.361-3.443c-2.4-3.043-7.286-6.806-8.887-6.806-.56,0-1.2.48-3.2,2.8a67.062,67.062,0,0,1-10.729,1.281c1.041-1.6,2.482-3.923,3.843-6.165.32-.24.641-.48,1.121-.881a1.807,1.807,0,0,0,.881-1.441c0-1.6-.961-2.882-3.683-4.644-5.044-3.2-6.966-4.083-9.288-4.083-1.922,0-4.083,1.041-4.083,1.922,0,.16.08.32.48.56,2.082,1.2,3.2,2.562,3.2,3.843,0,1.441-1.041,4.8-2.8,8.967a77.42,77.42,0,0,1-9.928,17.214A59.518,59.518,0,0,1,8.8,140.754c-.56.4-.721.48-.721.721a.366.366,0,0,0,.4.32c1.441,0,9.768-4.324,13.451-6.886,6-4.324,11.209-9.768,16.734-17.695a6.821,6.821,0,0,0,3.123,1.6c.24,0,1.121-.16,1.6-.24,1.281-.16,5.044-.48,5.364-.48.48,0,.961.08.961.48,0,.721-1.2,3.923-2.642,6.966-.32.721-.881,2-1.521,3.6A16.729,16.729,0,0,1,44.354,131.547Z" transform="translate(480.04 5425.2)" fill="#d9d9d9"/><path d="M56.226,33.924c0-4.91-2.216-9.1-6.946-12.874a25.262,25.262,0,0,0-15.868-5.21c-8.084,0-16.168,3.174-20.24,7.9A16.828,16.828,0,0,0,9.28,34.762c0,5.449,1.557,9.94,3.892,11.856a4.3,4.3,0,0,0,2.4.838c1.018,0,2.036-.3,3.832-2.1.719-.6,1.5-1.257,2.994-2.575,1.677-1.437,4.611-4.371,6.048-5.928,2.156-2.275,3.653-4.072,5.03-5.808,2.156-2.814,3.293-4.91,3.234-5.928a6.212,6.212,0,0,0-3.473-4.91,6.681,6.681,0,0,0-2.4-.9.274.274,0,0,0-.3.24c0,.12.06.12.18.24a2.627,2.627,0,0,1,.778,2.1c0,2.4-2.4,6.347-7.126,11.677A78.289,78.289,0,0,1,18.8,39.253c-.958.838-1.5,1.078-1.976,1.078-1.856,0-3.952-4.85-3.952-9.042,0-3.772,1.677-6.407,5.749-9.042a23.045,23.045,0,0,1,12.814-3.653c10.3,0,17.545,5.629,17.545,13.533,0,4.731-2.575,9.162-8.024,13.832a55.685,55.685,0,0,1-9.162,6.168c-1.8.958-3.713,1.8-5.269,2.455-.778.3-1.257.539-1.557.6s-.6.18-.6.359.24.3.479.3A29.216,29.216,0,0,0,29.939,55,86.756,86.756,0,0,0,38.5,52.547,38.575,38.575,0,0,0,47.124,48.3a27.658,27.658,0,0,0,5.569-4.671A14.288,14.288,0,0,0,56.226,33.924Z" transform="translate(487.72 5578.16)" fill="#d9d9d9"/><path d="M54.26,31.762V19.156H73.727c1.2,0,1.915-.479,1.915-1.2,0-1.755-6.063-7.5-7.9-7.5-1.037,0-2.074,1.037-4.228,4.069-1.356,1.915-1.675,2.314-2.074,2.792h-7.1V8.784c1.6-.638,2.473-1.356,2.473-2.314,0-.638-.8-1.356-1.915-1.675a41.675,41.675,0,0,0-9.175-1.356c-.8,0-.957.08-.957.558V17.321H36.948c-.878,0-2.713-.08-4.149-.16a.569.569,0,0,0-.638.558c0,.16.08.319,1.436,1.755a35.441,35.441,0,0,1,5.026-.319h6.3V31.762H34.873c-.718,0-2.314-.08-3.51-.16a.569.569,0,0,0-.638.558c0,.16.08.319,1.356,1.675,1.755-.16,3.59-.239,5.345-.239H39.74c.479,12.526,1.6,19.387,5.345,25.37-7.1,8.7-14.2,13.084-22.179,15.318-1.915.558-1.995.558-1.995.957,0,.239.239.4.718.4A50.172,50.172,0,0,0,32.32,73.567,54.451,54.451,0,0,0,49.394,65.03c5.266,6.3,12.845,10.77,16.914,10.77a2.318,2.318,0,0,0,2.074-1.516,15.107,15.107,0,0,1,7.739-6.462c1.277-.479,1.516-.638,1.516-.957,0-.239-.4-.479-3.111-1.117A46.908,46.908,0,0,1,57.053,58.01c4.707-5.744,7.819-11.808,11.09-20.424,1.755-.8,2.952-1.516,2.952-2.314,0-1.117-.638-1.835-4.388-5.026-2.314-1.995-3.75-2.792-4.707-2.792a2.868,2.868,0,0,0-2.074,1.277c-1.277,1.6-2.074,2.553-2.473,3.032ZM57.93,33.6c-1.995,7.659-3.83,12.765-7.9,19.148-5.824-6.143-7.5-11.249-8.616-19.148ZM24.183,22.906h7.18c1.356,0,2.074-.479,2.074-1.277S32.719,19.316,31.2,17c-1.117-1.755-1.835-2.393-2.473-2.393-.718,0-1.2.479-1.835,1.835l-2.314,4.548h-.4V8.784c1.675-.878,2.154-1.436,2.154-2.154,0-.957-1.037-1.755-3.191-2.314a60.253,60.253,0,0,0-7.5-1.2.587.587,0,0,0-.638.638l.08,17.233H7.429A30.989,30.989,0,0,1,4,20.752a.569.569,0,0,0-.638.558c0,.16.08.319,1.2,1.755a44.84,44.84,0,0,1,4.627-.16h5.984V38.942l-3.111.638c-2.633.558-3.83.8-8.776,1.675C4,44.925,4.955,48.915,5.514,50.59s1.037,2.234,1.915,2.234c.8,0,1.436-.558,2.234-1.915,2.473-1.516,3.67-2.314,5.5-3.51V60.722c0,4.069-.16,4.946-.878,5.664a3.631,3.631,0,0,1-2.553.8c-3.111,0-5.106-.239-5.585-.239-.319,0-.4.08-.4.239s.16.319.878.878a36.936,36.936,0,0,1,2.952,2.553c1.277,1.117,1.835,2.074,1.835,2.952,0,2.154,1.516,2.553,3.111,2.553a9.834,9.834,0,0,0,7.1-2.633,8.7,8.7,0,0,0,2.792-6.622l-.16-24.333c3.032-2.154,5.026-3.431,6.861-4.548,2.393-1.436,3.271-2.234,3.271-2.633a.449.449,0,0,0-.479-.4,9.036,9.036,0,0,0-1.835.479c-1.675.479-3.271.878-7.819,1.915Z" transform="translate(480.72 5650.88)" fill="#d9d9d9"/><path d="M17.34,18.735c2.283-2.587,5.783-6.62,8.522-9.815,2.511-.989,3.12-1.446,3.12-2.511,0-.989-.685-1.826-3.424-2.663-1.978-.533-5.174-1.065-9.511-1.826-.913,4.641-2.054,10.12-3.8,16.587L2.96,18.05c.38,2.283,1.141,5.783,1.75,7.989.533,1.826.837,2.359,1.826,2.359A6.991,6.991,0,0,0,9.808,27.1c7.3-1.75,9.891-2.511,19.63-5.478a12.676,12.676,0,0,1,.38,1.446,18.546,18.546,0,0,0,.457,1.978,3.7,3.7,0,0,0,3.8,2.511c3.272,0,5.174-2.054,5.174-5.022,0-2.815-1.6-5.478-4.793-7.3-2.207-1.293-7.457-2.967-9.283-2.967-.3,0-.533.152-.533.3s.152.3.837.989A11.264,11.264,0,0,1,28.83,19.04Zm-.38,13.543c-.228-.761-1.293-1.293-3.5-1.826a39.861,39.861,0,0,0-5.174-1.141c-.3,0-.38.228-.38.457,0,1.978.076,4.185.076,6.163.076,2.967.076,5.1.076,7,0,3.8-.152,5.935-.228,10.728-.076,2.13-.076,4.261-.152,6.391-.152,4.87-.3,7.533-.3,8.446,0,2.13.457,2.587,2.739,2.587a9.862,9.862,0,0,0,5.022-1.37c.913-.533.989-1.6.989-4.033l-.076-12.63H26.7v7.761c0,2.587-.761,3.043-5.4,3.043-.533,0-1.217-.076-1.75-.076-.38,0-.457.076-.457.3,0,.152.228.3.533.457,2.815,1.446,4.109,2.891,4.413,5.1.228,1.826,1.065,2.283,2.891,2.283a10.187,10.187,0,0,0,7-2.587A6.913,6.913,0,0,0,35.6,64.311c0-.761,0-2.054-.076-3.5C35.449,57.387,35.3,43.235,35.3,37c1.75-1.217,2.054-1.522,2.054-2.054,0-.989-.989-2.13-3.2-3.652-1.978-1.37-3.5-2.13-4.337-2.13-.685,0-1.065.3-2.359,1.826-.609.685-.761.837-1.141,1.293ZM26.7,42.094H16.047V36.311c0-1.75.228-1.826.609-2.054a3.71,3.71,0,0,1,.533-.228h9.054c.457.152.457.989.457,2.054Zm0,1.6v7.761H16.047V43.692ZM48.917,20.181c5.707-1.446,9.511-2.663,17.043-5.174,2.967-.076,4.109-.609,4.109-1.826,0-1.75-2.207-3.5-9.511-7.761-4.413,5.174-7.685,8.978-11.641,12.174.152-5.326.152-5.326.228-9.283,1.674-.837,2.207-1.293,2.207-2.054,0-.609-.3-.913-1.141-1.37-1.293-.685-6.543-1.522-9.283-1.522-.38,0-.533.152-.533.457,0,1.141.076,2.283.076,3.424V19.724l-.076,9.663c0,2.815,1.522,4.413,4.87,5.1a62.132,62.132,0,0,0,11.185.685c6.087,0,9.967-.076,12.022-.685,3.272-.989,4.717-2.967,4.717-5.478a3.428,3.428,0,0,0-.837-2.359c-1.446-1.446-1.522-1.674-1.522-2.967a28.979,28.979,0,0,1,.533-4.261c.457-2.587.457-2.587.457-2.739a.52.52,0,0,0-.533-.533c-.3,0-.38.152-.837,1.065-1.522,3.424-3.652,6.239-4.793,7.076C63.3,25.963,59.112,26.5,53.71,26.5c-2.207,0-3.348-.152-4.033-.609s-.761-.913-.761-2.739Zm0,33.326c5.1-.913,13.011-2.587,18.033-3.8,2.891,0,4.261-.685,4.261-2.054,0-1.522-2.815-4.109-8.6-7.913-5.554,5.935-10.043,9.359-13.7,11.413.076-2.663.076-5.554.152-9.207,2.207-1.293,2.435-1.522,2.435-2.207q0-.8-1.141-1.37c-1.293-.685-6.62-1.522-9.359-1.522-.38,0-.533.152-.533.533l.076,13.7-.152,11.87c-.076,5.022.685,7.228,3.652,8.065,2.435.685,6.543.837,13.467.837a72.056,72.056,0,0,0,10.424-.609c3.728-.533,5.4-2.739,5.4-5.326a4.226,4.226,0,0,0-.685-2.663c-1.065-1.293-1.826-1.978-1.75-3.2.076-1.065.457-4.337.761-6.391a9.541,9.541,0,0,0,.152-1.141c0-.3-.152-.533-.38-.533-.3,0-.457.3-.837,1.141A20.031,20.031,0,0,1,65.427,60.2a13.66,13.66,0,0,1-4.337,1.9,30.886,30.886,0,0,1-6.848.761c-4.185,0-5.326-.533-5.326-2.587Z" transform="translate(482.04 5746.08)" fill="#d9d9d9"/></g></svg>