<svg xmlns="http://www.w3.org/2000/svg" width="255.388" height="147.14" viewBox="0 0 255.388 147.14"><path d="M21.6-65.93a17.919,17.919,0,0,1,8.434,1.835,12.746,12.746,0,0,1,4.918,4.633,18.815,18.815,0,0,1,2.3,6.049,35.076,35.076,0,0,1,.673,6.125l.007.228L25.118-45.478l-.008-.275a25.2,25.2,0,0,0-.786-6.8,3.1,3.1,0,0,0-3.2-2.393,3.153,3.153,0,0,0-2.7,1.565,6.107,6.107,0,0,0-.89,3.225c0,4.729,2.437,7.209,6.154,10.452l5.361,4.721a32.14,32.14,0,0,1,7.191,8.222A22.13,22.13,0,0,1,39.21-15.36,16.411,16.411,0,0,1,34.526-3.573,15.83,15.83,0,0,1,29.095-.063,19.4,19.4,0,0,1,22,1.21c-6.294,0-10.846-1.623-13.914-4.961C4.98-7.129,3.353-12.311,3.11-19.592L3.1-19.814,15.845-21.73l.005.285c.078,4.1.576,6.977,1.522,8.8A4.082,4.082,0,0,0,21.28-10.17c2.223,0,3.35-1.5,3.35-4.47,0-5.145-2.472-8.232-7.032-12.13L12-31.652a26.683,26.683,0,0,1-6.273-7.124A19.451,19.451,0,0,1,3.19-48.72a20.083,20.083,0,0,1,1.28-7.365,14.375,14.375,0,0,1,3.682-5.409,15.881,15.881,0,0,1,5.808-3.314A24.459,24.459,0,0,1,21.6-65.93ZM37.422-47.5c-.183-5.02-1.13-8.849-2.895-11.7-2.56-4.135-6.91-6.232-12.927-6.232-11.382,0-17.91,6.091-17.91,16.71,0,8.327,4.363,13.109,8.631,16.688l5.6,4.883a26.662,26.662,0,0,1,5.257,5.615A12.329,12.329,0,0,1,25.13-14.64c0,3.251-1.331,4.97-3.85,4.97a4.592,4.592,0,0,1-4.352-2.745c-.96-1.849-1.475-4.709-1.572-8.736L3.618-19.386c.264,7.039,1.847,12.044,4.836,15.3C11.422-.86,15.853.71,22,.71,31.839.71,38.71-5.9,38.71-15.36c0-9.416-5.051-15.015-9.993-19.25l-5.363-4.722a24.873,24.873,0,0,1-4.573-4.8A10.455,10.455,0,0,1,17.03-50.16a6.618,6.618,0,0,1,.97-3.5,3.605,3.605,0,0,1,3.12-1.795A3.579,3.579,0,0,1,24.8-52.723a23.357,23.357,0,0,1,.806,6.682ZM147.44-65.93c7.185,0,12.249,1.857,15.481,5.679,2.94,3.476,4.369,8.635,4.369,15.771V-20.4c0,7.152-1.429,12.337-4.368,15.85a14.68,14.68,0,0,1-6.154,4.285A26.426,26.426,0,0,1,147.44,1.21a26.087,26.087,0,0,1-9.269-1.475,14.529,14.529,0,0,1-6.1-4.285c-2.905-3.507-4.317-8.692-4.317-15.849V-44.48c0-7.142,1.413-12.3,4.318-15.771C135.269-64.072,140.3-65.93,147.44-65.93Zm0,66.64c7.018,0,11.957-1.825,15.1-5.58,2.861-3.42,4.252-8.5,4.252-15.53V-44.48c0-14.489-5.968-20.95-19.35-20.95-6.986,0-11.889,1.8-14.988,5.5-2.827,3.376-4.2,8.43-4.2,15.45V-20.4c0,7.037,1.375,12.117,4.2,15.531C135.562-1.115,140.465.71,147.44.71ZM239.2-65.93a26.621,26.621,0,0,1,9.09,1.391,14.44,14.44,0,0,1,5.947,3.943c2.808,3.17,4.173,7.708,4.173,13.876v4.41h-14.5v-5.53c0-4.109-.342-7.51-4.55-7.51-4.346,0-4.71,3.908-4.71,7.91v30a12.437,12.437,0,0,0,1,5.654A4.235,4.235,0,0,0,239.76-9.45c3.55,0,5.35-2.742,5.35-8.15v-7.35h-5.84v-8.9h19.22V.25h-9.905l-.717-4.8C245.754-.677,242.361,1.21,237.52,1.21a20.415,20.415,0,0,1-8.55-1.644A13.759,13.759,0,0,1,223.4-5.086c-2.614-3.723-3.885-9.072-3.885-16.354V-43.2c0-7.457,1.381-12.872,4.222-16.553a14.536,14.536,0,0,1,6.092-4.581A24.793,24.793,0,0,1,239.2-65.93Zm18.71,23.12v-3.91c0-6.04-1.324-10.47-4.047-13.544-3.079-3.476-7.876-5.166-14.663-5.166-7.035,0-11.965,1.957-15.072,5.983-2.771,3.59-4.118,8.9-4.118,16.247v21.76c0,7.175,1.241,12.431,3.795,16.066C226.68-1.28,231.166.71,237.52.71c4.912,0,8.266-2.021,10.254-6.178l.352-.737.889,5.954h8.975v-33.1H239.77v7.9h5.84v7.85a12.585,12.585,0,0,1-1.181,5.97,4.966,4.966,0,0,1-4.669,2.68c-5.028,0-5.61-4.845-5.61-8.49v-30a15.072,15.072,0,0,1,.76-5.648,4.423,4.423,0,0,1,1.578-2,5.063,5.063,0,0,1,2.872-.766c2.147,0,3.556.817,4.308,2.5a14.38,14.38,0,0,1,.742,5.512v5.03ZM41.75-65.05H76.09v11.14H66.41V.25H51.51V-53.91H41.75Zm33.84.5H42.25v10.14h9.76V-.25h13.9V-54.41h9.68Zm5.68-.5H99.36c7.3,0,12.317,1.113,15.792,3.5,4.023,2.768,5.978,7.3,5.978,13.866,0,4.5-.488,7.618-1.581,10.12a11.792,11.792,0,0,1-2.474,3.669,13.88,13.88,0,0,1-3.817,2.665L122.171.25H106.844L106.8.06,99.724-28.79H96.09V.25H81.27ZM121.509-.25,112.662-31.5l.191-.091c6.476-3.076,7.777-8.439,7.777-16.094,0-6.386-1.885-10.787-5.762-13.454-3.387-2.331-8.315-3.416-15.508-3.416H81.77V-.25H95.59V-29.29h4.526l.047.19L107.236-.25Zm54-64.8h10.5L198.87-34.826V-65.05h12.34V.25h-10.1l-.062-.158-12.8-32.379V.25H175.51Zm10.165.5H176.01V-.25h11.74V-33.6l.482-.092L201.45-.25h9.26v-64.3H199.37V-33.6l-.48.1Zm-38.235,8.7a4.388,4.388,0,0,1,4.385,2.5A12.977,12.977,0,0,1,152.65-48v31.2a12.856,12.856,0,0,1-.824,5.287A4.439,4.439,0,0,1,147.44-8.95a4.246,4.246,0,0,1-4.308-2.568,13.548,13.548,0,0,1-.742-5.282V-48a13.229,13.229,0,0,1,.834-5.347A4.28,4.28,0,0,1,147.44-55.85Zm0,46.4a3.929,3.929,0,0,0,3.934-2.277,12.435,12.435,0,0,0,.776-5.073V-48a12.562,12.562,0,0,0-.775-5.132,3.929,3.929,0,0,0-3.935-2.218c-4,0-4.55,3.533-4.55,7.35v31.2a13.2,13.2,0,0,0,.7,5.078A3.788,3.788,0,0,0,147.44-9.45Zm-51.85-46h4.89c2.712,0,4.61.8,5.8,2.433,1.07,1.468,1.568,3.571,1.568,6.617,0,3.184-.534,5.368-1.681,6.872-1.282,1.681-3.353,2.5-6.329,2.5H95.59Zm4.25,17.92c2.81,0,4.75-.753,5.931-2.3,1.077-1.412,1.579-3.5,1.579-6.568,0-5.993-2.055-8.55-6.87-8.55H96.09v17.42Zm-30.8,51.6c7.185,0,12.249,1.857,15.481,5.679,2.94,3.476,4.369,8.635,4.369,15.771V59.6c0,7.152-1.429,12.337-4.368,15.85a14.68,14.68,0,0,1-6.154,4.285A26.426,26.426,0,0,1,69.04,81.21a26.088,26.088,0,0,1-9.269-1.475,14.529,14.529,0,0,1-6.1-4.285C50.762,71.942,49.35,66.758,49.35,59.6V35.52c0-7.142,1.413-12.3,4.318-15.77C56.869,15.928,61.9,14.07,69.04,14.07Zm0,66.64c7.018,0,11.957-1.825,15.1-5.58C87,71.709,88.39,66.63,88.39,59.6V35.52c0-14.489-5.968-20.95-19.35-20.95-6.986,0-11.889,1.8-14.988,5.5-2.827,3.376-4.2,8.43-4.2,15.449V59.6c0,7.037,1.375,12.117,4.2,15.531C57.162,78.885,62.065,80.71,69.04,80.71ZM4.55,14.95H26.56c5.76,0,10.153,1.677,13.058,4.985,2.808,3.2,4.232,7.93,4.232,14.065a26.071,26.071,0,0,1-1.468,9.288,13.575,13.575,0,0,1-4.054,5.755,15.155,15.155,0,0,1-6.041,2.9,30.385,30.385,0,0,1-7.407.791H19.37V80.25H4.55ZM24.88,52.23c8.6,0,18.47-2.072,18.47-18.23,0-6.01-1.382-10.631-4.108-13.735C36.437,17.07,32.17,15.45,26.56,15.45H5.05v64.3H18.87V52.23ZM97.19,14.95h14.82v65.3H97.19Zm14.32.5H97.69v64.3h13.82Zm9.68-.5h10.5L144.55,45.174V14.95h12.34v65.3h-10.1l-.062-.158-12.8-32.379V80.25H121.19Zm10.165.5H121.69v64.3h11.74V46.4l.482-.092L147.13,79.75h9.26V15.45H145.05V46.4l-.48.1Zm30.8-.5h34.34V26.09h-9.68V80.25h-14.9V26.09h-9.76Zm33.84.5H162.65V25.59h9.76V79.75h13.9V25.59h9.68ZM69.04,24.15a4.388,4.388,0,0,1,4.385,2.5A12.977,12.977,0,0,1,74.25,32V63.2a12.856,12.856,0,0,1-.824,5.287A4.439,4.439,0,0,1,69.04,71.05a4.246,4.246,0,0,1-4.308-2.568A13.548,13.548,0,0,1,63.99,63.2V32a13.229,13.229,0,0,1,.834-5.347A4.28,4.28,0,0,1,69.04,24.15Zm0,46.4a3.929,3.929,0,0,0,3.934-2.277A12.434,12.434,0,0,0,73.75,63.2V32a12.562,12.562,0,0,0-.775-5.132A3.929,3.929,0,0,0,69.04,24.65c-4,0-4.55,3.533-4.55,7.35V63.2a13.2,13.2,0,0,0,.7,5.078A3.788,3.788,0,0,0,69.04,70.55ZM18.87,25.03h4.97c6.076,0,6.57,3.954,6.57,8.73,0,3.429-.341,5.374-1.178,6.712-.963,1.54-2.651,2.257-5.312,2.257H18.87Zm5.05,17.2c2.506,0,4.014-.624,4.888-2.023.783-1.252,1.1-3.12,1.1-6.447,0-2.55-.165-4.537-.967-5.946-.887-1.558-2.509-2.284-5.1-2.284H19.37v16.7Z" transform="translate(-3.103 65.93)" fill="#767676"/></svg>