<svg xmlns="http://www.w3.org/2000/svg" width="359.375" height="130.376" viewBox="0 0 359.375 130.376">
  <g id="グループ_3003" data-name="グループ 3003" transform="translate(-2261.968 -682.344)">
    <path id="パス_1162" data-name="パス 1162" d="M44.5-11.16a3.648,3.648,0,0,1,.5-1.08,2.192,2.192,0,0,1,.936-.648A2.025,2.025,0,0,0,47.16-14.4a17.654,17.654,0,0,0,.144-1.944A14.761,14.761,0,0,0,46.3-21.96a11.432,11.432,0,0,0-2.736-4.032,11.8,11.8,0,0,1-1.656-1.8,3.888,3.888,0,0,1-.72-1.584,3.409,3.409,0,0,1,.216-1.656,11.378,11.378,0,0,1,1.08-2.016,16.164,16.164,0,0,0,1.728-3.744,15.581,15.581,0,0,0,.576-4.032A12.269,12.269,0,0,0,43.2-47.232a.626.626,0,0,0-.864-.288.64.64,0,0,1-.936-.216,12.972,12.972,0,0,0-7.2-4.608,40.035,40.035,0,0,0-10.512-1.3H7.56a2.573,2.573,0,0,0-1.872.648,2.606,2.606,0,0,0-.72,1.944V-32.04c0,.5.216.576.576.36.36-.144.576,0,.576.432V-3.1a2.342,2.342,0,0,0,.72,1.872A2.342,2.342,0,0,0,8.712-.5h6.624c.864,0,.936.144.144.5s-.792.5.072.5h8.5a32.337,32.337,0,0,0,7.128-.72A22.706,22.706,0,0,0,37.3-2.3,15.279,15.279,0,0,0,41.9-5.976,12.581,12.581,0,0,0,44.5-11.16ZM19.008-35.208v-1.656c0-.432-.216-.576-.576-.432-.36.216-.576.144-.576-.36v-3.528a2.606,2.606,0,0,1,.72-1.944,2.573,2.573,0,0,1,1.872-.648h2.736c2.808,0,4.9.432,6.12,1.368a.884.884,0,0,0,1.08.144.712.712,0,0,1,1.008.288,5.09,5.09,0,0,1,.864,3.1,5.655,5.655,0,0,1-1.872,4.392c-1.3,1.08-3.312,1.656-6.048,1.656H21.384a2.335,2.335,0,0,1-1.728-.648A2.335,2.335,0,0,1,19.008-35.208Zm0,22.248v-7.848a2.606,2.606,0,0,1,.72-1.944A2.573,2.573,0,0,1,21.6-23.4h3.816c3.168,0,5.544.5,7.056,1.44a5.167,5.167,0,0,1,2.3,4.752c0,4.536-3.1,6.84-9.36,6.84H21.6a2.342,2.342,0,0,1-1.872-.72A2.342,2.342,0,0,1,19.008-12.96ZM103.68-27.936a33.827,33.827,0,0,0-1.944-11.952,25.129,25.129,0,0,0-5.4-8.784c-.144-.144-.072-.288.144-.36s.216-.216,0-.36a22.019,22.019,0,0,0-7.416-4.68,25.672,25.672,0,0,0-9.288-1.584,27.32,27.32,0,0,0-9.288,1.512A21.479,21.479,0,0,0,63-49.536a23.06,23.06,0,0,0-5.112,7.416,30.473,30.473,0,0,0-2.52,10.08.482.482,0,0,1-.288.5.541.541,0,0,0-.36.5,10.634,10.634,0,0,0-.072,1.512,11.665,11.665,0,0,0-.072,1.584A36.059,36.059,0,0,0,56.16-16.92a24.47,24.47,0,0,0,4.608,8.928,21.813,21.813,0,0,0,7.7,5.976A24.474,24.474,0,0,0,79.128.144,24.434,24.434,0,0,0,90-2.16a22.187,22.187,0,0,0,7.7-6.12,26.141,26.141,0,0,0,4.536-8.928A40.205,40.205,0,0,0,103.68-27.936Zm-35.928,0a25.361,25.361,0,0,1,1.44-9.144.968.968,0,0,1,.432-.5h.144a.968.968,0,0,0,.432-.5,10.755,10.755,0,0,1,3.888-4.9,10.148,10.148,0,0,1,5.688-1.656,10.484,10.484,0,0,1,3.744.648c.072.072.144.072.144.144s-.072.072-.144.072c-.216.072-.216.216,0,.288a11,11,0,0,1,5.256,5.544,23.932,23.932,0,0,1,1.8,10.008,29.573,29.573,0,0,1-.792,6.984,18.453,18.453,0,0,1-2.232,5.4,10.684,10.684,0,0,1-3.6,3.384,9.8,9.8,0,0,1-4.824,1.224,9.33,9.33,0,0,1-4.752-1.224,9.876,9.876,0,0,1-3.528-3.384,16.76,16.76,0,0,1-2.3-5.4A29.573,29.573,0,0,1,67.752-27.936ZM119.664-1.224l2.088-8.424a2.422,2.422,0,0,1,.936-1.44,2.327,2.327,0,0,1,1.584-.5H136.08a2.657,2.657,0,0,1,1.656.5,2.692,2.692,0,0,1,.864,1.44l2.088,8.424a2.654,2.654,0,0,0,.936,1.44,2.327,2.327,0,0,0,1.584.5H151.2a2.575,2.575,0,0,0,2.3-.936,2.681,2.681,0,0,0,.216-2.376L138.672-51.12a3.332,3.332,0,0,0-.936-1.3,2.537,2.537,0,0,0-1.512-.5H124.56a2.2,2.2,0,0,0-1.44.5,2.9,2.9,0,0,0-1.008,1.3L107.064-2.592a2.681,2.681,0,0,0,.216,2.376,2.575,2.575,0,0,0,2.3.936h7.56a2.657,2.657,0,0,0,1.656-.5A2.988,2.988,0,0,0,119.664-1.224Zm5.616-22.608.576-2.232c.36-1.368.72-2.736,1.08-4.176s.72-2.88,1.08-4.392q.972-3.888,2.16-3.888c.72,0,1.44,1.3,2.088,3.816.36,1.512.792,3.024,1.152,4.464s.72,2.808,1.08,4.176l.576,2.232a1.659,1.659,0,0,1-.216,1.656,1.86,1.86,0,0,1-1.512.648H127.08a1.913,1.913,0,0,1-1.584-.648A1.659,1.659,0,0,1,125.28-23.832ZM198.432-3.24l-3.1-5.472a2.069,2.069,0,0,1-.216-1.584,1.642,1.642,0,0,1,.936-1.152l.432-.144a2.1,2.1,0,0,0,1.008-1.224,2.3,2.3,0,0,0-.288-1.512l-3.168-5.616a2.956,2.956,0,0,1-.288-2.16,3.507,3.507,0,0,1,1.3-1.656,14.662,14.662,0,0,0,5.04-5.616,18.272,18.272,0,0,0,1.8-8.5,19.886,19.886,0,0,0-.792-5.76,13.9,13.9,0,0,0-2.16-4.392.775.775,0,0,0-1.08-.288.978.978,0,0,1-1.08-.216,15.975,15.975,0,0,0-7.344-4.464,38.385,38.385,0,0,0-9.792-1.224H162.576a2.572,2.572,0,0,0-1.872.648,2.606,2.606,0,0,0-.72,1.944v18.936q0,.756.648.432c.432-.216.648,0,.648.5V-3.744A2.342,2.342,0,0,0,162-1.872a2.342,2.342,0,0,0,1.872.72H171.5a1.406,1.406,0,0,0,.5-.072.609.609,0,0,0,.432-.144l.648-.216a1.683,1.683,0,0,0,1.08-1.584V-17.424a2.606,2.606,0,0,1,.72-1.944,2.572,2.572,0,0,1,1.872-.648h2.016a2.384,2.384,0,0,1,2.3,1.368l4.752,9.072a1.786,1.786,0,0,1-.792,2.736l-.432.144a1.642,1.642,0,0,0-.936,1.152,2.419,2.419,0,0,0,.144,1.584l1.656,3.168a2.384,2.384,0,0,0,2.3,1.368H196.2c1.368,0,2.232-.36,2.664-1.08C199.224-1.152,199.08-2.088,198.432-3.24ZM174.168-32.76v-4.68c0-.36-.144-.5-.5-.5l-.288.144c-.36,0-.5-.144-.5-.5v-3.1a2.606,2.606,0,0,1,.72-1.944,2.573,2.573,0,0,1,1.872-.648h3.168a15.046,15.046,0,0,1,5.976.936,1.985,1.985,0,0,0,1.3,0,1.217,1.217,0,0,1,1.224.072c1.512,1.08,2.232,2.736,2.232,5.112a7.039,7.039,0,0,1-2.376,5.76c-1.656,1.3-3.96,1.944-7.056,1.944H176.76a2.342,2.342,0,0,1-1.872-.72A2.342,2.342,0,0,1,174.168-32.76ZM248.04-11.016a5.044,5.044,0,0,1,.576-.72,1.918,1.918,0,0,1,.72-.432l.936-.432a3,3,0,0,0,1.3-1.224,35.6,35.6,0,0,0,1.944-6.264,35.706,35.706,0,0,0,.72-7.632,34.69,34.69,0,0,0-1.656-11.16,21.933,21.933,0,0,0-4.68-7.992c-.36-.36-.288-.648.216-.792.432-.216.5-.432.144-.792a22.431,22.431,0,0,0-8.568-4.9,39.4,39.4,0,0,0-11.3-1.512H215.568a2.573,2.573,0,0,0-1.872.648,2.606,2.606,0,0,0-.72,1.944v18.864a.992.992,0,0,1-.648.936,1.086,1.086,0,0,0-.648,1.008V-3.24a2.342,2.342,0,0,0,.72,1.872,2.342,2.342,0,0,0,1.872.72h6.408c.936,0,1.008.216.144.576-.936.36-.864.576.072.576h4.248A31.587,31.587,0,0,0,238.824-2.3,20.687,20.687,0,0,0,248.04-11.016Zm-23.472-.864V-36.792a1.019,1.019,0,0,1,.648-1.008,1.019,1.019,0,0,0,.648-1.008v-4.9a.764.764,0,0,1,.864-.864h.864a18.726,18.726,0,0,1,7.92,1.512q.756.324,0,.648c-.5.216-.5.432-.072.648a12.219,12.219,0,0,1,4.1,5.112,21.906,21.906,0,0,1,1.512,8.928,24.742,24.742,0,0,1-1.08,7.92,13,13,0,0,1-3.024,5.184,11.032,11.032,0,0,1-4.68,2.736,19.646,19.646,0,0,1-5.976.864h-.864A.764.764,0,0,1,224.568-11.88Z" transform="translate(2257 738)" fill="#ddd" style="mix-blend-mode: screen;isolation: isolate"/>
    <path id="パス_1161" data-name="パス 1161" d="M16.416,71.784a12.272,12.272,0,0,0,.36-2.952V53.568c0-1.224-.072-2.592-.144-4.1-.144-1.44-.288-2.952-.432-4.464-.216-1.512-.36-3.1-.576-4.608s-.36-2.88-.5-4.176a1.4,1.4,0,0,1-.072-.576q-.108-.216,0-.216c.072,0,.144.072.216.144l.216.36c.072.072.072.144.144.216a.433.433,0,0,1,.072.288l4.032,11.376,6.624,17.928a2.188,2.188,0,0,0,.864.936A1.25,1.25,0,0,0,28.44,66.6l1.08-.36a2.3,2.3,0,0,1,1.008-.216l4.752.072a2.2,2.2,0,0,0,1.44-.5,2.813,2.813,0,0,0,1.008-1.224l.216-.72c.36-.864.144-1.152-.792-.936l-.288.144c-.936.216-1.152-.072-.792-.936l5.184-14.112L45.72,34.992h.36c-.216,1.3-.36,2.736-.576,4.32-.216,1.656-.36,3.24-.5,4.9-.216,1.656-.36,3.312-.432,4.9-.144,1.656-.216,3.1-.216,4.464v4.608c0,.936.432,1.3,1.368,1.08l.288-.144c.936-.216,1.368.144,1.368,1.08V68.04a2.469,2.469,0,0,0,2.592,2.592H56.52a2.606,2.606,0,0,0,1.944-.72,2.573,2.573,0,0,0,.648-1.872v-13.1c0-.936-.432-1.3-1.368-1.08L57.456,54c-.936.216-1.368-.144-1.368-1.08l-.216-31.752a2.777,2.777,0,0,0-.72-2.016,2.606,2.606,0,0,0-1.944-.72H43.7a2.662,2.662,0,0,0-1.512.432,3.333,3.333,0,0,0-.936,1.3L33.912,41.472c-.5,1.512-1.008,3.1-1.44,4.752L30.96,51.192H30.6c-.5-1.656-1.008-3.312-1.44-4.968q-.756-2.484-1.512-4.752l-3.312-9c-.072-.144-.144-.216-.216-.144s-.216,0-.288-.144L19.512,20.16a2.521,2.521,0,0,0-2.448-1.728H7.56a2.572,2.572,0,0,0-1.872.648,2.606,2.606,0,0,0-.72,1.944l.288,48.312a2.342,2.342,0,0,0,.72,1.872,2.342,2.342,0,0,0,1.872.72h7.7A5.316,5.316,0,0,0,16.416,71.784Zm84.96-1.656V63.36a1.468,1.468,0,0,1,.936-1.44l.72-.288c.144,0,.216-.144.216-.36a.191.191,0,0,0-.216-.216H83.952a2.469,2.469,0,0,1-2.592-2.592V52.272a2.606,2.606,0,0,1,.72-1.944,2.573,2.573,0,0,1,1.872-.648H96.7a2.606,2.606,0,0,0,1.944-.72,2.573,2.573,0,0,0,.648-1.872V41.472A2.291,2.291,0,0,0,96.7,38.88H83.3a1.967,1.967,0,0,1-1.944-1.944v-.792a1.71,1.71,0,0,1,1.08-1.656,1.168,1.168,0,0,0,.792-.648,1.447,1.447,0,0,0,.288-.936V30.6a2.606,2.606,0,0,1,.72-1.944,2.573,2.573,0,0,1,1.872-.648h9.936c.36,0,.5.072.576.144,0,.072-.144.216-.5.288-.36.144-.5.288-.432.36,0,.072.144.144.5.144h4.752a1.336,1.336,0,0,0,1.512-1.512v-.36a1.71,1.71,0,0,1,1.08-1.656,1.168,1.168,0,0,0,.792-.648,1.447,1.447,0,0,0,.288-.936v-3.96a2.882,2.882,0,0,0-.648-1.944,2.882,2.882,0,0,0-1.944-.648h-28.8a2.573,2.573,0,0,0-1.872.648,2.606,2.606,0,0,0-.72,1.944V38.3a1.63,1.63,0,0,1-.936,1.512l-.288.144a1.5,1.5,0,0,0-.936,1.512V69.264a2.469,2.469,0,0,0,2.592,2.592h6.912c.576,0,.648.144.288.36l-.432.144c-.36.216-.288.36.288.36H98.784a2.291,2.291,0,0,0,2.592-2.592Zm23.544,1.656a12.272,12.272,0,0,0,.36-2.952V53.568c0-1.224-.072-2.592-.144-4.1-.144-1.44-.288-2.952-.432-4.464-.216-1.512-.36-3.1-.576-4.608s-.36-2.88-.5-4.176a1.4,1.4,0,0,1-.072-.576q-.108-.216,0-.216c.072,0,.144.072.216.144l.216.36c.072.072.072.144.144.216a.433.433,0,0,1,.072.288l4.032,11.376,6.624,17.928a2.188,2.188,0,0,0,.864.936,1.25,1.25,0,0,0,1.224-.072l1.08-.36a2.3,2.3,0,0,1,1.008-.216l4.752.072a2.2,2.2,0,0,0,1.44-.5,2.813,2.813,0,0,0,1.008-1.224l.216-.72c.36-.864.144-1.152-.792-.936l-.288.144c-.936.216-1.152-.072-.792-.936l5.184-14.112,4.464-12.816h.36c-.216,1.3-.36,2.736-.576,4.32-.216,1.656-.36,3.24-.5,4.9-.216,1.656-.36,3.312-.432,4.9-.144,1.656-.216,3.1-.216,4.464v4.608c0,.936.432,1.3,1.368,1.08l.288-.144c.936-.216,1.368.144,1.368,1.08V68.04a2.469,2.469,0,0,0,2.592,2.592h6.552a2.606,2.606,0,0,0,1.944-.72,2.573,2.573,0,0,0,.648-1.872v-13.1c0-.936-.432-1.3-1.368-1.08L165.96,54c-.936.216-1.368-.144-1.368-1.08l-.216-31.752a2.777,2.777,0,0,0-.72-2.016,2.606,2.606,0,0,0-1.944-.72h-9.5a2.662,2.662,0,0,0-1.512.432,3.333,3.333,0,0,0-.936,1.3l-7.344,21.312c-.5,1.512-1.008,3.1-1.44,4.752l-1.512,4.968h-.36c-.5-1.656-1.008-3.312-1.44-4.968q-.756-2.484-1.512-4.752l-3.312-9c-.072-.144-.144-.216-.216-.144s-.216,0-.288-.144l-4.32-12.024a2.521,2.521,0,0,0-2.448-1.728h-9.5a2.572,2.572,0,0,0-1.872.648,2.606,2.606,0,0,0-.72,1.944l.288,48.312a2.469,2.469,0,0,0,2.592,2.592h7.7A5.316,5.316,0,0,0,124.92,71.784ZM216.144,60.84a3.648,3.648,0,0,1,.5-1.08,2.192,2.192,0,0,1,.936-.648,2.025,2.025,0,0,0,1.224-1.512,17.652,17.652,0,0,0,.144-1.944,14.761,14.761,0,0,0-1.008-5.616,11.432,11.432,0,0,0-2.736-4.032,11.8,11.8,0,0,1-1.656-1.8,3.888,3.888,0,0,1-.72-1.584,3.409,3.409,0,0,1,.216-1.656,11.378,11.378,0,0,1,1.08-2.016,16.164,16.164,0,0,0,1.728-3.744,15.581,15.581,0,0,0,.576-4.032,12.269,12.269,0,0,0-1.584-6.408.626.626,0,0,0-.864-.288.64.64,0,0,1-.936-.216,12.972,12.972,0,0,0-7.2-4.608,40.035,40.035,0,0,0-10.512-1.3H179.208a2.572,2.572,0,0,0-1.872.648,2.606,2.606,0,0,0-.72,1.944V39.96c0,.5.216.576.576.36.36-.144.576,0,.576.432V68.9A2.469,2.469,0,0,0,180.36,71.5h6.624c.864,0,.936.144.144.5s-.792.5.072.5h8.5a32.337,32.337,0,0,0,7.128-.72,22.706,22.706,0,0,0,6.12-2.088,15.279,15.279,0,0,0,4.608-3.672A12.581,12.581,0,0,0,216.144,60.84ZM190.656,36.792V35.136c0-.432-.216-.576-.576-.432-.36.216-.576.144-.576-.36V30.816a2.606,2.606,0,0,1,.72-1.944,2.572,2.572,0,0,1,1.872-.648h2.736c2.808,0,4.9.432,6.12,1.368a.884.884,0,0,0,1.08.144.712.712,0,0,1,1.008.288,5.09,5.09,0,0,1,.864,3.1,5.655,5.655,0,0,1-1.872,4.392c-1.3,1.08-3.312,1.656-6.048,1.656h-2.952a2.23,2.23,0,0,1-2.376-2.376Zm0,22.248V51.192a2.606,2.606,0,0,1,.72-1.944,2.573,2.573,0,0,1,1.872-.648h3.816c3.168,0,5.544.5,7.056,1.44a5.167,5.167,0,0,1,2.3,4.752c0,4.536-3.1,6.84-9.36,6.84h-3.816a2.469,2.469,0,0,1-2.592-2.592ZM259.92,70.128V63.36a1.468,1.468,0,0,1,.936-1.44l.72-.288c.144,0,.216-.144.216-.36a.191.191,0,0,0-.216-.216H242.5a2.469,2.469,0,0,1-2.592-2.592V52.272a2.606,2.606,0,0,1,.72-1.944,2.573,2.573,0,0,1,1.872-.648H255.24a2.606,2.606,0,0,0,1.944-.72,2.572,2.572,0,0,0,.648-1.872V41.472a2.291,2.291,0,0,0-2.592-2.592H241.848a1.967,1.967,0,0,1-1.944-1.944v-.792a1.71,1.71,0,0,1,1.08-1.656,1.167,1.167,0,0,0,.792-.648,1.447,1.447,0,0,0,.288-.936V30.6a2.606,2.606,0,0,1,.72-1.944,2.572,2.572,0,0,1,1.872-.648h9.936c.36,0,.5.072.576.144,0,.072-.144.216-.5.288-.36.144-.5.288-.432.36,0,.072.144.144.5.144h4.752A1.336,1.336,0,0,0,261,27.432v-.36a1.71,1.71,0,0,1,1.08-1.656,1.167,1.167,0,0,0,.792-.648,1.447,1.447,0,0,0,.288-.936v-3.96a2.882,2.882,0,0,0-.648-1.944,2.882,2.882,0,0,0-1.944-.648h-28.8a2.572,2.572,0,0,0-1.872.648,2.606,2.606,0,0,0-.72,1.944V38.3a1.63,1.63,0,0,1-.936,1.512l-.288.144a1.5,1.5,0,0,0-.936,1.512V69.264a2.469,2.469,0,0,0,2.592,2.592h6.912c.576,0,.648.144.288.36l-.432.144c-.36.216-.288.36.288.36h20.664a2.291,2.291,0,0,0,2.592-2.592Zm51.408-1.368-3.1-5.472a2.069,2.069,0,0,1-.216-1.584,1.642,1.642,0,0,1,.936-1.152l.432-.144a2.1,2.1,0,0,0,1.008-1.224,2.3,2.3,0,0,0-.288-1.512l-3.168-5.616a2.956,2.956,0,0,1-.288-2.16,3.507,3.507,0,0,1,1.3-1.656,14.662,14.662,0,0,0,5.04-5.616,18.272,18.272,0,0,0,1.8-8.5,19.886,19.886,0,0,0-.792-5.76,13.9,13.9,0,0,0-2.16-4.392.775.775,0,0,0-1.08-.288.979.979,0,0,1-1.08-.216,15.975,15.975,0,0,0-7.344-4.464,38.385,38.385,0,0,0-9.792-1.224H275.472a2.572,2.572,0,0,0-1.872.648,2.606,2.606,0,0,0-.72,1.944V39.312q0,.756.648.432c.432-.216.648,0,.648.5V68.256a2.469,2.469,0,0,0,2.592,2.592H284.4a1.406,1.406,0,0,0,.5-.072.609.609,0,0,0,.432-.144l.648-.216a1.683,1.683,0,0,0,1.08-1.584V54.576a2.606,2.606,0,0,1,.72-1.944,2.573,2.573,0,0,1,1.872-.648h2.016a2.384,2.384,0,0,1,2.3,1.368l4.752,9.072a1.786,1.786,0,0,1-.792,2.736l-.432.144a1.642,1.642,0,0,0-.936,1.152,2.419,2.419,0,0,0,.144,1.584l1.656,3.168a2.384,2.384,0,0,0,2.3,1.368H309.1c1.368,0,2.232-.36,2.664-1.08C312.12,70.848,311.976,69.912,311.328,68.76ZM287.064,39.24V34.56c0-.36-.144-.5-.5-.5l-.288.144c-.36,0-.5-.144-.5-.5V30.6a2.606,2.606,0,0,1,.72-1.944,2.573,2.573,0,0,1,1.872-.648h3.168a15.046,15.046,0,0,1,5.976.936,1.985,1.985,0,0,0,1.3,0,1.217,1.217,0,0,1,1.224.072c1.512,1.08,2.232,2.736,2.232,5.112a7.039,7.039,0,0,1-2.376,5.76c-1.656,1.3-3.96,1.944-7.056,1.944h-3.168a2.469,2.469,0,0,1-2.592-2.592Zm73.224,21.744c.144-.36,0-.5-.36-.36-.36.216-.5.144-.432-.288a16.03,16.03,0,0,0,.576-4.032,14.356,14.356,0,0,0-2.808-9.216,19.156,19.156,0,0,0-7.776-5.472l-6.7-2.664q-2.16-.756-3.888-1.512a13.258,13.258,0,0,1-2.736-1.512c-.216-.216-.288-.36-.216-.576a.649.649,0,0,1,.432-.432c.432-.216.5-.576.288-1.08a4.914,4.914,0,0,1-.36-1.656,3.836,3.836,0,0,1,1.656-3.24,7.893,7.893,0,0,1,4.68-1.152,19.916,19.916,0,0,1,3.024.216,20.927,20.927,0,0,1,2.808.864c.5.216.576.5.072.72s-.576.5-.072.792a4.4,4.4,0,0,1,.864.36,4.371,4.371,0,0,0,.72.5,2.878,2.878,0,0,0,1.512.5,2.5,2.5,0,0,0,2.016-1.08l3.384-4.248a4.847,4.847,0,0,1,1.008-.792l.36-.072a5.437,5.437,0,0,0,1.008-.792l.144-.216a.936.936,0,0,0-.072-1.368,22.7,22.7,0,0,0-7.848-4.824,25.966,25.966,0,0,0-8.928-1.584A24.452,24.452,0,0,0,334.872,18a20.607,20.607,0,0,0-6.192,3.456,16.31,16.31,0,0,0-4.032,5.184,14.593,14.593,0,0,0-1.44,6.336,15.394,15.394,0,0,0,.36,3.24,16.012,16.012,0,0,0,.864,2.808q.324.864-.432,1.08c-.576.216-.72.576-.36,1.08a13.482,13.482,0,0,0,3.888,4.392,17,17,0,0,0,4.968,2.808l6.84,2.88a46.41,46.41,0,0,1,5.544,2.592,3.744,3.744,0,0,1,2.016,3.456A4,4,0,0,1,345.24,60.7a8.937,8.937,0,0,1-5.328,1.3,15.094,15.094,0,0,1-5.472-1.08,19.3,19.3,0,0,1-5.4-2.808,3.753,3.753,0,0,0-1.728-.576,2.523,2.523,0,0,0-2.016,1.008l-4.1,4.968a2.256,2.256,0,0,0-.648,1.8,2.457,2.457,0,0,0,.936,1.656,32.254,32.254,0,0,0,5.184,3.168,31.648,31.648,0,0,0,5.688,2.088,1.993,1.993,0,0,0,.648.072c.216-.072.36-.072.576-.144l.288-.144c.216-.072.432-.072.648-.144a1.585,1.585,0,0,1,.576.072,19.878,19.878,0,0,0,2.88.432c.936.072,1.872.144,2.808.144a26.676,26.676,0,0,0,7.056-.864,20.277,20.277,0,0,0,5.688-2.448A15.8,15.8,0,0,0,357.7,65.52,14.27,14.27,0,0,0,360.288,60.984Z" transform="translate(2261 740)" fill="#e0bd00" style="mix-blend-mode: screen;isolation: isolate"/>
  </g>
</svg>
