<?xml version="1.0" encoding="UTF-8"?>
<svg xmlns="http://www.w3.org/2000/svg" version="1.1" viewBox="0 0 449.55 101.72">
  <!-- Generator: Adobe Illustrator 28.6.0, SVG Export Plug-In . SVG Version: 1.2.0 Build 709)  -->
  <g>
    <g id="_レイヤー_1" data-name="レイヤー_1">
      <path id="_パス_1225" data-name="パス_1225" d="M9.83,73.89c-.77,2.87-1.66,3.65-2.54,3.65-2.76,0-7.29-2.87-7.29-6.41,0-5.85,19-37.66,36.11-59.53-13.58,1.32-25.62,2.54-28.16,2.54-2.14.12-3.97-1.52-4.09-3.67,0-.14,0-.28,0-.42,0-3.09.55-4.42,4.97-5.19C26.99,1.92,45.34.29,63.73,0c8.5,0,11.48.66,11.48,5.3,0,1.77-.55,3.86-2.43,3.86-5.96,0-15.24.66-24.85,1.43-12.48,16.35-34.35,53.68-38.1,63.29Z"/>
      <path id="_パス_1226" data-name="パス_1226" d="M38.54,73.55c-4.2,0-7.73-2.87-7.73-9.28,0-14.03,19.44-31.48,25.18-31.48,2.1,0,4.42,2.54,4.86,4.08,1.99,0,2.76,2.43,2.76,4.08-.14,3.88-1,7.7-2.54,11.27.53.33,1.15.48,1.77.44,7.07,0,13.36-7.95,14.58-7.95.55,0,1.66,1.11,1.66,3.2,0,3.75-8.17,12.15-17.89,12.15-1.31.04-2.62-.15-3.86-.55-4.97,7.84-12.26,14.03-18.78,14.03h0ZM51.35,50.91c.05-3.12.93-6.17,2.54-8.83-7.73,5.41-13.25,14.13-13.25,19.33,0,1.32.55,1.88,1.66,1.88,2.54,0,6.74-4.53,9.5-9.5-.33-.92-.48-1.89-.44-2.87Z"/>
      <path id="_パス_1227" data-name="パス_1227" d="M57.1,97.41c-1,3.42-2.21,4.31-4.31,4.31-3.2,0-4.75-3.97-4.75-5.74,0-6.96,11.27-24.4,22.2-42.96,20.1-34.13,19.55-35.56,23.3-35.56,1.99,0,4.08,1.54,4.08,3.42,0,2.43-3.31,6.85-8.06,14.91,3.42-2.76,6.74-4.53,9.39-4.53s5.3,2.76,5.3,7.07c0,11.38-14.25,35.23-25.73,35.23-2.76,0-5.52-2.65-6.74-5.52-4.64,8.73-9.61,18.55-14.69,29.38h0ZM93.43,43.18c0-1.22-.44-1.88-1.11-1.88-2.21,0-6.51,4.53-9.72,9.16-4.42,6.3-5.96,9.06-5.96,11.04,0,1,.44,1.88,2.1,1.88,4.97,0,14.69-15.24,14.69-20.21h0Z"/>
      <path id="_パス_1228" data-name="パス_1228" d="M167.64,68.81c-2.54,0-3.98-1.11-3.98-3.65,0-3.97,3.09-21.98,9.72-38.33-17.56,21.21-24.85,33.68-31.92,45.72-2.21,3.75-3.86,7.51-5.19,7.51-1.43,0-5.85-1-5.85-5.3,0-8.83,32.58-53.34,45.39-66.38,3.76-3.86,4.53-4.42,7.95-4.42,4.2,0,5.74,1.54,5.74,3.65,0,2.32-6.62,11.27-12.92,36.45C201.44,11.04,209.83.55,215.13.55c3.09,0,7.51,3.42,7.51,4.97,0,.44-.33,1-1.66,1.99-6.52,7.73-25.73,39.87-25.73,50.69,0,1.99.66,3.2,2.43,3.2,4.2,0,16.01-13.36,17.23-13.36.99,0,1.99,2.32,1.99,4.2,0,3.97-16.79,21.32-23.97,21.32-5.63,0-6.74-6.08-6.74-11.7,0-9.72,7.51-24.52,11.27-31.48-18.33,19-26.62,38.44-29.82,38.44h0Z"/>
      <path id="_パス_1229" data-name="パス_1229" d="M213.92,74.44c-2.87,0-6.74-4.75-6.74-10.71,0-13.7,20.87-29.49,26.4-29.49,2.05.16,3.81,1.5,4.53,3.42,1.99-2.32,3.2-3.09,4.53-3.09,1.85-.06,3.41,1.36,3.54,3.2,0,1.11-.77,2.21-3.65,6.08-4.42,5.85-10.05,12.92-10.05,16.68,0,1.11.44,2.98,2.21,2.98,6.4,0,20.1-15.46,21.32-15.46,1.11,0,1.99,2.54,1.99,4.2,0,3.54-16.9,21.32-26.17,21.32-3.65,0-6.08-3.75-6.08-10.27-4.53,7.29-9.28,11.16-11.82,11.16h0ZM230.71,43.63c-3.2,0-14.36,13.92-14.36,18.11-.08.53.28,1.02.81,1.1.06,0,.13.01.19,0,2.98,0,10.93-11.6,13.14-14.8.57-.92,1.2-1.8,1.88-2.65-.33-1.21-1.11-1.77-1.66-1.77h0Z"/>
      <path id="_パス_1231" data-name="パス_1231" d="M295.57,48.49c-.29,2.23-.44,4.48-.44,6.74,0,4.97,1,8.28,4.31,8.28,6.41,0,19.99-15.46,21.32-15.46.88,0,1.99,2.32,1.99,4.2,0,3.65-16.24,21.32-26.73,21.32-3.54,0-7.95-2.43-7.95-12.26.01-2.94.35-5.86,1-8.73-.78.41-1.51.89-2.21,1.43-3.31,5.96-6.85,12.48-10.27,19.55-1.22,2.54-2.1,3.54-4.2,3.54-3.2,0-3.65-2.32-3.65-3.75,0-4.53,7.4-17.89,18.55-36,15.57-25.07,18.66-29.49,21.87-29.49,1.22,0,2.54,1.43,2.54,3.09,0,2.32-7.95,13.7-18.66,32.14,8.73-5.74,18.44-11.6,22.86-11.6,1.22,0,1.77.88,1.77,2.87,0,3.76-1.22,5.41-2.65,5.41-.41,0-.83-.07-1.22-.22-4.64,1.54-10.93,4.64-18.22,8.94h0Z"/>
      <path id="_パス_1232" data-name="パス_1232" d="M328.81,65.16c12.7,0,25.84-17.12,27.61-17.12.88,0,1.99,1.99,1.99,4.2,0,4.31-18,21.32-31.14,21.32-9.16,0-14.03-6.3-14.03-12.7,0-12.92,16.79-28.71,26.17-28.71,3.42.2,6.06,3.09,5.96,6.51,0,7.4-11.82,21.32-19.33,21.32-1.62.06-3.22-.32-4.64-1.11,0,4.08,3.09,6.3,7.4,6.3h0ZM324.95,54.78c2.54,0,5.41-3.31,8.06-6.4,2.43-2.87,4.08-5.74,4.08-6.85,0-1.32-.66-1.66-1.43-1.66-1.99,0-10.05,7.07-13.14,14.24.73.45,1.57.68,2.43.66h0Z"/>
      <path id="_パス_1233" data-name="パス_1233" d="M359.07,60.41c0,1.54.66,2.54,2.21,2.54,6.85,0,19-14.91,20.43-14.91,1.11,0,1.99,2.54,1.99,4.2,0,3.09-16.12,21.32-26.73,21.32-3.54,0-7.62-1.66-7.62-9.83,0-5.19,3.86-12.7,8.95-20.1-1.13.19-2.27.31-3.42.33-2.76,0-4.64-.55-4.64-2.76,0-2.65.66-4.2,4.97-5.19,2.54-.55,6.19-1,9.94-1.44,2.43-2.98,4.75-5.63,6.96-7.95,3.42-3.54,4.86-4.64,6.52-4.64,1,0,1.88,1.44,1.88,2.65,0,1.43-2.54,4.2-6.3,9.28,1.43-.11,2.98-.22,4.2-.22,2.54,0,3.76,1.33,3.76,4.31,0,1.77-.55,3.09-3.54,3.2-3.48.09-6.95.42-10.38,1-4.74,7.06-9.16,14.68-9.16,18.22h0Z"/>
      <path id="_パス_1234" data-name="パス_1234" d="M389.77,65.16c12.7,0,25.84-17.12,27.61-17.12.88,0,1.99,1.99,1.99,4.2,0,4.31-18,21.32-31.14,21.32-9.16,0-14.03-6.3-14.03-12.7,0-12.92,16.79-28.71,26.17-28.71,3.42.2,6.06,3.09,5.96,6.51,0,7.4-11.82,21.32-19.33,21.32-1.62.06-3.22-.32-4.64-1.11,0,4.08,3.09,6.3,7.4,6.3h0ZM385.91,54.78c2.54,0,5.41-3.31,8.06-6.4,2.43-2.87,4.08-5.74,4.08-6.85,0-1.32-.66-1.66-1.43-1.66-1.99,0-10.05,7.07-13.14,14.24.73.45,1.57.68,2.43.66h0Z"/>
      <path id="_パス_1235" data-name="パス_1235" d="M448.62,40.89c-.37.71-.95,1.28-1.66,1.65-1.99,1-2.87-2.65-6.96,0-4.53,2.87-10.27,7.4-19.66,20.98-2.87,4.2-4.86,7.4-5.85,8.94-1,1.65-5.41,1.65-7.29-.11-2.43-2.32-2.21-4.09-.44-7.51,3.2-5.96,13.03-21.87,18.55-30.37,1.43-2.21,3.54-3.54,6.85-1.43,1.11.77,2.43,2.1,2.32,3.42-.11,3.31-4.64,8.94-10.6,18.11,3.88-5.22,8.13-10.17,12.7-14.8,4.75-4.53,10.27-7.73,12.15-4.86,1.22,1.88,1,3.75-.11,5.96h0Z"/>
      <path id="_パス_1235-2" data-name="パス_1235" d="M288,40.89c-.37.71-.95,1.28-1.66,1.65-1.99,1-2.87-2.65-6.96,0-4.53,2.87-10.27,7.4-19.66,20.98-2.87,4.2-4.86,7.4-5.85,8.94-1,1.65-5.41,1.65-7.29-.11-2.43-2.32-2.21-4.09-.44-7.51,3.2-5.96,13.03-21.87,18.55-30.37,1.43-2.21,3.54-3.54,6.85-1.43,1.11.77,2.43,2.1,2.32,3.42-.11,3.31-4.64,8.94-10.6,18.11,3.88-5.22,8.13-10.17,12.7-14.8,4.75-4.53,10.27-7.73,12.15-4.86,1.22,1.88,1,3.75-.11,5.96h0Z"/>
    </g>
  </g>
</svg>