<svg id="レイヤー_1" xmlns="http://www.w3.org/2000/svg" width="450.693" height="128.634" viewBox="0 0 450.693 128.634">
  <g id="グループ_3022" data-name="グループ 3022" transform="translate(0 0)">
    <path id="パス_1212" data-name="パス 1212" d="M2.92,97.1C1.18,97.1,0,94.453,0,91.993a6.525,6.525,0,0,1,1.194-3.769,915.566,915.566,0,0,1,72.1-73.71,194.347,194.347,0,0,0-25.131,4.1c-1.554,2.172-5.064,3.337-7.682,3.337-3.251,0-4.949-2.2-4.949-4.373,0-3.222,8.3-5.855,12.688-6.8A289.709,289.709,0,0,1,82.8,5.983l4.862-4.316a1.857,1.857,0,0,1,1.122-.417c1.539,0,2.992,1.856,2.992,3.812a1.11,1.11,0,0,1-.043.374c3.639-.129,7.279-.2,10.861-.2,4.891,0,8.976.1,12.486.331h0a1.348,1.348,0,0,1,1.323,1.367c0,2.359-5.236,6.66-7.466,6.66-.158,0-.575,0-1.194-.043-1.884-.072-5.812-.2-10.6-.2-3.855,0-8.056.129-13.206.388A1115.917,1115.917,0,0,0,4.359,96.366,1.934,1.934,0,0,1,2.92,97.1Z" transform="translate(0 0.548)"/>
    <path id="パス_1213" data-name="パス 1213" d="M40.541,73.671c-5.265,0-8.041-2.891-8.041-8.358,0-9.566,14.7-20.643,24.3-20.643,4.819,0,7.466,2.446,7.466,6.9a14.278,14.278,0,0,1-1.5,6.056,5.094,5.094,0,0,0,.863.058c2.2,0,4.431-1.036,7.02-3.237a2.274,2.274,0,0,1,1.525-.748,3.542,3.542,0,0,1,2.992,3.237,2.22,2.22,0,0,1-.906,1.683C71,61.415,66.938,64.9,62.076,64.9a9.682,9.682,0,0,1-3.553-.575c-5.107,5.7-12.127,9.365-18,9.365ZM55.186,51.46c-2.633,0-6.272,1.525-9.739,4.085-3.424,2.5-5.812,5.941-5.812,8.372a2.722,2.722,0,0,0,3.021,2.776c2.172,0,5.107-1.223,8.7-3.625l.748-.6c.82-.662,1.611-1.28,2.2-1.856a9.207,9.207,0,0,1-.662-3.683,6.961,6.961,0,0,1,2.273-5.409,5.922,5.922,0,0,0-.734-.043Z" transform="translate(14.252 19.589)"/>
    <path id="パス_1214" data-name="パス 1214" d="M31.261,111.3c-1.582,0-2.431-1.8-2.431-3.481a4.311,4.311,0,0,1,.906-2.661c9.02-9.94,18.485-19.435,27.634-28.612C62.765,71.125,67.886,66,72.748,60.954a3.446,3.446,0,0,1-1.381-2.575,2,2,0,0,1,.906-1.683c1.928-1.654,10.775-9.653,17.262-16.543a1.878,1.878,0,0,1,1.338-.633c1.482,0,2.834,1.654,2.834,3.481a3.5,3.5,0,0,1-.719,2.215c-1.381,1.8-2.661,3.381-3.9,4.877a19.065,19.065,0,0,1,8.128-2.215c4.488,0,6.574,4.215,6.574,7.063,0,10.4-13,20.974-22.355,20.974-4.661,0-7.682-2.172-8.372-5.912-.662.719-1.352,1.439-2.057,2.187s-1.424,1.5-2.129,2.273C58.579,85.884,43.748,100.5,33.3,110.368a3.386,3.386,0,0,1-2.043.935ZM79.682,63.342a7.265,7.265,0,0,0-.619,2.676,3.262,3.262,0,0,0,3.51,3.51c2.877,0,6.574-2.546,8.315-4.057,2.057-1.683,5.279-5.395,5.279-8.243a2.527,2.527,0,0,0-2.445-2.776C90.658,54.452,86.2,57.272,79.682,63.342Z" transform="translate(12.643 17.331)"/>
    <path id="パス_1215" data-name="パス 1215" d="M135.465,94.886c-1.784,0-3.812-2.5-3.812-4.7a3.6,3.6,0,0,1,.777-2.043c21.3-25.822,47.774-57.915,47.774-65.381,0-.259-.115-.993-.662-.993-5.078,0-29.778,24.412-73.394,72.545a2.074,2.074,0,0,1-1.424.561c-2.014,0-3.654-2.834-3.654-5.193a3.443,3.443,0,0,1,.978-2.733c12.127-12.616,20.413-22.441,30.885-34.87,11.149-13.134,26.685-35.028,26.685-40.869,0-2.115-.791-3.179-2.374-3.179-10.055,0-26.929,9.135-39.948,26.6a2.375,2.375,0,0,1,.734,1.712c0,2.014-6.272,9.667-9.825,9.667-2.273,0-3.568-1.381-3.568-3.812C104.638,30.583,136.084,0,161.229,0c4.388,0,7.221,3.064,7.221,7.8,0,4.3-3.6,12-10.688,22.9C170.868,17.78,179.2,11.954,184.4,11.954a5.532,5.532,0,0,1,5.51,5.682c0,4.531-3.467,11.422-11.062,21.808,20.039-19.32,33.978-29.1,41.487-29.1,3.654,0,6.416,2.546,6.416,5.927,0,7.682-12.8,20.485-26.354,34.036-8.775,8.775-17.838,17.838-23.88,25.922-4.129,5.308-4.733,8.027-4.733,9.163,0,.892.245,1.726,2.043,1.726,4.373,0,13.191-5.136,22.47-13.076a2.3,2.3,0,0,1,1.525-.748,3.542,3.542,0,0,1,2.992,3.237,2.221,2.221,0,0,1-.906,1.683c-4.5,3.855-19.967,16.442-30.065,16.442-4.56,0-7.063-2.158-7.063-6.085s2.805-9.753,8.113-16.7c7.049-9.264,17.133-19.391,26.023-28.325,10.127-10.17,19.694-19.794,19.694-23.376,0-.906-.547-.906-.748-.906-6.171,0-43.674,31.59-78.731,74.8a1.905,1.905,0,0,1-1.7.834Z" transform="translate(44.323 0)"/>
    <path id="パス_1216" data-name="パス 1216" d="M189.442,72.813c-3.927,0-6.574-2.028-6.574-5.035a8.944,8.944,0,0,1,.115-1.381c-4.071,3.237-9.048,6.416-13.954,6.416-4.028,0-6.33-2.575-6.33-7.063,0-10.228,14.155-20.24,24.714-20.24a7.378,7.378,0,0,1,7.034,4.1l1.9-1.784c.532-.432.906-.748,1.208-1.007.906-.762,1.252-1.05,1.813-1.05,1.64,0,3.078,2.086,3.078,4.459a3.033,3.033,0,0,1-1.108,2.129c-1.28,1.28-3.337,2.978-5.5,4.762-2.345,2-5.912,5.049-5.912,7.9,0,.878.288,1.151,1.237,1.151,3.841,0,13.306-7.61,18.313-12.1a2.264,2.264,0,0,1,1.539-.748,3.542,3.542,0,0,1,2.992,3.237,2.22,2.22,0,0,1-.906,1.683l-.5.46C200,70.353,193.067,72.813,189.457,72.813Zm-3.179-21.146c-3.366,0-7.955,2.446-10.228,4.085-4.517,3.654-5.481,6.128-5.481,7.552s.662,2.129,1.971,2.129c4.272,0,13.666-8.444,17.176-11.652C189.313,52.444,188.047,51.667,186.263,51.667Z" transform="translate(71.349 19.958)"/>
    <path id="パス_1217" data-name="パス 1217" d="M205.868,73.548c-3.611,0-5.754-2.129-5.754-5.682,0-5.423,5.222-10.89,7.653-13.306a4.973,4.973,0,0,1-2.23-1.252c-1.582,1.582-4.992,4.762-6.43,6a2.274,2.274,0,0,1-1.525.748,3.542,3.542,0,0,1-2.992-3.237,2,2,0,0,1,.906-1.683c1.64-1.41,5.754-5.366,11.911-11.436a2.191,2.191,0,0,1,1.64-.619c1.251,0,3.078.834,3.078,2.345a2.9,2.9,0,0,1-.82,1.755,3.526,3.526,0,0,0-.46.676,4.58,4.58,0,0,0,2.028.432,13.7,13.7,0,0,0,2.489-.3A7.951,7.951,0,0,1,216.7,47.8c1.554,0,2.5,1.741,2.5,2.992a2.192,2.192,0,0,1-.619,1.482c-6.4,5.754-10.357,10.588-10.357,12.659a1.033,1.033,0,0,0,1.151,1.151c2.776,0,8.847-3.9,17.1-10.962a2.274,2.274,0,0,1,1.525-.748A3.542,3.542,0,0,1,231,57.609a2.2,2.2,0,0,1-.906,1.683l-.878.748c-6.258,5.38-15.694,13.493-23.347,13.493Z" transform="translate(85.334 18.892)"/>
    <path id="パス_1218" data-name="パス 1218" d="M235.733,89.6c-5.222,0-8.372-2.992-10.372-9.969a76.193,76.193,0,0,0-6.617,7.739c-1.093,1.381-1.971,2-2.848,2-1.467,0-3.726-1.568-3.726-2.92a4.99,4.99,0,0,1,1.122-2.46l.144-.216c1.856-2.82,3.7-5.51,5.74-8.415a3.439,3.439,0,0,1-1.4-2.575,1.891,1.891,0,0,1,.892-1.683c1.726-1.482,10.4-9.753,16.7-16.3A499.124,499.124,0,0,1,280.716,9.456c2.158-1.827,4.172-2.776,5.84-2.776a2.194,2.194,0,0,1,2.431,2.187c0,1.381-1.021,3.194-2.963,5.207-16.7,17.9-28.943,29.519-49.212,48.8l-1.151,1.093c-.834.892-1.683,1.8-2.532,2.719,4.272-3.035,7.955-4.6,10.818-4.6,2.517,0,4.143,1.755,4.143,4.459,0,5.078-6.344,10.257-14.572,12.026.5,1.9,1.683,4.416,4.33,4.416,1.64,0,6.186-1.525,18.039-11.7l.187-.158a2.3,2.3,0,0,1,1.525-.748,3.542,3.542,0,0,1,2.992,3.237,2.22,2.22,0,0,1-.906,1.683c-.144.115-.36.316-.662.59-10.2,9.12-18.039,13.738-23.319,13.738Zm4.229-20.168c-1.712,0-4.92,1.827-8.66,4.877,6.143-1.554,8.833-3.769,8.833-4.7a.5.5,0,0,0-.014-.173Z" transform="translate(93.044 2.929)"/>
    <path id="パス_1219" data-name="パス 1219" d="M246.37,72.936c-4.517,0-8.2-3.28-8.2-7.308,0-9.653,13.954-20.4,23.4-20.4,3.05,0,4.949,1.87,4.949,4.862,0,6.833-9.279,12.99-20,13.393v.273c0,2.043.633,2.69,2.618,2.69,9.235,0,21.621-10.214,24.009-12.271a2.3,2.3,0,0,1,1.525-.748,3.542,3.542,0,0,1,2.992,3.237,2.22,2.22,0,0,1-.906,1.683c-3.985,3.424-17.967,14.572-30.4,14.572Zm13.177-21.722c-2.028,0-7.293,3.165-10.53,7.164,5.265-.676,11.364-4.56,11.364-6.416,0-.662-.446-.748-.82-.748Z" transform="translate(104.446 19.835)"/>
    <path id="パス_1220" data-name="パス 1220" d="M265.287,82.9c-3.6,0-5.927-2.676-5.927-6.819,0-8.545,10.214-20.3,17.421-28.4H264.97c-2.115,0-2.345-1.079-2.345-1.539,0-1.884,3.021-4.129,6.214-4.618a124.4,124.4,0,0,1,15.1-1.223c7.437-7.265,14.285-13.249,17.9-16.184a6.278,6.278,0,0,1,3.625-1.626,1.775,1.775,0,0,1,1.856,1.856,7.494,7.494,0,0,1-1.6,3.668c-2.273,3.007-5.984,7.337-10.53,12.314,7.322.158,14,.806,19.607,1.439.532.086,2.028.331,2.028,1.856,0,1.712-2.92,4.057-5.035,4.057H288.03c-5.265,5.481-11.192,11.379-16.73,16.629-2.474,2.992-4.819,6.243-4.819,9.322a1.58,1.58,0,0,0,1.64,1.726c2.762,0,11-7.322,14.1-10.07.547-.489.993-.878,1.295-1.136a2.274,2.274,0,0,1,1.525-.748,3.488,3.488,0,0,1,2.992,3.237,2.22,2.22,0,0,1-.906,1.683c-.6.518-1.381,1.208-2.259,2.014C279.672,75.035,271,82.89,265.272,82.89Z" transform="translate(113.738 9.867)"/>
    <path id="パス_1221" data-name="パス 1221" d="M279.83,72.936c-4.517,0-8.2-3.28-8.2-7.308,0-9.653,13.954-20.4,23.4-20.4,3.05,0,4.949,1.87,4.949,4.862,0,6.833-9.279,12.99-20,13.393v.273c0,2.043.633,2.69,2.618,2.69,9.235,0,21.621-10.214,24.009-12.271a2.3,2.3,0,0,1,1.525-.748,3.542,3.542,0,0,1,2.992,3.237,2.22,2.22,0,0,1-.906,1.683c-3.985,3.424-17.967,14.572-30.4,14.572Zm13.177-21.722c-2.028,0-7.293,3.165-10.53,7.164,5.265-.676,11.364-4.56,11.364-6.416,0-.662-.446-.748-.82-.748Z" transform="translate(119.119 19.835)"/>
    <path id="パス_1222" data-name="パス 1222" d="M306.608,73.548c-3.611,0-5.754-2.129-5.754-5.682,0-5.423,5.222-10.89,7.653-13.306a4.972,4.972,0,0,1-2.23-1.252c-1.582,1.582-4.992,4.762-6.43,6a2.274,2.274,0,0,1-1.525.748,3.542,3.542,0,0,1-2.992-3.237,2,2,0,0,1,.906-1.683c1.64-1.41,5.754-5.366,11.911-11.436a2.191,2.191,0,0,1,1.64-.619c1.251,0,3.078.834,3.078,2.345a2.9,2.9,0,0,1-.82,1.755,3.53,3.53,0,0,0-.46.676,4.58,4.58,0,0,0,2.028.432,13.7,13.7,0,0,0,2.489-.3,7.951,7.951,0,0,1,1.338-.187c1.554,0,2.5,1.741,2.5,2.992a2.192,2.192,0,0,1-.619,1.482c-6.4,5.754-10.357,10.588-10.357,12.659a1.033,1.033,0,0,0,1.151,1.151c1.611,0,4.388-1.338,6.675-4.272a1.868,1.868,0,0,1,1.712-.762,2.779,2.779,0,0,1,2.676,2.431c0,1.64-5.064,10.07-14.544,10.07Z" transform="translate(129.512 18.892)"/>
  </g>
</svg>
