<svg id="レイヤー_1" xmlns="http://www.w3.org/2000/svg" width="461.55" height="101.717" viewBox="0 0 461.55 101.717">
  <path id="パス_1225" data-name="パス 1225" d="M9.831,73.886c-.772,2.874-1.658,3.646-2.54,3.646C4.532,77.531,0,74.658,0,71.126,0,65.274,19,33.469,36.114,11.6c-13.582,1.325-25.62,2.54-28.16,2.54a3.883,3.883,0,0,1-4.089-4.084c0-3.093.553-4.418,4.97-5.19A380.986,380.986,0,0,1,63.726,0c8.5,0,11.485.662,11.485,5.3,0,1.768-.553,3.865-2.43,3.865-5.962,0-15.24.662-24.848,1.434C35.451,26.949,13.582,64.278,9.831,73.886Z"/>
  <path id="パス_1226" data-name="パス 1226" d="M75.18,112.545c-4.2,0-7.73-2.874-7.73-9.279,0-14.025,19.439-31.477,25.181-31.477,2.1,0,4.418,2.54,4.861,4.084,1.987,0,2.759,2.43,2.759,4.084a31.215,31.215,0,0,1-2.54,11.266,3,3,0,0,0,1.768.443c7.067,0,13.363-7.954,14.578-7.954.553,0,1.658,1.106,1.658,3.2,0,3.755-8.173,12.148-17.89,12.148a11.271,11.271,0,0,1-3.865-.553c-4.97,7.839-12.257,14.025-18.776,14.025ZM87.99,89.9a17.637,17.637,0,0,1,2.54-8.835C82.8,86.478,77.277,95.2,77.277,100.393c0,1.325.553,1.878,1.658,1.878,2.54,0,6.738-4.527,9.5-9.5A7.8,7.8,0,0,1,87.99,89.9Z" transform="translate(-36.636 -38.993)"/>
  <path id="パス_1227" data-name="パス 1227" d="M114.209,118.157c-1,3.422-2.207,4.308-4.308,4.308-3.2,0-4.751-3.975-4.751-5.743,0-6.958,11.266-24.4,22.2-42.962,20.1-34.126,19.548-35.561,23.3-35.561,1.987,0,4.084,1.544,4.084,3.422,0,2.43-3.312,6.848-8.063,14.907,3.422-2.759,6.738-4.527,9.388-4.527s5.3,2.759,5.3,7.067c0,11.375-14.249,35.232-25.734,35.232-2.759,0-5.523-2.65-6.738-5.523-4.637,8.726-9.607,18.553-14.688,29.375ZM150.542,63.93c0-1.215-.443-1.878-1.106-1.878-2.207,0-6.515,4.527-9.717,9.164-4.418,6.3-5.962,9.055-5.962,11.042,0,1,.443,1.878,2.1,1.878,4.97,0,14.688-15.24,14.688-20.211Z" transform="translate(-57.113 -20.748)"/>
  <path id="パス_1228" data-name="パス 1228" d="M322.715,69.463c-2.54,0-3.975-1.106-3.975-3.646,0-3.975,3.093-21.979,9.717-38.325C310.9,48.7,303.609,61.176,296.542,73.214c-2.207,3.755-3.865,7.511-5.19,7.511-1.435,0-5.852-1-5.852-5.3,0-8.835,32.582-53.341,45.392-66.375,3.755-3.865,4.527-4.418,7.954-4.418,4.2,0,5.743,1.544,5.743,3.646,0,2.321-6.624,11.266-12.92,36.447C356.512,11.7,364.9,1.21,370.2,1.21c3.093,0,7.511,3.422,7.511,4.97,0,.443-.333,1-1.658,1.987-6.515,7.73-25.734,39.869-25.734,50.692,0,1.987.662,3.2,2.43,3.2,4.2,0,16.012-13.363,17.228-13.363.991,0,1.987,2.321,1.987,4.2,0,3.975-16.789,21.316-23.966,21.316-5.633,0-6.738-6.076-6.738-11.7,0-9.717,7.511-24.519,11.266-31.477-18.333,19-26.616,38.435-29.818,38.435Z" transform="translate(-155.07 -0.657)"/>
  <path id="パス_1229" data-name="パス 1229" d="M460.238,115.143c-2.874,0-6.738-4.751-6.738-10.713,0-13.7,20.873-29.489,26.4-29.489a5.275,5.275,0,0,1,4.527,3.422c1.987-2.321,3.2-3.093,4.527-3.093a3.435,3.435,0,0,1,3.536,3.2c0,1.106-.772,2.207-3.646,6.076-4.418,5.852-10.051,12.92-10.051,16.675,0,1.106.443,2.983,2.207,2.983,6.4,0,20.1-15.46,21.316-15.46,1.106,0,1.987,2.54,1.987,4.2,0,3.536-16.9,21.316-26.173,21.316-3.646,0-6.076-3.755-6.076-10.27-4.527,7.291-9.279,11.156-11.819,11.156Zm16.789-30.814c-3.2,0-14.359,13.916-14.359,18.114a.964.964,0,0,0,1,1.106c2.983,0,10.932-11.595,13.143-14.8a27.138,27.138,0,0,1,1.878-2.65c-.329-1.215-1.106-1.768-1.658-1.768Z" transform="translate(-246.32 -40.704)"/>
  <path id="パス_1230" data-name="パス 1230" d="M553.846,91.458a.85.85,0,0,1-.553.219c-1.325,0-3.093-3.536-3.093-4.861a.931.931,0,0,1,.219-.662c1.106-1.106,6.515-7.177,11.7-13.253a1.857,1.857,0,0,1-1.325-1.544c0-2.65,5.852-8.506,7.067-8.506,1.544,0,2.54,2.54,4.308,2.54,1.435,0,3.536-.553,4.861-.553,1.768,0,3.093,7.177,3.093,8.5,0,2.43-.553,3.093-2.54,5.414-3.755,4.637-8.5,10.932-8.5,15.24,0,2.65,1.215,3.646,2.983,3.646,6.848,0,19.992-15.46,21.316-15.46,1.215,0,1.987,2.874,1.987,4.2,0,3.312-16.346,21.316-26.726,21.316-3.975,0-8.726-2.54-8.726-9.055,0-9.169,10.713-19.329,10.713-22.089,0-.882-1.658-1.544-3.646-2.1-9.831,12.92-11.042,14.578-13.143,17.008Z" transform="translate(-298.843 -34.137)"/>
  <path id="パス_1231" data-name="パス 1231" d="M641.345,57.817a52.3,52.3,0,0,0-.443,6.738c0,4.97,1,8.283,4.308,8.283,6.405,0,19.992-15.46,21.317-15.46.882,0,1.987,2.321,1.987,4.2,0,3.646-16.236,21.316-26.726,21.316-3.536,0-7.954-2.43-7.954-12.257a40.191,40.191,0,0,1,1-8.726,15.243,15.243,0,0,0-2.207,1.434c-3.312,5.962-6.848,12.481-10.27,19.548-1.215,2.54-2.1,3.536-4.2,3.536-3.2,0-3.646-2.321-3.646-3.755,0-4.527,7.4-17.89,18.553-36C648.636,21.6,651.725,17.18,654.932,17.18c1.215,0,2.54,1.434,2.54,3.093,0,2.321-7.954,13.7-18.662,32.139,8.726-5.743,18.443-11.595,22.861-11.595,1.215,0,1.768.882,1.768,2.874,0,3.755-1.215,5.414-2.65,5.414a3.42,3.42,0,0,1-1.215-.219c-4.637,1.544-10.932,4.637-18.224,8.945Z" transform="translate(-333.773 -9.331)"/>
  <path id="パス_1232" data-name="パス 1232" d="M727.5,103.376c12.7,0,25.844-17.118,27.612-17.118.882,0,1.987,1.987,1.987,4.2,0,4.308-18,21.316-31.143,21.316-9.164,0-14.025-6.3-14.025-12.7,0-12.92,16.789-28.713,26.173-28.713a6.343,6.343,0,0,1,5.962,6.515c0,7.4-11.819,21.316-19.329,21.316a8.929,8.929,0,0,1-4.637-1.106c0,4.084,3.093,6.3,7.4,6.3ZM723.634,93c2.54,0,5.414-3.312,8.063-6.4,2.43-2.874,4.084-5.743,4.084-6.848,0-1.325-.662-1.658-1.435-1.658-1.987,0-10.051,7.067-13.143,14.244a4.436,4.436,0,0,0,2.43.662Z" transform="translate(-386.687 -38.216)"/>
  <path id="パス_1233" data-name="パス 1233" d="M800.692,86.545c0,1.544.662,2.54,2.207,2.54,6.848,0,19-14.911,20.43-14.911,1.106,0,1.987,2.54,1.987,4.2,0,3.093-16.122,21.316-26.726,21.316-3.536,0-7.62-1.658-7.62-9.827,0-5.19,3.865-12.7,8.945-20.1a23.593,23.593,0,0,1-3.422.333c-2.759,0-4.637-.553-4.637-2.759,0-2.65.662-4.2,4.97-5.19,2.54-.553,6.186-1,9.941-1.435q3.646-4.475,6.958-7.954c3.422-3.536,4.861-4.637,6.515-4.637,1,0,1.878,1.435,1.878,2.65,0,1.434-2.54,4.2-6.3,9.279,1.434-.11,2.983-.219,4.2-.219,2.54,0,3.755,1.325,3.755,4.308,0,1.768-.553,3.093-3.536,3.2a73.374,73.374,0,0,0-10.38,1C805.114,75.4,800.7,83.023,800.7,86.559Z" transform="translate(-429.618 -26.137)"/>
  <path id="パス_1234" data-name="パス 1234" d="M860.939,103.376c12.7,0,25.844-17.118,27.612-17.118.882,0,1.987,1.987,1.987,4.2,0,4.308-18,21.316-31.143,21.316-9.164,0-14.025-6.3-14.025-12.7,0-12.92,16.789-28.713,26.173-28.713a6.343,6.343,0,0,1,5.962,6.515c0,7.4-11.819,21.316-19.329,21.316a8.929,8.929,0,0,1-4.637-1.106c0,4.084,3.093,6.3,7.4,6.3ZM857.074,93c2.54,0,5.414-3.312,8.063-6.4,2.43-2.874,4.084-5.743,4.084-6.848,0-1.325-.662-1.658-1.434-1.658-1.987,0-10.051,7.067-13.143,14.244a4.436,4.436,0,0,0,2.43.662Z" transform="translate(-459.166 -38.216)"/>
  <path id="パス_1235" data-name="パス 1235" d="M956.893,78.918a3.95,3.95,0,0,1-1.658,1.654c-1.987,1-2.874-2.65-6.958,0-4.527,2.874-10.27,7.4-19.658,20.983-2.874,4.2-4.861,7.4-5.852,8.945-1,1.654-5.414,1.654-7.291-.11-2.43-2.321-2.207-4.089-.443-7.511,3.2-5.962,13.034-21.869,18.552-30.371,1.435-2.211,3.536-3.536,6.848-1.434,1.106.772,2.43,2.1,2.321,3.422-.11,3.312-4.637,8.945-10.6,18.109a140.1,140.1,0,0,1,12.7-14.8c4.751-4.527,10.27-7.73,12.148-4.861,1.215,1.878,1,3.755-.11,5.962Z" transform="translate(-496.268 -38.03)"/>
</svg>
