<svg xmlns="http://www.w3.org/2000/svg" width="267.407" height="115.481" viewBox="0 0 267.407 115.481">
  <path id="パス_873" data-name="パス 873" d="M-134.8-60c-1-1.2-1.2-2.6-.6-3.2,3.4-4.2,9-11.6,12.8-15,.6-.8,2.6-.2,4.2,1.6,1.6,1.6,2.4,3.8,1.8,4.6-.2,0-24.6,30.4-19.8,33.4,7.2,4.8,24.8-25.4,26.8-28.6l.2-.4c.6-1,2.4-.6,4.2,1,1.6,1.6,2.6,3.8,2,4.8,0,0-10.4,18.8-6.6,21.4,2.8,1.8,6.6-.2,12.2-6.2,5-5.2,10.8-13.6,18-25a61.3,61.3,0,0,1,5-8c.8-.8,2.6-.4,4.2,1.2,1.8,1.6,2.6,3.8,2,4.8v.2c-3.6,5.6-6.8,10.6-9.8,15.2-.4,1.4-.6,2.4,0,2.8C-73-52.2-60-60-56.4-63.6c.8-.8,1.8-1.2,3.4.4,1.6,1.8,1.2,2.6.4,3.4C-59-52.8-66.8-43-77.8-49.6a22.125,22.125,0,0,1-3.8-3.6,115.162,115.162,0,0,1-10,12.8c-6.8,7.2-12.6,9.2-18.4,5.4a13.407,13.407,0,0,1-5.4-9.2C-122-36-130.2-29-136.2-33-144-38-140.4-49.8-134.8-60ZM-50-71.6c.8-.6,2.8.2,4.4,2s2,3.8,1.2,4.6A11.093,11.093,0,0,0-46-63.8c-4.2,3.8-7.6,10-9.8,16.2-1.6,5.2-2.4,10-1.4,12a6.086,6.086,0,0,0,3.8,0,15.688,15.688,0,0,0,6-3.8A35.543,35.543,0,0,0-39.6-50a41.006,41.006,0,0,0,3.2-8.2,28.454,28.454,0,0,1-7.8-10.2,21.41,21.41,0,0,1-2-9.8c.4-2.8,1.6-4.8,4-5.2a8.69,8.69,0,0,1,5,1A14.722,14.722,0,0,1-31-75.6a21.583,21.583,0,0,1,2.2,7.2,30.929,30.929,0,0,1,0,8.6c4.4.8,11,1.6,18-2.4,1-.6,2-1.4,3.6.4C-5.8-60-6-58.6-7-58c-9.4,5.2-16.4,6-22.6,3.8a35.626,35.626,0,0,1-3.8,10A38.7,38.7,0,0,1-41.6-33c-2.4,2-4.6,3.6-6.8,4.2a9.77,9.77,0,0,1-7.8-.8,14.835,14.835,0,0,1-4-3.2L-61.4-34c-3.2-4.6-3-12-.8-19,2.2-6.6,6-13.2,10.4-17.2C-51.2-70.6-50.6-71.2-50-71.6ZM-35.4-63a33.816,33.816,0,0,0,0-9,18.027,18.027,0,0,0-1-4.4h.2a1.64,1.64,0,0,0-1.4,0c-1.2,0-1.8,1.2-2,3a12.2,12.2,0,0,0,1.2,6.2A10.213,10.213,0,0,0-35.4-63ZM1.4-83c.6-1,2.6-.4,4.2,1.2,1.8,1.6,2.6,3.8,2,4.8L.2-65.2c7-3.4,16.6-6.6,20.6-1.6,1.8,2,1.2,6.6,3.8,6.8a48.177,48.177,0,0,0,14.8-2.2c1.2-.4,2.4-1.4,3.6.4,1.4,2,.6,2.6-.6,2.8-5.8,1.8-15.4,3.8-19.6,3.4-5.2-.4-6.8-1.8-11.2-7C8.6-66.2-9.2-50.4-9.2-50.4-9.6-50.2-20-32.6-21-30.8c-.6,1-2.6.4-4.2-1.2-1.8-1.6-2.6-3.8-2-4.8ZM86-139.4c.8-1,2.6-.4,4.4,1.2,1.6,1.6,2.4,3.8,1.8,4.8L54-73.8C62.8-81.4,72.6-88.2,82.8-92c1.2-.4,3.2.8,4.6,2.6s1.6,3.8.6,4.2C76.4-80.8,65.4-72.6,55.6-63.8c-.6,2.8-5,21.6,2,24.6,11,4.8,42.8-22.4,43-22.4.8-.8,3.2-3.4,4.8-1.6s1.6,2.8.8,3.6c-.2.2-33.2,32.8-47,26.8C49.8-37,47.6-47.2,47.6-56a215.839,215.839,0,0,0-25,31.2c-.6.8-2.6.4-4.2-1.4-1.8-1.6-2.6-3.6-2-4.6l.4-.6ZM102.4-55c-.8.8-3.2,2-4.8.4-1.6-1.8,2.6-5.4,3.4-6.2L116-79a47.711,47.711,0,0,1,4.6-4.4c.8-.8,2.8,0,4.2,1.8,1.6,1.6,2.4,3.8,1.6,4.6l-4.8,4.6c-4.2,4.8-9.8,13.4-7.6,22.6,1.2,5.8.6,10.4-1,13.8a16.334,16.334,0,0,1-3.8,4.4,13.926,13.926,0,0,1-4.6,2.2,11.409,11.409,0,0,1-7.8-1c-11.4-5.8-5.2-17-5.2-17.2.6-1,2.4-.6,4.2,1s2.6,3.8,2.2,4.8c0,.2-2.8,5.2-2.4,5.4a6.673,6.673,0,0,0,4,0,8.049,8.049,0,0,0,4-1.8,8.819,8.819,0,0,0,3-3.6,16.235,16.235,0,0,0,1-11c0-2.6-1.8-2.8,3-11.6Z" transform="translate(140.693 139.889)" fill="#ddd"/>
</svg>
